<svg width="1440" height="456" viewBox="0 0 1440 456" fill="none" xmlns="http://www.w3.org/2000/svg">
<rect x="0.5" y="-2" width="79" height="79" stroke="#C6BBE1" stroke-opacity="0.25" stroke-linecap="round" stroke-dasharray="7 7"/>
<rect x="80.5" y="-2" width="79" height="79" stroke="#C6BBE1" stroke-opacity="0.25" stroke-linecap="round" stroke-dasharray="7 7"/>
<rect x="160.5" y="-2" width="79" height="79" stroke="#C6BBE1" stroke-opacity="0.25" stroke-linecap="round" stroke-dasharray="7 7"/>
<rect x="240.5" y="-2" width="79" height="79" stroke="#C6BBE1" stroke-opacity="0.25" stroke-linecap="round" stroke-dasharray="7 7"/>
<rect x="320.5" y="-2" width="79" height="79" stroke="#C6BBE1" stroke-opacity="0.25" stroke-linecap="round" stroke-dasharray="7 7"/>
<rect x="400.5" y="-2" width="79" height="79" stroke="#C6BBE1" stroke-opacity="0.25" stroke-linecap="round" stroke-dasharray="7 7"/>
<rect x="480.5" y="-2" width="79" height="79" stroke="#C6BBE1" stroke-opacity="0.25" stroke-linecap="round" stroke-dasharray="7 7"/>
<rect x="560.5" y="-2" width="79" height="79" stroke="#C6BBE1" stroke-opacity="0.25" stroke-linecap="round" stroke-dasharray="7 7"/>
<rect x="640.5" y="-2" width="79" height="79" stroke="#C6BBE1" stroke-opacity="0.25" stroke-linecap="round" stroke-dasharray="7 7"/>
<rect x="720.5" y="-2" width="79" height="79" stroke="#C6BBE1" stroke-opacity="0.25" stroke-linecap="round" stroke-dasharray="7 7"/>
<rect x="800.5" y="-2" width="79" height="79" stroke="#C6BBE1" stroke-opacity="0.25" stroke-linecap="round" stroke-dasharray="7 7"/>
<rect x="880.5" y="-2" width="79" height="79" stroke="#C6BBE1" stroke-opacity="0.25" stroke-linecap="round" stroke-dasharray="7 7"/>
<rect x="960.5" y="-2" width="79" height="79" stroke="#C6BBE1" stroke-opacity="0.25" stroke-linecap="round" stroke-dasharray="7 7"/>
<rect x="1040.5" y="-2" width="79" height="79" stroke="#C6BBE1" stroke-opacity="0.25" stroke-linecap="round" stroke-dasharray="7 7"/>
<rect x="1120.5" y="-2" width="79" height="79" stroke="#C6BBE1" stroke-opacity="0.25" stroke-linecap="round" stroke-dasharray="7 7"/>
<rect x="1200.5" y="-2" width="79" height="79" stroke="#C6BBE1" stroke-opacity="0.25" stroke-linecap="round" stroke-dasharray="7 7"/>
<rect x="1280.5" y="-2" width="79" height="79" stroke="#C6BBE1" stroke-opacity="0.25" stroke-linecap="round" stroke-dasharray="7 7"/>
<rect x="1360.5" y="-2" width="79" height="79" stroke="#C6BBE1" stroke-opacity="0.25" stroke-linecap="round" stroke-dasharray="7 7"/>
<rect x="0.5" y="78" width="79" height="79" stroke="#C6BBE1" stroke-opacity="0.25" stroke-linecap="round" stroke-dasharray="7 7"/>
<rect x="80.5" y="78" width="79" height="79" stroke="#C6BBE1" stroke-opacity="0.25" stroke-linecap="round" stroke-dasharray="7 7"/>
<rect x="160.5" y="78" width="79" height="79" stroke="#C6BBE1" stroke-opacity="0.25" stroke-linecap="round" stroke-dasharray="7 7"/>
<rect x="240.5" y="78" width="79" height="79" stroke="#C6BBE1" stroke-opacity="0.25" stroke-linecap="round" stroke-dasharray="7 7"/>
<rect x="320.5" y="78" width="79" height="79" stroke="#C6BBE1" stroke-opacity="0.25" stroke-linecap="round" stroke-dasharray="7 7"/>
<rect x="400.5" y="78" width="79" height="79" stroke="#C6BBE1" stroke-opacity="0.25" stroke-linecap="round" stroke-dasharray="7 7"/>
<rect x="480.5" y="78" width="79" height="79" stroke="#C6BBE1" stroke-opacity="0.25" stroke-linecap="round" stroke-dasharray="7 7"/>
<rect x="560.5" y="78" width="79" height="79" stroke="#C6BBE1" stroke-opacity="0.25" stroke-linecap="round" stroke-dasharray="7 7"/>
<rect x="640.5" y="78" width="79" height="79" stroke="#C6BBE1" stroke-opacity="0.25" stroke-linecap="round" stroke-dasharray="7 7"/>
<rect x="720.5" y="78" width="79" height="79" stroke="#C6BBE1" stroke-opacity="0.25" stroke-linecap="round" stroke-dasharray="7 7"/>
<rect x="800.5" y="78" width="79" height="79" stroke="#C6BBE1" stroke-opacity="0.25" stroke-linecap="round" stroke-dasharray="7 7"/>
<rect x="880.5" y="78" width="79" height="79" stroke="#C6BBE1" stroke-opacity="0.25" stroke-linecap="round" stroke-dasharray="7 7"/>
<rect x="960.5" y="78" width="79" height="79" stroke="#C6BBE1" stroke-opacity="0.25" stroke-linecap="round" stroke-dasharray="7 7"/>
<rect x="1040.5" y="78" width="79" height="79" stroke="#C6BBE1" stroke-opacity="0.25" stroke-linecap="round" stroke-dasharray="7 7"/>
<rect x="1120.5" y="78" width="79" height="79" stroke="#C6BBE1" stroke-opacity="0.25" stroke-linecap="round" stroke-dasharray="7 7"/>
<rect x="1200.5" y="78" width="79" height="79" stroke="#C6BBE1" stroke-opacity="0.25" stroke-linecap="round" stroke-dasharray="7 7"/>
<rect x="1280.5" y="78" width="79" height="79" stroke="#C6BBE1" stroke-opacity="0.25" stroke-linecap="round" stroke-dasharray="7 7"/>
<rect x="1360.5" y="78" width="79" height="79" stroke="#C6BBE1" stroke-opacity="0.25" stroke-linecap="round" stroke-dasharray="7 7"/>
<rect x="0.5" y="158" width="79" height="79" stroke="#C6BBE1" stroke-opacity="0.25" stroke-linecap="round" stroke-dasharray="7 7"/>
<rect x="80.5" y="158" width="79" height="79" stroke="#C6BBE1" stroke-opacity="0.25" stroke-linecap="round" stroke-dasharray="7 7"/>
<rect x="160.5" y="158" width="79" height="79" stroke="#C6BBE1" stroke-opacity="0.25" stroke-linecap="round" stroke-dasharray="7 7"/>
<rect x="240.5" y="158" width="79" height="79" stroke="#C6BBE1" stroke-opacity="0.25" stroke-linecap="round" stroke-dasharray="7 7"/>
<rect x="320.5" y="158" width="79" height="79" stroke="#C6BBE1" stroke-opacity="0.25" stroke-linecap="round" stroke-dasharray="7 7"/>
<rect x="400.5" y="158" width="79" height="79" stroke="#C6BBE1" stroke-opacity="0.25" stroke-linecap="round" stroke-dasharray="7 7"/>
<rect x="480.5" y="158" width="79" height="79" stroke="#C6BBE1" stroke-opacity="0.25" stroke-linecap="round" stroke-dasharray="7 7"/>
<rect x="560.5" y="158" width="79" height="79" stroke="#C6BBE1" stroke-opacity="0.25" stroke-linecap="round" stroke-dasharray="7 7"/>
<rect x="640.5" y="158" width="79" height="79" stroke="#C6BBE1" stroke-opacity="0.25" stroke-linecap="round" stroke-dasharray="7 7"/>
<rect x="720.5" y="158" width="79" height="79" stroke="#C6BBE1" stroke-opacity="0.25" stroke-linecap="round" stroke-dasharray="7 7"/>
<rect x="800.5" y="158" width="79" height="79" stroke="#C6BBE1" stroke-opacity="0.25" stroke-linecap="round" stroke-dasharray="7 7"/>
<rect x="880.5" y="158" width="79" height="79" stroke="#C6BBE1" stroke-opacity="0.25" stroke-linecap="round" stroke-dasharray="7 7"/>
<rect x="960.5" y="158" width="79" height="79" stroke="#C6BBE1" stroke-opacity="0.25" stroke-linecap="round" stroke-dasharray="7 7"/>
<rect x="1040.5" y="158" width="79" height="79" stroke="#C6BBE1" stroke-opacity="0.25" stroke-linecap="round" stroke-dasharray="7 7"/>
<rect x="1120.5" y="158" width="79" height="79" stroke="#C6BBE1" stroke-opacity="0.25" stroke-linecap="round" stroke-dasharray="7 7"/>
<rect x="1200.5" y="158" width="79" height="79" stroke="#C6BBE1" stroke-opacity="0.25" stroke-linecap="round" stroke-dasharray="7 7"/>
<rect x="1280.5" y="158" width="79" height="79" stroke="#C6BBE1" stroke-opacity="0.25" stroke-linecap="round" stroke-dasharray="7 7"/>
<rect x="1360.5" y="158" width="79" height="79" stroke="#C6BBE1" stroke-opacity="0.25" stroke-linecap="round" stroke-dasharray="7 7"/>
<rect x="0.5" y="238" width="79" height="79" stroke="#C6BBE1" stroke-opacity="0.25" stroke-linecap="round" stroke-dasharray="7 7"/>
<rect x="80.5" y="238" width="79" height="79" stroke="#C6BBE1" stroke-opacity="0.25" stroke-linecap="round" stroke-dasharray="7 7"/>
<rect x="160.5" y="238" width="79" height="79" stroke="#C6BBE1" stroke-opacity="0.25" stroke-linecap="round" stroke-dasharray="7 7"/>
<rect x="240.5" y="238" width="79" height="79" stroke="#C6BBE1" stroke-opacity="0.25" stroke-linecap="round" stroke-dasharray="7 7"/>
<rect x="320.5" y="238" width="79" height="79" stroke="#C6BBE1" stroke-opacity="0.25" stroke-linecap="round" stroke-dasharray="7 7"/>
<rect x="400.5" y="238" width="79" height="79" stroke="#C6BBE1" stroke-opacity="0.25" stroke-linecap="round" stroke-dasharray="7 7"/>
<rect x="480.5" y="238" width="79" height="79" stroke="#C6BBE1" stroke-opacity="0.25" stroke-linecap="round" stroke-dasharray="7 7"/>
<rect x="560.5" y="238" width="79" height="79" stroke="#C6BBE1" stroke-opacity="0.25" stroke-linecap="round" stroke-dasharray="7 7"/>
<rect x="640.5" y="238" width="79" height="79" stroke="#C6BBE1" stroke-opacity="0.25" stroke-linecap="round" stroke-dasharray="7 7"/>
<rect x="720.5" y="238" width="79" height="79" stroke="#C6BBE1" stroke-opacity="0.25" stroke-linecap="round" stroke-dasharray="7 7"/>
<rect x="800.5" y="238" width="79" height="79" stroke="#C6BBE1" stroke-opacity="0.25" stroke-linecap="round" stroke-dasharray="7 7"/>
<rect x="880.5" y="238" width="79" height="79" stroke="#C6BBE1" stroke-opacity="0.25" stroke-linecap="round" stroke-dasharray="7 7"/>
<rect x="960.5" y="238" width="79" height="79" stroke="#C6BBE1" stroke-opacity="0.25" stroke-linecap="round" stroke-dasharray="7 7"/>
<rect x="1040.5" y="238" width="79" height="79" stroke="#C6BBE1" stroke-opacity="0.25" stroke-linecap="round" stroke-dasharray="7 7"/>
<rect x="1120.5" y="238" width="79" height="79" stroke="#C6BBE1" stroke-opacity="0.25" stroke-linecap="round" stroke-dasharray="7 7"/>
<rect x="1200.5" y="238" width="79" height="79" stroke="#C6BBE1" stroke-opacity="0.25" stroke-linecap="round" stroke-dasharray="7 7"/>
<rect x="1280.5" y="238" width="79" height="79" stroke="#C6BBE1" stroke-opacity="0.25" stroke-linecap="round" stroke-dasharray="7 7"/>
<rect x="1360.5" y="238" width="79" height="79" stroke="#C6BBE1" stroke-opacity="0.25" stroke-linecap="round" stroke-dasharray="7 7"/>
<rect x="0.5" y="318" width="79" height="79" stroke="#C6BBE1" stroke-opacity="0.25" stroke-linecap="round" stroke-dasharray="7 7"/>
<rect x="80.5" y="318" width="79" height="79" stroke="#C6BBE1" stroke-opacity="0.25" stroke-linecap="round" stroke-dasharray="7 7"/>
<rect x="160.5" y="318" width="79" height="79" stroke="#C6BBE1" stroke-opacity="0.25" stroke-linecap="round" stroke-dasharray="7 7"/>
<rect x="240.5" y="318" width="79" height="79" stroke="#C6BBE1" stroke-opacity="0.25" stroke-linecap="round" stroke-dasharray="7 7"/>
<rect x="320.5" y="318" width="79" height="79" stroke="#C6BBE1" stroke-opacity="0.25" stroke-linecap="round" stroke-dasharray="7 7"/>
<rect x="400.5" y="318" width="79" height="79" stroke="#C6BBE1" stroke-opacity="0.25" stroke-linecap="round" stroke-dasharray="7 7"/>
<rect x="480.5" y="318" width="79" height="79" stroke="#C6BBE1" stroke-opacity="0.25" stroke-linecap="round" stroke-dasharray="7 7"/>
<rect x="560.5" y="318" width="79" height="79" stroke="#C6BBE1" stroke-opacity="0.25" stroke-linecap="round" stroke-dasharray="7 7"/>
<rect x="640.5" y="318" width="79" height="79" stroke="#C6BBE1" stroke-opacity="0.25" stroke-linecap="round" stroke-dasharray="7 7"/>
<rect x="720.5" y="318" width="79" height="79" stroke="#C6BBE1" stroke-opacity="0.25" stroke-linecap="round" stroke-dasharray="7 7"/>
<rect x="800.5" y="318" width="79" height="79" stroke="#C6BBE1" stroke-opacity="0.25" stroke-linecap="round" stroke-dasharray="7 7"/>
<rect x="880.5" y="318" width="79" height="79" stroke="#C6BBE1" stroke-opacity="0.25" stroke-linecap="round" stroke-dasharray="7 7"/>
<rect x="960.5" y="318" width="79" height="79" stroke="#C6BBE1" stroke-opacity="0.25" stroke-linecap="round" stroke-dasharray="7 7"/>
<rect x="1040.5" y="318" width="79" height="79" stroke="#C6BBE1" stroke-opacity="0.25" stroke-linecap="round" stroke-dasharray="7 7"/>
<rect x="1120.5" y="318" width="79" height="79" stroke="#C6BBE1" stroke-opacity="0.25" stroke-linecap="round" stroke-dasharray="7 7"/>
<rect x="1200.5" y="318" width="79" height="79" stroke="#C6BBE1" stroke-opacity="0.25" stroke-linecap="round" stroke-dasharray="7 7"/>
<rect x="1280.5" y="318" width="79" height="79" stroke="#C6BBE1" stroke-opacity="0.25" stroke-linecap="round" stroke-dasharray="7 7"/>
<rect x="1360.5" y="318" width="79" height="79" stroke="#C6BBE1" stroke-opacity="0.25" stroke-linecap="round" stroke-dasharray="7 7"/>
<rect x="0.5" y="398" width="79" height="79" stroke="#C6BBE1" stroke-opacity="0.25" stroke-linecap="round" stroke-dasharray="7 7"/>
<rect x="80.5" y="398" width="79" height="79" stroke="#C6BBE1" stroke-opacity="0.25" stroke-linecap="round" stroke-dasharray="7 7"/>
<rect x="160.5" y="398" width="79" height="79" stroke="#C6BBE1" stroke-opacity="0.25" stroke-linecap="round" stroke-dasharray="7 7"/>
<rect x="240.5" y="398" width="79" height="79" stroke="#C6BBE1" stroke-opacity="0.25" stroke-linecap="round" stroke-dasharray="7 7"/>
<rect x="320.5" y="398" width="79" height="79" stroke="#C6BBE1" stroke-opacity="0.25" stroke-linecap="round" stroke-dasharray="7 7"/>
<rect x="400.5" y="398" width="79" height="79" stroke="#C6BBE1" stroke-opacity="0.25" stroke-linecap="round" stroke-dasharray="7 7"/>
<rect x="480.5" y="398" width="79" height="79" stroke="#C6BBE1" stroke-opacity="0.25" stroke-linecap="round" stroke-dasharray="7 7"/>
<rect x="560.5" y="398" width="79" height="79" stroke="#C6BBE1" stroke-opacity="0.25" stroke-linecap="round" stroke-dasharray="7 7"/>
<rect x="640.5" y="398" width="79" height="79" stroke="#C6BBE1" stroke-opacity="0.25" stroke-linecap="round" stroke-dasharray="7 7"/>
<rect x="720.5" y="398" width="79" height="79" stroke="#C6BBE1" stroke-opacity="0.25" stroke-linecap="round" stroke-dasharray="7 7"/>
<rect x="800.5" y="398" width="79" height="79" stroke="#C6BBE1" stroke-opacity="0.25" stroke-linecap="round" stroke-dasharray="7 7"/>
<rect x="880.5" y="398" width="79" height="79" stroke="#C6BBE1" stroke-opacity="0.25" stroke-linecap="round" stroke-dasharray="7 7"/>
<rect x="960.5" y="398" width="79" height="79" stroke="#C6BBE1" stroke-opacity="0.25" stroke-linecap="round" stroke-dasharray="7 7"/>
<rect x="1040.5" y="398" width="79" height="79" stroke="#C6BBE1" stroke-opacity="0.25" stroke-linecap="round" stroke-dasharray="7 7"/>
<rect x="1120.5" y="398" width="79" height="79" stroke="#C6BBE1" stroke-opacity="0.25" stroke-linecap="round" stroke-dasharray="7 7"/>
<rect x="1200.5" y="398" width="79" height="79" stroke="#C6BBE1" stroke-opacity="0.25" stroke-linecap="round" stroke-dasharray="7 7"/>
<rect x="1280.5" y="398" width="79" height="79" stroke="#C6BBE1" stroke-opacity="0.25" stroke-linecap="round" stroke-dasharray="7 7"/>
<rect x="1360.5" y="398" width="79" height="79" stroke="#C6BBE1" stroke-opacity="0.25" stroke-linecap="round" stroke-dasharray="7 7"/>
</svg>
