<svg width="26" height="26" viewBox="0 0 26 26" fill="none" xmlns="http://www.w3.org/2000/svg">
<rect x="1" y="1" width="24" height="24" rx="2" fill="#191024"/>
<rect x="1" y="1" width="24" height="24" rx="2" stroke="url(#paint0_linear_175_6196)" stroke-width="0.5"/>
<path d="M20.1001 20.0993V14.8986C20.1001 12.3426 19.5499 10.3901 16.5684 10.3901C15.1309 10.3901 14.1725 11.1711 13.7821 11.9166H13.7466V10.6208H10.9248V20.0993H13.8708V15.3956C13.8708 14.1531 14.1015 12.9638 15.6278 12.9638C17.1363 12.9638 17.1541 14.3661 17.1541 15.4666V20.0815H20.1001V20.0993Z" fill="url(#paint1_linear_175_6196)"/>
<path d="M6.13342 10.6214H9.07945V20.0999H6.13342V10.6214Z" fill="url(#paint2_linear_175_6196)"/>
<path d="M7.60363 5.90015C6.66303 5.90015 5.8999 6.66339 5.8999 7.60414C5.8999 8.54488 6.66303 9.32588 7.60363 9.32588C8.54423 9.32588 9.30736 8.54488 9.30736 7.60414C9.30736 6.66339 8.54423 5.90015 7.60363 5.90015Z" fill="url(#paint3_linear_175_6196)"/>
<defs>
<linearGradient id="paint0_linear_175_6196" x1="1" y1="1" x2="25" y2="25" gradientUnits="userSpaceOnUse">
<stop stop-color="#AF85E5"/>
<stop offset="1" stop-color="#614A7F"/>
</linearGradient>
<linearGradient id="paint1_linear_175_6196" x1="15.5124" y1="10.3901" x2="15.5124" y2="20.0993" gradientUnits="userSpaceOnUse">
<stop stop-color="#AC83E1"/>
<stop offset="1" stop-color="#543280"/>
</linearGradient>
<linearGradient id="paint2_linear_175_6196" x1="7.60644" y1="10.6214" x2="7.60644" y2="20.0999" gradientUnits="userSpaceOnUse">
<stop stop-color="#AC83E1"/>
<stop offset="1" stop-color="#543280"/>
</linearGradient>
<linearGradient id="paint3_linear_175_6196" x1="7.60363" y1="5.90015" x2="7.60363" y2="9.32588" gradientUnits="userSpaceOnUse">
<stop stop-color="#AC83E1"/>
<stop offset="1" stop-color="#543280"/>
</linearGradient>
</defs>
</svg>
