<svg width="26" height="26" viewBox="0 0 26 26" fill="none" xmlns="http://www.w3.org/2000/svg">
<rect x="1" y="1" width="24" height="24" rx="2" fill="#191024"/>
<rect x="1" y="1" width="24" height="24" rx="2" stroke="url(#paint0_linear_175_6201)" stroke-width="0.5"/>
<g clip-path="url(#clip0_175_6201)">
<path d="M14.1171 12.0812L18.4883 7H17.4525L13.6569 11.4119L10.6255 7H7.12903L11.7132 13.6716L7.12903 19H8.16492L12.1731 14.3409L15.3746 19H18.871L14.1168 12.0812H14.1171ZM12.6983 13.7304L12.2338 13.066L8.53817 7.7798H10.1292L13.1117 12.046L13.5762 12.7103L17.453 18.2557H15.8619L12.6983 13.7306V13.7304Z" fill="url(#paint1_linear_175_6201)"/>
</g>
<defs>
<linearGradient id="paint0_linear_175_6201" x1="1" y1="1" x2="25" y2="25" gradientUnits="userSpaceOnUse">
<stop stop-color="#AF85E5"/>
<stop offset="1" stop-color="#614A7F"/>
</linearGradient>
<linearGradient id="paint1_linear_175_6201" x1="13" y1="7" x2="13" y2="19" gradientUnits="userSpaceOnUse">
<stop stop-color="#AC83E1"/>
<stop offset="1" stop-color="#543280"/>
</linearGradient>
<clipPath id="clip0_175_6201">
<rect width="12" height="12" fill="white" transform="translate(7 7)"/>
</clipPath>
</defs>
</svg>
