<svg width="32" height="32" viewBox="0 0 32 32" fill="none" xmlns="http://www.w3.org/2000/svg">
<path d="M2 12.1333C2 8.58633 2 6.81283 2.69029 5.45806C3.29749 4.26637 4.26637 3.29749 5.45806 2.69029C6.81283 2 8.58633 2 12.1333 2H19.8667C23.4137 2 25.1872 2 26.5419 2.69029C27.7336 3.29749 28.7025 4.26637 29.3097 5.45806C30 6.81283 30 8.58633 30 12.1333V19.8667C30 23.4137 30 25.1872 29.3097 26.5419C28.7025 27.7336 27.7336 28.7025 26.5419 29.3097C25.1872 30 23.4137 30 19.8667 30H12.1333C8.58633 30 6.81283 30 5.45806 29.3097C4.26637 28.7025 3.29749 27.7336 2.69029 26.5419C2 25.1872 2 23.4137 2 19.8667V12.1333Z" fill="#00005B"/>
<path d="M13.7893 19.5638H9.4504L8.56759 22.3819C8.54308 22.4864 8.44685 22.5604 8.34218 22.5553H6.14454C6.01922 22.5553 5.97539 22.4847 6.01306 22.3434L9.76969 11.2926C9.80729 11.1771 9.84483 11.0641 9.88243 10.9163C9.93156 10.6592 9.95672 10.398 9.95756 10.1361C9.9468 10.0587 10.0136 9.99012 10.089 10.0012H13.0756C13.1631 10.0012 13.2131 10.0333 13.2258 10.0975L17.4897 22.3626C17.5272 22.4912 17.4896 22.5554 17.377 22.5553H14.9351C14.8495 22.565 14.7677 22.5063 14.7473 22.4204L13.7893 19.5638ZM10.1266 17.1877H13.0944C12.6068 15.5215 12.0565 13.8773 11.6105 12.1981C11.1051 13.9399 10.6384 15.5553 10.1266 17.1877Z" fill="#9999FF"/>
<path d="M20.6609 18.4758C20.8336 19.9067 22.0352 20.5889 23.3657 20.5598C24.116 20.5451 24.9178 20.4286 25.6189 20.1449C25.6813 20.0938 25.7128 20.1257 25.7128 20.2413V22.0714C25.7187 22.1666 25.6789 22.2517 25.6001 22.3026C24.7287 22.6984 23.7285 22.8178 22.7834 22.8026C19.9656 22.8026 18.0305 20.8172 18.0313 17.9286C18.0239 15.1912 19.7998 12.8818 22.558 12.8818C24.8961 12.8212 26.5148 14.6931 26.5213 17.0232C26.5213 17.4475 26.4976 17.8734 26.4462 18.2946C26.4362 18.3814 26.3623 18.4488 26.2771 18.4488C24.4098 18.4488 22.5334 18.4758 20.6609 18.4758ZM20.6609 16.7208C21.7016 16.7208 22.7483 16.7576 23.7883 16.7112C23.9446 16.6952 24.0607 16.6655 24.0607 16.503C24.039 15.6392 23.31 14.9287 22.4641 14.9618C21.4421 14.8984 20.788 15.7612 20.6609 16.7208Z" fill="#9999FF"/>
</svg>
