<svg width="33" height="32" viewBox="0 0 33 32" fill="none" xmlns="http://www.w3.org/2000/svg">
<path d="M16.4998 29.9509C14.6495 29.9667 12.8146 29.6142 11.1018 28.9141C9.38903 28.214 7.8326 27.1802 6.52315 25.8729C5.2137 24.5656 4.17737 23.0108 3.4745 21.2992C2.77163 19.5875 2.41625 17.7532 2.42904 15.9029C2.44184 14.0525 2.82257 12.2233 3.54905 10.5215C4.27554 8.81974 5.33328 7.27948 6.66069 5.99039C7.9881 4.7013 9.55868 3.68913 11.281 3.01279C13.0033 2.33645 14.8429 2.00946 16.6928 2.05086C20.3687 2.11221 23.8718 3.62207 26.4406 6.25219C29.0093 8.88232 30.4361 12.4201 30.4107 16.0964C30.3852 19.7727 28.9097 23.2904 26.3048 25.8848C23.6999 28.4791 20.1762 29.9404 16.4998 29.9509ZM14.2788 16.8209C14.3788 16.9209 14.3788 16.9209 14.4718 16.9209C16.4998 18.5589 18.5268 20.0999 20.4578 21.7449C20.8523 22.0964 21.2717 22.419 21.7128 22.7099C21.8517 22.8063 22.013 22.8655 22.1813 22.8819C22.3496 22.8983 22.5193 22.8714 22.6742 22.8036C22.8291 22.7358 22.9641 22.6295 23.0663 22.4947C23.1684 22.36 23.2344 22.2013 23.2578 22.0339C23.2722 21.804 23.2382 21.5737 23.1578 21.3579L19.3998 12.3799C18.8208 11.0279 18.2408 9.57985 17.6618 8.22886C17.6202 8.09224 17.5457 7.96796 17.4447 7.86698C17.3437 7.766 17.2194 7.69143 17.0828 7.64986C16.5038 7.45686 16.1178 7.74986 15.8278 8.32586C13.8008 13.0569 11.8698 17.8839 9.84183 22.6149C9.84183 22.7149 9.74182 22.8079 9.74182 22.9049H11.6728C11.8658 22.9049 11.8658 22.8049 11.9628 22.7119C12.3488 21.8429 12.6388 20.8779 13.0248 20.0119C13.3841 18.926 13.8027 17.8608 14.2788 16.8209Z" fill="black"/>
<path d="M14.2792 16.8212C13.8932 17.8832 13.4102 18.9452 13.0242 20.0072C12.6382 20.8762 12.2522 21.8412 11.9622 22.7072C11.9244 22.7445 11.8787 22.7728 11.8285 22.7901C11.7784 22.8074 11.7249 22.8132 11.6722 22.8072H9.74219C9.74219 22.7072 9.84219 22.6142 9.84219 22.5172C11.8692 17.7862 13.8002 12.9592 15.8282 8.22816C16.1182 7.64916 16.5042 7.35916 17.0832 7.55216C17.2198 7.59374 17.3441 7.66831 17.4451 7.76929C17.546 7.87027 17.6206 7.99455 17.6622 8.13116C18.2412 9.48316 18.8212 10.9312 19.4002 12.2822L23.1652 21.2612C23.2411 21.5443 23.2748 21.8372 23.2652 22.1302C23.2417 22.2976 23.1758 22.4563 23.0736 22.591C22.9715 22.7258 22.8365 22.8321 22.6816 22.8999C22.5267 22.9677 22.357 22.9947 22.1887 22.9782C22.0204 22.9618 21.8591 22.9026 21.7202 22.8062C21.2842 22.5081 20.8652 22.1859 20.4652 21.8412C18.4382 20.2002 16.4102 18.6552 14.4792 17.0142C14.3762 16.8212 14.3762 16.8212 14.2792 16.8212ZM16.7892 10.5462C16.2102 12.0912 15.6302 13.5392 14.9552 14.9872C14.8552 15.0872 14.9552 15.1802 15.0552 15.2772C16.5002 16.4352 17.9482 17.5002 19.4002 18.6562C19.6902 18.8492 19.9792 19.1392 20.2692 19.3322C19.1072 16.4352 17.9482 13.5392 16.7902 10.5462H16.7892Z" fill="white"/>
<path d="M16.7901 10.5459C17.9491 13.5389 19.2041 16.4349 20.3621 19.3319C20.0721 19.1389 19.7831 18.8489 19.4931 18.6559C18.0451 17.4969 16.5931 16.4349 15.1491 15.2769C15.0491 15.1769 14.9561 15.1769 15.0491 14.9869C15.5351 13.5389 16.1141 12.0909 16.7901 10.5459Z" fill="black"/>
</svg>
