<svg width="29" height="32" viewBox="0 0 29 32" fill="none" xmlns="http://www.w3.org/2000/svg">
<g clip-path="url(#clip0_2432_66770)">
<path fill-rule="evenodd" clip-rule="evenodd" d="M14.8538 9.81838C13.7519 9.81936 12.6696 10.1054 11.7151 10.6478C10.7607 11.1902 9.96752 11.97 9.41504 12.9092L13.6948 15.3393C14.0472 15.5396 14.4469 15.6451 14.8538 15.6451C15.2606 15.6451 15.6603 15.5396 16.0127 15.3393L20.284 12.9092C19.7362 11.9678 18.9453 11.186 17.9915 10.6432C17.0378 10.1003 15.9552 9.81573 14.8538 9.81838Z" fill="#E1BEE7"/>
<path fill-rule="evenodd" clip-rule="evenodd" d="M13.6948 15.3392L9.41538 12.9092C8.86332 13.8488 8.5722 14.915 8.57129 16.0007C8.57038 17.0863 8.85973 18.1531 9.41021 19.0935C9.96069 20.034 10.7529 20.8151 11.7071 21.3582C12.6613 21.9013 13.7439 22.1872 14.8459 22.1872C15.9479 22.1872 17.0305 21.9013 17.9847 21.3582C18.939 20.8151 19.7312 20.034 20.2817 19.0935C20.8321 18.1531 21.1215 17.0863 21.1206 16.0007C21.1197 14.915 20.8285 13.8488 20.2765 12.9092L16.0052 15.3392C15.6543 15.5395 15.256 15.645 14.8505 15.645C14.445 15.645 14.0466 15.5395 13.6958 15.3392H13.6948Z" fill="#FAFAFA"/>
<path fill-rule="evenodd" clip-rule="evenodd" d="M28.1229 23.5516L20.2922 19.0908C19.7419 20.0319 18.9492 20.8132 17.9943 21.3559C17.0393 21.8986 15.956 22.1834 14.8535 22.1817V31.9921C15.2285 31.9909 15.5967 31.8925 15.9208 31.7066L28.1317 24.7586C28.1339 24.7586 28.1359 24.7578 28.1375 24.7562C28.139 24.7547 28.1399 24.7527 28.1399 24.7506C28.2465 24.6889 28.3347 24.6005 28.3954 24.4943C28.4561 24.3882 28.4872 24.2681 28.4854 24.1462C28.4837 24.0244 28.4493 23.9052 28.3856 23.8008C28.3219 23.6963 28.2313 23.6104 28.1229 23.5516Z" fill="#7B1FA2"/>
<path fill-rule="evenodd" clip-rule="evenodd" d="M14.853 22.1817C13.7508 22.1832 12.6676 21.8983 11.7129 21.3556C10.7582 20.8129 9.96577 20.0317 9.41552 19.0908L0.790039 24C0.976626 24.3184 1.24501 24.5828 1.56821 24.7666L13.7791 31.7147C14.1032 31.9005 14.4713 31.999 14.8464 32.0001V22.1817H14.853Z" fill="#4A148C"/>
<path fill-rule="evenodd" clip-rule="evenodd" d="M14.8539 9.81819V0.0078125C14.4789 0.00893761 14.1107 0.107385 13.7866 0.293242L1.57602 7.24128C1.25282 7.4251 0.984438 7.68949 0.797852 8.00789L9.42333 12.9171C9.97093 11.9749 10.7616 11.192 11.7153 10.6477C12.669 10.1035 13.7518 9.81735 14.8539 9.81819Z" fill="#7B1FA2"/>
<path fill-rule="evenodd" clip-rule="evenodd" d="M28.1395 7.24151C28.1374 7.24151 28.1353 7.24066 28.1338 7.23915C28.1322 7.23765 28.1314 7.2356 28.1314 7.23347L15.9208 0.28543C15.5967 0.0995726 15.2285 0.00112511 14.8535 0V9.81038C15.956 9.80863 17.0393 10.0935 17.9943 10.6362C18.9492 11.1789 19.7419 11.9602 20.2922 12.9012L28.1232 8.44817C28.2315 8.38844 28.322 8.30166 28.3855 8.19657C28.449 8.09148 28.4833 7.97177 28.485 7.84948C28.4866 7.72719 28.4556 7.60662 28.3949 7.4999C28.3343 7.39318 28.2462 7.30406 28.1395 7.24151Z" fill="#4A148C"/>
<path fill-rule="evenodd" clip-rule="evenodd" d="M8.57929 16.0001C8.57786 14.9154 8.86615 13.8494 9.41522 12.9092L0.789743 8C0.602745 8.32 0.502935 8.6822 0.500008 9.05142V22.9391C0.498941 23.3089 0.599027 23.6721 0.789743 23.9906L9.41491 19.0826C8.86501 18.1458 8.5767 17.0822 8.57929 16.0001Z" fill="#BA68C8"/>
<path fill-rule="evenodd" clip-rule="evenodd" d="M20.2927 19.0908C19.7433 20.0309 18.952 20.8117 17.9986 21.3543C17.0451 21.897 15.9633 22.1824 14.8622 22.1817C13.9631 22.1797 13.0746 21.9906 12.2549 21.6266L22.959 27.7187L28.141 24.7747C28.2504 24.713 28.3413 24.624 28.4045 24.5165C28.4677 24.4091 28.501 24.2872 28.501 24.163C28.501 24.0388 28.4677 23.9169 28.4045 23.8095C28.3413 23.702 28.2504 23.613 28.141 23.5513L20.2927 19.0908Z" fill="url(#paint0_linear_2432_66770)"/>
</g>
<defs>
<linearGradient id="paint0_linear_2432_66770" x1="25.3005" y1="27.5979" x2="22.0799" y2="16.3648" gradientUnits="userSpaceOnUse">
<stop stop-color="#1A237E" stop-opacity="0.012"/>
<stop offset="1" stop-color="#1A237E" stop-opacity="0.302"/>
</linearGradient>
<clipPath id="clip0_2432_66770">
<rect width="28" height="32" fill="white" transform="translate(0.5)"/>
</clipPath>
</defs>
</svg>
