<svg width="33" height="32" viewBox="0 0 33 32" fill="none" xmlns="http://www.w3.org/2000/svg">
<path d="M5.06348 22.1057L5.28666 22.3591L16.56 25.5547L16.6111 23.5738L8.71568 21.5925L8.32932 21.4531L5.06348 22.1057Z" fill="#B7CA9D"/>
<path d="M27.9363 22.1056L16.4229 25.9487L16.3887 23.5737L24.284 21.5924L24.6281 21.2051L27.9363 22.1056Z" fill="#B7CA9D"/>
<path d="M16.3887 8.52977L24.284 10.3699L27.7563 10.2052L27.9363 9.85715L16.9357 5.89746L16.3887 8.52977Z" fill="#3C4929"/>
<path d="M8.71576 21.5922L5.06356 22.1054L4.96191 21.7263V10.2562L5.06356 9.85693L8.36366 10.1024L8.71576 10.3701V21.5922Z" fill="#759C3E"/>
<path d="M16.6111 8.52974L8.71568 10.3698L5.06348 9.85713L5.20112 9.64102L16.56 6.4082L16.6111 8.52974Z" fill="#3C4929"/>
<path d="M16.4845 0L3.37207 6.61856L3.37833 25.3481L16.4845 31.9632L16.6798 31.6667V0.384615L16.4845 0ZM12.6502 24.3826L5.06345 22.1056V9.85713L12.6502 7.58103V24.3826Z" fill="#4B612C"/>
<path d="M24.2842 21.5922L27.9365 22.1054L28.1411 21.7434V10.2049L27.9365 9.85693L24.2842 10.3701V21.5922Z" fill="#4B612C"/>
<path d="M16.4844 31.9632L29.6221 25.3485L29.6284 6.61908L16.4844 0V31.9632ZM20.3497 7.58103L27.9366 9.85713V22.1056L20.3497 24.3826V7.58103Z" fill="#759C3E"/>
</svg>
