<svg width="35" height="34" viewBox="0 0 35 34" fill="none" xmlns="http://www.w3.org/2000/svg">
<path fill-rule="evenodd" clip-rule="evenodd" d="M12.015 19.9735C12.8537 19.9735 14.5225 19.9268 16.8288 18.9776C19.5162 17.8712 24.8642 15.861 28.7217 13.7983C31.4205 12.3561 32.6034 10.4465 32.6034 7.87663C32.6034 7.02817 32.4363 6.18802 32.1115 5.40416C31.7868 4.62031 31.3108 3.9081 30.7108 3.30822C30.1108 2.70833 29.3985 2.23252 28.6146 1.90796C27.8306 1.5834 26.9905 1.41644 26.142 1.41663H11.1947C8.734 1.417 6.37417 2.39479 4.6343 4.13493C2.89442 5.87507 1.91699 8.23505 1.91699 10.6958C1.91699 15.8199 5.80574 19.9735 12.015 19.9735Z" fill="#39594D"/>
<path fill-rule="evenodd" clip-rule="evenodd" d="M14.542 26.3641C14.5419 25.1357 14.9059 23.9348 15.5879 22.9131C16.27 21.8914 17.2395 21.0948 18.3741 20.6238L23.0817 18.6688C27.8431 16.694 33.0833 20.1931 33.0833 25.3484C33.0833 26.298 32.8962 27.2384 32.5328 28.1158C32.1693 28.9931 31.6366 29.7903 30.965 30.4617C30.2934 31.1332 29.4962 31.6658 28.6187 32.0291C27.7413 32.3923 26.8009 32.5792 25.8512 32.579L20.7555 32.5776C19.9394 32.5776 19.1313 32.4169 18.3774 32.1045C17.6234 31.7922 16.9384 31.3344 16.3614 30.7572C15.7844 30.1801 15.3267 29.495 15.0146 28.7409C14.7024 27.9869 14.5418 27.1788 14.542 26.3627V26.3641Z" fill="#D18EE2"/>
<path d="M7.26633 21.1962C6.56379 21.196 5.8681 21.3342 5.219 21.603C4.56991 21.8717 3.98013 22.2658 3.48336 22.7625C2.98659 23.2593 2.59257 23.8491 2.32381 24.4982C2.05504 25.1473 1.91681 25.843 1.91699 26.5455V27.2382C1.93983 28.6417 2.51339 29.98 3.51397 30.9644C4.51455 31.9488 5.86196 32.5005 7.26562 32.5005C8.66927 32.5005 10.0167 31.9488 11.0173 30.9644C12.0178 29.98 12.5914 28.6417 12.6142 27.2382V26.5441C12.6142 25.8418 12.4759 25.1464 12.2072 24.4975C11.9384 23.8487 11.5445 23.2591 11.0479 22.7625C10.5513 22.2659 9.96172 21.872 9.31288 21.6033C8.66405 21.3345 7.96862 21.1962 7.26633 21.1962Z" fill="#FF7759"/>
</svg>
