<svg width="32" height="32" viewBox="0 0 32 32" fill="none" xmlns="http://www.w3.org/2000/svg">
<g clip-path="url(#clip0_2432_65603)">
<rect width="32" height="32" rx="16" fill="white"/>
<path d="M15.9973 0C7.15467 0 3.56063e-06 7.156 3.56063e-06 16C-0.00139887 18.1015 0.411496 20.1828 1.21507 22.1246C2.01865 24.0664 3.19715 25.8308 4.68317 27.3168C6.16918 28.8029 7.93357 29.9814 9.87541 30.7849C11.8173 31.5885 13.8985 32.0014 16 32C24.844 32 32 24.844 32 16C31.9987 7.156 24.784 0 15.9973 0ZM8.49334 19.4333C9.016 20.1307 9.71467 20.4227 10.7027 20.4227C11.1693 20.4227 11.6347 20.364 12.0413 20.1893C12.4493 20.016 12.9147 19.7813 13.4947 19.4333L15.1253 21.76C13.788 22.8667 12.2747 23.3893 10.5293 23.3893C9.132 23.3893 7.96934 23.0987 6.92267 22.5173C5.90657 21.9179 5.09516 21.0256 4.59467 19.9573C4.072 18.8507 3.78 17.5707 3.78 16.0573C3.78 14.604 4.072 13.2653 4.59334 12.16C5.09111 11.0588 5.90159 10.1282 6.924 9.484C7.912 8.844 9.13334 8.55333 10.472 8.55333C11.404 8.55333 12.276 8.66933 12.9747 8.96C13.7585 9.26341 14.4859 9.69607 15.1267 10.24L13.4973 12.4507C13.0837 12.1453 12.6347 11.891 12.16 11.6933C11.7533 11.52 11.2293 11.4613 10.7627 11.4613C8.78534 11.4613 7.796 12.9733 7.796 16.056C7.73867 17.6293 8.02934 18.7333 8.49467 19.432L8.49334 19.4333ZM24.4933 23.04C23.912 24.844 23.0387 26.1827 21.816 27.1707C20.5947 28.1613 18.9653 28.684 16.9293 28.8587L16.5227 26.1253C17.86 25.9493 18.8493 25.6587 19.4893 25.192C19.7213 25.0187 20.188 24.4947 20.188 24.4947L15.3587 9.01867H19.372L22.1653 20.596L25.1333 9.01867H29.0307L24.4933 23.04Z" fill="black"/>
</g>
<defs>
<clipPath id="clip0_2432_65603">
<rect width="32" height="32" rx="16" fill="white"/>
</clipPath>
</defs>
</svg>
