<svg width="33" height="32" viewBox="0 0 33 32" fill="none" xmlns="http://www.w3.org/2000/svg">
<g clip-path="url(#clip0_2432_65297)">
<path d="M25.1844 9.072L25.4844 8.618L26.0084 8.936L26.2404 9.102C26.8004 9.534 27.9784 10.638 28.2324 12.47C28.6784 12.39 29.1284 12.35 29.5784 12.35C30.6464 12.35 31.3644 12.598 31.7724 12.804L31.9824 12.918L32.1184 13.008L32.5004 13.32L32.3684 13.72C32.1632 14.2684 31.8427 14.7663 31.4284 15.18C30.8484 15.778 29.8284 16.484 28.2104 16.576L27.8544 16.586H27.5584C26.8184 18.54 25.8244 20.742 24.1544 22.718C23.1635 23.8922 21.9882 24.8973 20.6744 25.694C19.0994 26.6284 17.3747 27.2834 15.5764 27.63C14.2884 27.88 12.9804 28.004 11.6704 28C8.77041 28 6.21041 27.424 4.63641 26.416C3.23041 25.518 2.15041 24.052 1.42441 22.062C0.789063 20.2436 0.477017 18.328 0.50241 16.402C0.49912 16.1551 0.584492 15.9151 0.743025 15.7258C0.901558 15.5364 1.12274 15.4102 1.36641 15.37L1.50241 15.36H22.5824L22.7664 15.346L23.0644 15.314C23.5764 15.246 24.3564 15.094 24.9044 14.774C24.2484 13.688 24.0624 12.418 24.3684 11.066C24.4966 10.502 24.6983 9.95738 24.9684 9.446L25.1844 9.072ZM6.28041 11.568L6.36041 11.582C6.39695 11.5957 6.42985 11.6176 6.45656 11.646C6.48326 11.6745 6.50306 11.7087 6.51441 11.746L6.52641 11.826V14.456L6.51441 14.538C6.50286 14.5755 6.48276 14.6099 6.45569 14.6383C6.42862 14.6668 6.39532 14.6886 6.35841 14.702L6.28041 14.714H3.45641C3.40378 14.7133 3.35273 14.6959 3.31066 14.6642C3.2686 14.6326 3.23769 14.5884 3.22241 14.538L3.20841 14.458V11.824L3.22241 11.744C3.23369 11.7061 3.25367 11.6714 3.28076 11.6425C3.30784 11.6137 3.34128 11.5916 3.37841 11.578L3.45641 11.566L6.28041 11.568ZM10.1744 11.568L10.2524 11.582C10.2893 11.5954 10.3226 11.6172 10.3497 11.6457C10.3768 11.6741 10.3969 11.7085 10.4084 11.746L10.4204 11.826V14.456L10.4064 14.538C10.3949 14.5755 10.3748 14.6099 10.3477 14.6383C10.3206 14.6668 10.2873 14.6886 10.2504 14.702L10.1724 14.714H7.34841C7.29586 14.713 7.24496 14.6954 7.20295 14.6638C7.16094 14.6322 7.12996 14.5882 7.11441 14.538L7.10041 14.46V11.826C7.09998 11.7725 7.11608 11.7201 7.14651 11.6761C7.17693 11.6321 7.2202 11.5985 7.27041 11.58L7.34841 11.566L10.1744 11.568ZM14.1264 11.568L14.2044 11.582C14.241 11.5957 14.2739 11.6176 14.3006 11.646C14.3273 11.6745 14.3471 11.7087 14.3584 11.746L14.3724 11.826V14.456L14.3584 14.538C14.3469 14.5755 14.3268 14.6099 14.2997 14.6383C14.2726 14.6668 14.2393 14.6886 14.2024 14.702L14.1244 14.714H11.3004C11.2478 14.7133 11.1967 14.6959 11.1547 14.6642C11.1126 14.6326 11.0817 14.5884 11.0664 14.538L11.0544 14.458V11.824L11.0664 11.744C11.0777 11.7061 11.0977 11.6714 11.1248 11.6425C11.1518 11.6137 11.1853 11.5916 11.2224 11.578L11.3004 11.566L14.1264 11.568ZM18.0304 11.568L18.1084 11.582C18.1453 11.5954 18.1786 11.6172 18.2057 11.6457C18.2328 11.6741 18.2529 11.7085 18.2644 11.746L18.2784 11.826V14.456C18.2788 14.5095 18.2627 14.5619 18.2323 14.6059C18.2019 14.6499 18.1586 14.6835 18.1084 14.702L18.0284 14.714H15.2064C15.1538 14.7133 15.1027 14.6959 15.0607 14.6642C15.0186 14.6326 14.9877 14.5884 14.9724 14.538L14.9604 14.458V11.824L14.9724 11.744C14.9837 11.7061 15.0037 11.6714 15.0308 11.6425C15.0578 11.6137 15.0913 11.5916 15.1284 11.578L15.2084 11.566H18.0324L18.0304 11.568ZM21.9704 11.568L22.0484 11.582C22.0853 11.5954 22.1186 11.6172 22.1457 11.6457C22.1728 11.6741 22.1929 11.7085 22.2044 11.746L22.2164 11.826V14.456C22.2168 14.5095 22.2007 14.5619 22.1703 14.6059C22.1399 14.6499 22.0966 14.6835 22.0464 14.702L21.9684 14.714H19.1444C19.0918 14.7133 19.0407 14.6959 18.9987 14.6642C18.9566 14.6326 18.9257 14.5884 18.9104 14.538L18.8984 14.458V11.824L18.9104 11.744C18.9217 11.7061 18.9417 11.6714 18.9688 11.6425C18.9958 11.6137 19.0293 11.5916 19.0664 11.578L19.1464 11.566H21.9684L21.9704 11.568ZM10.1704 7.784L10.2504 7.798C10.2867 7.81147 10.3195 7.83307 10.3462 7.86115C10.3729 7.88923 10.3928 7.92304 10.4044 7.96L10.4184 8.042V10.672C10.4188 10.7255 10.4027 10.7779 10.3723 10.8219C10.3419 10.8659 10.2986 10.8995 10.2484 10.918L10.1704 10.932H7.34841C7.29535 10.9307 7.24407 10.9126 7.202 10.8802C7.15993 10.8479 7.12926 10.803 7.11441 10.752L7.10041 10.672V8.042C7.1004 7.98883 7.11668 7.93692 7.14708 7.8933C7.17748 7.84967 7.22052 7.81641 7.27041 7.798L7.34841 7.784H10.1704ZM14.1224 7.784L14.2024 7.798C14.2387 7.81147 14.2715 7.83307 14.2982 7.86115C14.3249 7.88923 14.3448 7.92304 14.3564 7.96L14.3704 8.042V10.672C14.3708 10.7255 14.3547 10.7779 14.3243 10.8219C14.2939 10.8659 14.2506 10.8995 14.2004 10.918L14.1224 10.932H11.3004C11.2473 10.9307 11.1961 10.9126 11.154 10.8802C11.1119 10.8479 11.0813 10.803 11.0664 10.752L11.0544 10.672V8.042L11.0664 7.962C11.078 7.92446 11.0981 7.89012 11.1251 7.86166C11.1522 7.83321 11.1855 7.81141 11.2224 7.798L11.3004 7.784H14.1224ZM18.0284 7.784C18.1364 7.784 18.2284 7.858 18.2624 7.96L18.2764 8.042V10.672C18.2768 10.7255 18.2607 10.7779 18.2303 10.8219C18.1999 10.8659 18.1566 10.8995 18.1064 10.918L18.0264 10.932H15.2064C15.1533 10.9307 15.1021 10.9126 15.06 10.8802C15.0179 10.8479 14.9873 10.803 14.9724 10.752L14.9604 10.672V8.042L14.9724 7.962C14.984 7.92446 15.0041 7.89012 15.0311 7.86166C15.0582 7.83321 15.0915 7.81141 15.1284 7.798L15.2084 7.784H18.0324H18.0284ZM18.0284 4C18.1364 4 18.2284 4.074 18.2624 4.176L18.2764 4.256V6.888C18.2768 6.94151 18.2607 6.99386 18.2303 7.03788C18.1999 7.08191 18.1566 7.11548 18.1064 7.134L18.0264 7.146H15.2064C15.1538 7.14529 15.1027 7.12786 15.0607 7.09622C15.0186 7.06458 14.9877 7.02037 14.9724 6.97L14.9604 6.89V4.256L14.9724 4.176C14.984 4.13846 15.0041 4.10412 15.0311 4.07566C15.0582 4.04721 15.0915 4.02542 15.1284 4.012L15.2064 4H18.0304H18.0284Z" fill="#2396ED"/>
</g>
<defs>
<clipPath id="clip0_2432_65297">
<rect width="32" height="32" fill="white" transform="translate(0.5)"/>
</clipPath>
</defs>
</svg>
