<svg width="33" height="32" viewBox="0 0 33 32" fill="none" xmlns="http://www.w3.org/2000/svg">
<path fill-rule="evenodd" clip-rule="evenodd" d="M16.5 16C16.5 13.7909 18.2909 12 20.5 12C22.7091 12 24.5 13.7909 24.5 16C24.5 18.2091 22.7091 20 20.5 20C18.2909 20 16.5 18.2091 16.5 16Z" fill="#1ABCFE"/>
<path fill-rule="evenodd" clip-rule="evenodd" d="M8.5 24C8.5 21.7909 10.2909 20 12.5 20H16.5V24C16.5 26.2091 14.7091 28 12.5 28C10.2909 28 8.5 26.2091 8.5 24Z" fill="#0ACF83"/>
<path fill-rule="evenodd" clip-rule="evenodd" d="M16.5 4V12H20.5C22.7091 12 24.5 10.2091 24.5 8C24.5 5.79086 22.7091 4 20.5 4H16.5Z" fill="#FF7262"/>
<path fill-rule="evenodd" clip-rule="evenodd" d="M8.5 8C8.5 10.2091 10.2909 12 12.5 12H16.5V4H12.5C10.2909 4 8.5 5.79086 8.5 8Z" fill="#F24E1E"/>
<path fill-rule="evenodd" clip-rule="evenodd" d="M8.5 16C8.5 18.2091 10.2909 20 12.5 20H16.5V12H12.5C10.2909 12 8.5 13.7909 8.5 16Z" fill="#A259FF"/>
</svg>
