<svg width="32" height="32" viewBox="0 0 32 32" fill="none" xmlns="http://www.w3.org/2000/svg">
<g clip-path="url(#clip0_2432_65398)">
<path d="M27.2 0H4.8C2.14903 0 0 2.14903 0 4.8V27.2C0 29.851 2.14903 32 4.8 32H27.2C29.851 32 32 29.851 32 27.2V4.8C32 2.14903 29.851 0 27.2 0Z" fill="#F7DF1E"/>
<path d="M20.25 23.125C20.875 24.1875 21.75 24.9375 23.1875 24.9375C24.4375 24.9375 25.25 24.3125 25.25 23.4375C25.25 22.4375 24.4375 22.0625 23.0625 21.4375L22.3125 21.125C20.125 20.1875 18.6875 19.0625 18.6875 16.625C18.6875 14.375 20.375 12.625 23.0625 12.625C25 12.625 26.375 13.3125 27.3125 15.0625L25 16.5625C24.5 15.625 23.9375 15.25 23.0625 15.25C22.1875 15.25 21.625 15.8125 21.625 16.5625C21.625 17.4375 22.1875 17.8125 23.5 18.375L24.25 18.6875C26.8125 19.8125 28.25 20.875 28.25 23.4375C28.25 26.125 26.125 27.625 23.25 27.625C20.4375 27.625 18.625 26.3125 17.75 24.5625L20.25 23.125ZM9.625 23.375C10.125 24.1875 10.5 24.9375 11.5625 24.9375C12.5625 24.9375 13.1875 24.5625 13.1875 23.0625V12.6875H16.1875V22.9375C16.1875 26.0625 14.375 27.4375 11.6875 27.4375C9.25 27.4375 7.875 26.1875 7.1875 24.6875L9.625 23.375Z" fill="black"/>
</g>
<defs>
<clipPath id="clip0_2432_65398">
<rect width="32" height="32" fill="white"/>
</clipPath>
</defs>
</svg>
