<svg width="33" height="32" viewBox="0 0 33 32" fill="none" xmlns="http://www.w3.org/2000/svg">
<path d="M25.9188 12.9905C25.9188 18.3205 21.6928 22.6455 16.477 22.6455C11.2611 22.6455 7.03516 18.3205 7.03516 12.9905C7.03516 7.66041 11.2611 3.33545 16.477 3.33545C21.6928 3.33545 25.9188 7.66041 25.9188 12.9905Z" fill="#D33833"/>
<path d="M7.42365 15.3811C7.42365 15.3811 6.73835 5.31492 16.0203 5.02558L15.3731 3.94434L10.34 5.63473L8.90083 7.28705L7.64446 9.69319L6.92871 12.4953L7.14191 14.3684" fill="#EF3D3A"/>
<path d="M10.0127 6.40414C8.36034 8.10215 7.3324 10.4398 7.3324 13.0286C7.3324 15.6175 8.36034 17.9551 10.0127 19.6532C11.6726 21.3512 13.9493 22.3943 16.4773 22.3943C19.0052 22.3943 21.2819 21.3512 22.9419 19.6532C24.5942 17.9551 25.6221 15.6175 25.6221 13.0286C25.6221 10.4398 24.5942 8.10215 22.9419 6.40414C21.2819 4.71375 19.0052 3.66297 16.4773 3.66297C13.9569 3.66297 11.6726 4.70614 10.0127 6.40414ZM9.59387 20.0567C7.83495 18.2597 6.74609 15.7698 6.74609 13.0286C6.74609 10.2875 7.83495 7.79757 9.59387 5.99296C11.3528 4.19597 13.7894 3.07666 16.4773 3.07666C19.1651 3.07666 21.6017 4.19597 23.3607 5.99296C25.1196 7.78996 26.2084 10.2799 26.2084 13.0286C26.2084 15.7698 25.1196 18.2597 23.3607 20.0567C21.6017 21.8613 19.1651 22.973 16.4773 22.973C13.7894 22.973 11.3528 21.8613 9.59387 20.0567Z" fill="#231F20"/>
<path d="M20.4519 13.0435L19.0128 13.2567L17.0711 13.4775L15.8148 13.5079L14.5888 13.4699L13.6523 13.1805L12.8223 12.282L12.1751 10.447L12.0304 10.051L11.17 9.76167L10.6674 8.93171L10.3096 7.74387L10.7055 6.7007L11.6421 6.37328L12.3959 6.73115L12.7538 7.52305L13.1878 7.45452L13.3325 7.27177L13.1878 6.44181L13.1497 5.39864L13.3629 3.95952L13.3553 3.13717L14.0102 2.08639L15.1599 1.25642L17.1701 0.395996L19.4011 0.723414L21.3428 2.12446L22.2413 3.56358L22.82 4.60674L22.9647 7.19563L22.5306 9.42664L21.7387 11.4064L20.9925 12.4648" fill="#F0D6B7"/>
<path d="M19.2339 19.2648L14.0942 19.478V20.3384L14.5283 23.3613L14.3151 23.6126L10.7211 22.3867L10.4698 21.9527L10.1119 17.8866L9.26673 15.45L9.08398 14.8713L11.9622 12.8916L12.8607 12.5337L13.6526 13.5083L14.3379 14.1175L15.1298 14.3688L15.4877 14.4754L15.9217 16.3485L16.2491 16.7444L17.0791 16.4551L16.5004 17.5744L19.6223 19.0516L19.2339 19.2648Z" fill="#335061"/>
<path d="M10.7052 6.71605L11.6418 6.38863L12.3956 6.74651L12.7535 7.5384L13.1875 7.46988L13.2941 7.03586L13.0809 6.20589L13.2941 4.22615L13.1114 3.14491L13.7586 2.39109L15.1596 1.27939L14.7637 0.73877L12.7839 1.71341L11.954 2.36063L11.4895 3.36573L10.7737 4.34037L10.5605 5.49014L10.7052 6.71605Z" fill="#6D6B6D"/>
<path d="M12.1825 3.3352C12.1825 3.3352 12.7231 2.00269 14.878 1.35547C17.0329 0.708245 14.9846 0.89099 14.9846 0.89099L12.647 1.78949L11.7485 2.68798L11.3525 3.40373L12.1825 3.3352Z" fill="#DCD9D8"/>
<path d="M11.1012 6.4646C11.1012 6.4646 10.3473 3.94424 13.2256 3.58636L13.119 3.15234L11.1392 3.61682L10.5605 5.48996L10.7052 6.71587L11.1012 6.4646Z" fill="#DCD9D8"/>
<path d="M12.251 9.80745L12.7231 9.35059C12.7231 9.35059 12.9363 9.37343 12.9743 9.6247C13.0124 9.87598 13.119 12.1451 14.6647 13.3634C14.8094 13.4776 13.515 13.1806 13.515 13.1806L12.3652 11.3836" fill="#F7E4CD"/>
<path d="M18.8687 9.12249C18.8687 9.12249 18.9524 8.03363 19.2494 8.11739C19.5463 8.20115 19.5463 8.49811 19.5463 8.49811C19.5463 8.49811 18.8306 8.95497 18.8687 9.12249Z" fill="#F7E4CD"/>
<path d="M21.8532 5.13232C21.8532 5.13232 21.2593 5.25415 21.206 5.77955C21.1527 6.30494 21.8532 5.88615 21.9598 5.84808" fill="#F7E4CD"/>
<path d="M17.5048 5.17041C17.5048 5.17041 16.7129 5.27701 16.7129 5.77956C16.7129 6.28211 17.6114 6.24404 17.8627 6.03083" fill="#F7E4CD"/>
<path d="M12.6169 7.50801C12.6169 7.50801 11.2539 6.67805 11.1093 7.46994C10.9646 8.26184 10.6448 8.83291 11.3225 9.66288L10.858 9.51821L10.424 8.40651L10.2793 7.32527L11.1093 6.46484L12.0458 6.53337L12.5865 6.96739L12.6169 7.50801Z" fill="#F7E4CD"/>
<path d="M13.2643 5.23879C13.2643 5.23879 13.8735 2.07121 16.9649 1.46206C19.5081 0.959516 20.8482 1.56867 21.3508 2.14736C21.3508 2.14736 19.0817 -0.54813 16.9268 0.274222C14.772 1.10419 13.1882 2.61184 13.2263 3.57886C13.2872 5.23879 13.2643 5.23879 13.2643 5.23879Z" fill="#F7E4CD"/>
<path d="M21.6017 2.50559C21.6017 2.50559 20.5586 2.46751 20.5205 3.40408C20.5205 3.40408 20.5205 3.54876 20.589 3.69343C20.589 3.69343 21.419 2.75686 21.9216 3.25941" fill="#F7E4CD"/>
<path d="M17.0403 3.79201C17.0403 3.79201 16.8576 2.36051 15.6393 3.19047C14.8474 3.73109 14.9235 4.48492 15.0606 4.62959C15.2053 4.77426 15.1672 5.06361 15.2738 4.86564C15.3804 4.66766 15.3499 4.02044 15.7459 3.83769C16.1342 3.65495 16.7891 3.45698 17.0403 3.79201Z" fill="#F7E4CD"/>
<path d="M13.6604 13.508L10.2796 15.0157C10.2796 15.0157 11.6807 20.5894 10.9649 22.3179L10.4624 22.1351L10.4243 20.0107L9.48774 15.9903L9.0918 14.8786L12.6173 12.5029L13.6604 13.508Z" fill="#49728B"/>
<path d="M14.0027 16.5918L14.4824 17.1781V19.333H13.9113C13.9113 19.333 13.8428 17.8253 13.8428 17.6426C13.8428 17.4598 13.9113 16.8126 13.9113 16.8126" fill="#49728B"/>
<path d="M14.0174 19.6606L12.3955 19.7292L12.86 20.0566L14.0098 20.2393" fill="#49728B"/>
<path d="M19.5537 19.3027L20.8862 19.2646L21.2136 22.5693L19.8507 22.752L19.5537 19.3027Z" fill="#335061"/>
<path d="M19.9111 19.3027L21.9213 19.1961C21.9213 19.1961 22.7513 17.1097 22.7513 17.0031C22.7513 16.8965 23.467 13.9802 23.467 13.9802L21.8452 12.2898L21.5178 12.0005L20.6573 12.8609V16.2036L19.9111 19.3027Z" fill="#335061"/>
<path d="M20.8101 19.0513L19.5537 19.3025L19.7365 20.3076C20.2009 20.5208 20.9928 19.9498 20.9928 19.9498" fill="#49728B"/>
<path d="M20.8477 12.7545L23.368 14.6276L23.4365 13.7672L21.533 12.0083L20.8477 12.7545Z" fill="#49728B"/>
<path d="M15.2662 26.3839L14.52 23.361L14.1469 21.13L14.0859 19.4777L17.4591 19.2949H19.5531L19.3627 23.0717L19.6901 25.988L19.652 26.5286L16.9185 26.7418L15.2662 26.3839Z" fill="white"/>
<path d="M19.0886 19.2645C19.0886 19.2645 18.9059 23.0031 19.4465 25.6682C19.4465 25.6682 18.3652 26.3535 16.7891 26.5286L19.812 26.422L20.1698 26.2088L19.7358 20.3153L19.6216 19.0513" fill="#DCD9D8"/>
<path d="M21.2665 22.2876L22.6675 21.8916L25.3249 21.747L25.7209 20.5211L25.0051 18.3966L24.1752 18.29L23.0254 18.6479L21.9289 19.1885L21.3426 19.0819L20.8857 19.2647" fill="white"/>
<path d="M21.2441 21.5643C21.2441 21.5643 22.1807 21.1303 22.3254 21.1683L21.9294 19.1886L22.3939 19.0059C22.3939 19.0059 22.7213 20.879 22.7213 21.0922C22.7213 21.0922 24.7315 21.1988 24.9143 21.1988C24.9143 21.1988 25.3483 20.3688 25.2417 19.5084L25.6376 20.6582L25.6757 21.3054L25.097 22.1658L24.4498 22.3105L23.3686 22.2724L23.0107 21.8079L21.7543 21.9907L21.3584 22.1354" fill="#DCD9D8"/>
<path d="M19.8279 19.0131L19.036 17.0029L18.2061 15.815C18.2061 15.815 18.3888 15.3125 18.6401 15.3125H19.47L20.2619 15.6018L20.1934 16.9344L19.8279 19.0131Z" fill="white"/>
<path d="M19.9874 18.3281C19.9874 18.3281 18.9823 16.3864 18.9823 16.097C18.9823 16.097 19.1651 15.663 19.4163 15.7696C19.6676 15.8762 20.2082 16.1656 20.2082 16.1656V15.4803L18.9823 15.229L18.1523 15.3356L19.5534 18.6555L19.8427 18.6935" fill="#DCD9D8"/>
<path d="M15.5864 13.5844L14.5889 13.4778L13.6523 13.1885V13.5159L14.1092 14.0184L15.5483 14.6657" fill="white"/>
<path d="M13.9798 13.6909C13.9798 13.6909 15.0915 14.1554 15.457 14.0488L15.4951 14.4828L14.49 14.2696L13.8809 13.8356L13.9798 13.6909Z" fill="#DCD9D8"/>
<path d="M21.2669 15.4343C20.6578 15.4191 20.1019 15.343 19.6222 15.2059C19.6527 15.0079 19.5918 14.8176 19.6451 14.6729C19.7821 14.5739 20.0029 14.5739 20.2085 14.5511C20.0334 14.4673 19.7821 14.4292 19.5841 14.4825C19.5765 14.3455 19.5156 14.2617 19.4775 14.1551C19.8202 14.0333 20.6273 13.2338 21.0842 13.4927C21.305 13.6221 21.3964 14.3379 21.4116 14.6958C21.4268 14.9851 21.3811 15.2744 21.2669 15.4343Z" fill="#D33833"/>
<path d="M21.2669 15.4343C20.6578 15.4191 20.1019 15.343 19.6222 15.2059C19.6527 15.0079 19.5918 14.8176 19.6451 14.6729C19.7821 14.5739 20.0029 14.5739 20.2085 14.5511C20.0334 14.4673 19.7821 14.4292 19.5841 14.4825C19.5765 14.3455 19.5156 14.2617 19.4775 14.1551C19.8202 14.0333 20.6273 13.2338 21.0842 13.4927C21.305 13.6221 21.3964 14.3379 21.4116 14.6958C21.4268 14.9851 21.3811 15.2744 21.2669 15.4343Z" fill="black" stroke="#D33833" stroke-width="3.83693"/>
<path d="M18.3504 14.437C18.3504 14.4827 18.3504 14.5284 18.3428 14.574C18.1525 14.6959 17.8479 14.6959 17.6347 14.8025C17.9393 14.8177 18.1829 14.8938 18.3961 14.9928C18.3885 15.107 18.3885 15.2289 18.3809 15.3431C18.0306 15.5791 17.7108 15.937 17.2997 16.1654C17.1017 16.272 16.424 16.5462 16.2184 16.4929C16.1042 16.4624 16.089 16.3177 16.0433 16.1807C15.9443 15.8913 15.7159 15.4192 15.693 14.9776C15.6702 14.4218 15.6093 13.4852 16.2108 13.5994C16.6981 13.6908 17.2616 13.9116 17.6347 14.1172C17.8707 14.2542 18.0002 14.4065 18.3504 14.437Z" fill="#D33833"/>
<path d="M18.3504 14.437C18.3504 14.4827 18.3504 14.5284 18.3428 14.574C18.1525 14.6959 17.8479 14.6959 17.6347 14.8025C17.9393 14.8177 18.1829 14.8938 18.3961 14.9928C18.3885 15.107 18.3885 15.2289 18.3809 15.3431C18.0306 15.5791 17.7108 15.937 17.2997 16.1654C17.1017 16.272 16.424 16.5462 16.2184 16.4929C16.1042 16.4624 16.089 16.3177 16.0433 16.1807C15.9443 15.8913 15.7159 15.4192 15.693 14.9776C15.6702 14.4218 15.6093 13.4852 16.2108 13.5994C16.6981 13.6908 17.2616 13.9116 17.6347 14.1172C17.8707 14.2542 18.0002 14.4065 18.3504 14.437Z" fill="black" stroke="#D33833" stroke-width="3.83693"/>
<path d="M18.693 15.0996C18.6397 14.795 18.5788 14.7112 18.6016 14.4447C19.4164 13.9041 19.561 15.3737 18.693 15.0996Z" fill="#D33833"/>
<path d="M18.693 15.0996C18.6397 14.795 18.5788 14.7112 18.6016 14.4447C19.4164 13.9041 19.561 15.3737 18.693 15.0996Z" fill="black" stroke="#D33833" stroke-width="3.83693"/>
<path d="M19.866 15.3431C19.866 15.3431 19.6148 14.9853 19.7975 14.8787C19.9802 14.7721 20.1554 14.8787 20.262 14.6959C20.3686 14.5132 20.262 14.4066 20.3 14.1934C20.3381 13.9802 20.5133 13.9421 20.696 13.904C20.8787 13.866 21.3813 13.7974 21.4498 13.9726L21.2366 13.3253L20.8026 13.1807L19.4396 13.9726L19.3711 14.3685V15.1604" fill="#EF3D3A"/>
<path d="M16.0886 16.5312C16.0429 15.9678 15.9972 15.4119 15.9515 14.8485C15.8754 14.0109 16.1495 14.1556 16.8805 14.1556C16.9947 14.1556 17.5658 14.285 17.6039 14.3688C17.8018 14.7723 17.2764 14.681 17.8323 14.9855C18.2968 15.2368 19.1267 14.8332 18.9364 14.2622C18.8298 14.1327 18.3881 14.2241 18.2282 14.1403C17.9465 13.9957 17.6648 13.851 17.383 13.7063C17.0252 13.5236 16.2028 13.2494 15.8221 13.5083C14.8551 14.1632 15.883 15.8079 16.2257 16.4932" fill="#EF3D3A"/>
<path d="M17.0405 3.79219C16.0582 3.56375 15.5709 4.20336 15.2739 4.86581C15.0074 4.8049 15.114 4.43941 15.1826 4.25666C15.3577 3.77696 16.0658 3.12974 16.6445 3.22111C16.8882 3.25157 17.2232 3.48 17.0405 3.79219Z" fill="#231F20"/>
<path d="M21.8149 4.90381H21.8606C22.0814 5.36067 22.2718 5.84799 22.5535 6.25917C22.3632 6.7008 21.1373 7.08152 21.1525 6.30485C21.419 6.19064 21.8758 6.28201 22.1119 6.12972C21.9748 5.75662 21.7845 5.43681 21.8149 4.90381Z" fill="#231F20"/>
<path d="M17.5353 4.91895C17.7485 5.30728 17.8171 5.71084 18.114 6.00019C18.2511 6.12963 18.51 6.28953 18.3805 6.65502C18.3501 6.73878 18.1293 6.92914 17.9998 6.96721C17.5353 7.10427 16.4465 6.99767 16.812 6.41136C17.2003 6.42659 17.7181 6.66264 18.0074 6.38091C17.7866 6.03064 17.3907 5.33012 17.5353 4.91895Z" fill="#231F20"/>
<path d="M21.6396 8.83295C20.9391 9.2822 20.1548 9.77713 18.9974 9.66292C18.7537 9.44971 18.6547 8.97001 18.8984 8.65782C19.0202 8.87102 18.9441 9.26697 19.2944 9.32788C19.9492 9.4421 20.7106 8.92432 21.1827 8.74919C21.4721 8.25426 21.1599 8.07913 20.8934 7.75932C20.3528 7.1121 19.637 6.30498 19.6598 5.33795C19.8807 5.17805 19.8959 5.58161 19.9263 5.65014C20.2081 6.30498 20.9162 7.15017 21.4264 7.71364C21.5558 7.8507 21.7614 7.98775 21.7843 8.07913C21.8528 8.33802 21.6091 8.65782 21.6396 8.83295Z" fill="#231F20"/>
<path d="M12.3655 8.36059C12.1447 8.23115 12.0914 7.68291 11.8325 7.66768C11.4594 7.64484 11.5279 8.38343 11.5279 8.81745C11.2767 8.58902 11.231 7.87327 11.4137 7.50778C11.2005 7.40118 11.1091 7.622 10.9873 7.69814C11.1472 6.59406 12.6092 7.18798 12.3655 8.36059Z" fill="#231F20"/>
<path d="M22.0811 9.29736C21.7537 9.92174 21.2892 10.607 20.3298 10.6299C20.307 10.4319 20.2918 10.1197 20.3298 9.99789C21.0684 9.92174 21.5253 9.54864 22.0811 9.29736Z" fill="#231F20"/>
<path d="M17.4824 9.70117C18.0916 10.021 19.2185 10.059 20.0561 10.0362C20.1018 10.2189 20.1018 10.4474 20.1018 10.6682C19.0281 10.7139 17.7642 10.4474 17.4824 9.70117Z" fill="#231F20"/>
<path d="M17.3684 10.2949C17.7948 11.3609 19.2491 11.2391 20.4751 11.2086C20.4218 11.3457 20.3075 11.5132 20.1553 11.5665C19.7593 11.7264 18.6781 11.8483 18.1298 11.5589C17.7872 11.3762 17.5588 10.9574 17.3684 10.7137C17.2846 10.5995 16.8278 10.3025 17.3684 10.2949Z" fill="#231F20"/>
<path d="M21.5863 16.1658C21.0914 17.0186 20.6117 17.8942 20.0254 18.6404C20.2691 17.9171 20.3757 16.6988 20.4137 15.7698C20.9315 15.5261 21.3731 15.8231 21.5863 16.1658Z" fill="#81B0C4"/>
<path d="M24.259 19.2266C23.7032 19.3408 23.3148 19.8814 22.7666 19.8433C23.0712 19.4245 23.589 19.2418 24.259 19.2266Z" fill="#231F20"/>
<path d="M24.5024 20.0945C24.0455 20.1402 23.5125 20.2163 23.0557 20.1783C23.2765 19.8432 24.1141 19.9651 24.5024 20.0945Z" fill="#231F20"/>
<path d="M24.6627 20.8485C24.1525 20.8562 23.5205 20.8485 23.0332 20.8105C23.3225 20.4983 24.3353 20.6963 24.6627 20.8485Z" fill="#231F20"/>
<path d="M20.6267 22.9045C20.7029 23.5441 20.9541 24.1913 20.9237 24.8918C20.642 24.9832 20.4821 25.0669 20.1013 25.0669C20.0785 24.473 19.9947 23.5593 20.0176 22.9882C20.2003 23.0035 20.4744 22.8588 20.6267 22.9045Z" fill="#DCD9D8"/>
<path d="M19.8044 13.4624C19.5455 13.6299 19.3323 13.8355 19.081 14.0183C18.5328 14.0487 18.2358 13.9802 17.8398 13.668C17.8475 13.6451 17.8855 13.6528 17.8855 13.6223C18.4718 13.8812 19.218 13.5157 19.8044 13.4624Z" fill="#F0D6B7"/>
<path d="M16.7441 17.445C16.904 16.7521 17.536 16.3866 18.1071 16.0059C18.6934 16.7521 19.0513 17.7115 19.4472 18.6404C18.5107 18.3587 17.5589 17.9095 16.7441 17.445Z" fill="#81B0C4"/>
<path d="M20.0176 22.9956C19.9948 23.5667 20.0709 24.4728 20.1014 25.0744C20.4821 25.0744 20.642 24.9906 20.9237 24.8992C20.9542 24.1987 20.7029 23.5515 20.6268 22.9119C20.4745 22.8586 20.2004 23.0033 20.0176 22.9956ZM14.1393 19.7671C14.3906 22.0591 14.7485 23.9779 15.4109 26.0109C16.8805 26.4602 18.647 26.4983 19.9491 26.0947C19.7131 24.9525 19.812 23.5591 19.675 22.3332C19.5684 21.4119 19.6217 20.4905 19.477 19.5539C17.9008 19.2265 15.6774 19.4778 14.1393 19.7671ZM19.8501 19.5692C19.8349 20.5514 19.8958 21.5261 19.9719 22.5083C20.3527 22.455 20.6039 22.417 20.9542 22.3332C20.84 21.389 20.8552 20.3154 20.6192 19.4778C20.3527 19.4854 20.1166 19.4778 19.8501 19.5692ZM21.7613 19.4093C21.5786 19.3712 21.373 19.4093 21.2055 19.4093C21.2892 20.2088 21.4796 21.0921 21.5481 21.9372C21.8146 21.9449 21.9593 21.8154 22.1801 21.7773C22.1953 21.0388 22.1192 20.0184 21.7613 19.4093ZM24.6624 22.0591C25.2259 21.922 25.5761 21.2367 25.4162 20.5286C25.3096 20.0565 25.1269 19.158 24.9213 18.8534C24.7766 18.6326 24.3731 18.3356 24.0456 18.5412C23.5202 18.8763 22.5989 18.9753 22.2182 19.3788C22.4085 20.0184 22.4695 20.8865 22.5456 21.6936C23.2004 21.7317 24 21.5108 24.5482 21.7469C24.1675 21.8687 23.6801 21.8687 23.3527 22.0515C23.6268 22.1809 24.2512 22.1581 24.6624 22.0591ZM19.4389 18.6402C19.043 17.7113 18.6851 16.7519 18.0988 16.0056C17.5277 16.3864 16.9034 16.7519 16.7358 17.4448C17.5582 17.9092 18.51 18.3585 19.4389 18.6402ZM20.4136 15.7696C20.3755 16.6986 20.2689 17.9169 20.0252 18.6402C20.6116 17.8864 21.0913 17.0184 21.5862 16.1656C21.373 15.8229 20.9314 15.5259 20.4136 15.7696ZM19.3095 15.3813C19.0887 15.3584 18.8983 15.6402 18.609 15.5183C18.5404 15.5945 18.4795 15.6706 18.411 15.7468C19.0506 16.5234 19.3476 17.6199 19.8425 18.526C20.109 17.6504 20.0786 16.6986 20.1395 15.7468C19.774 15.762 19.5684 15.4041 19.3095 15.3813ZM18.6014 14.4447C18.5785 14.7112 18.6394 14.795 18.6927 15.0995C19.5608 15.3737 19.4161 13.9041 18.6014 14.4447ZM17.6343 14.1249C17.2612 13.9193 16.6978 13.6985 16.2104 13.6071C15.6089 13.4929 15.6698 14.4295 15.6927 14.9853C15.7155 15.427 15.9439 15.8914 16.0429 16.1884C16.0886 16.3255 16.1038 16.4701 16.2181 16.5006C16.4237 16.5463 17.1089 16.2798 17.2993 16.1732C17.7105 15.9523 18.0303 15.5945 18.3805 15.3508C18.3882 15.2366 18.3882 15.1148 18.3958 15.0006C18.1826 14.894 17.9465 14.8254 17.6343 14.8102C17.8399 14.7036 18.1521 14.7036 18.3425 14.5818C18.3425 14.5361 18.3425 14.4904 18.3501 14.4447C17.9998 14.4066 17.8704 14.2543 17.6343 14.1249ZM14.0556 13.4777C13.7434 13.7975 14.9312 14.2239 15.3043 14.2467C15.3043 14.0488 15.4186 13.8584 15.3957 13.7137C14.9465 13.6376 14.3602 13.6909 14.0556 13.4777ZM17.8932 13.6224C17.8932 13.6528 17.8552 13.6452 17.8475 13.668C18.2511 13.9802 18.5481 14.0488 19.0887 14.0183C19.3323 13.8432 19.5532 13.63 19.812 13.4624C19.2181 13.5157 18.4719 13.8812 17.8932 13.6224ZM21.4111 14.6884C21.3958 14.3381 21.3045 13.6147 21.0836 13.4853C20.6268 13.2188 19.8197 14.0259 19.477 14.1477C19.5151 14.2543 19.576 14.3381 19.5836 14.4752C19.7892 14.4219 20.0329 14.4599 20.208 14.5437C20.0024 14.5665 19.7816 14.5665 19.6445 14.6655C19.5988 14.8102 19.6598 15.0006 19.6217 15.1985C20.1014 15.3356 20.6572 15.4041 21.2664 15.427C21.3806 15.2747 21.4263 14.9853 21.4111 14.6884ZM13.5302 13.7823C13.4312 13.7137 12.7688 12.8533 12.6774 12.8914C11.4819 13.3635 10.3626 14.1782 9.36513 14.9549C10.3169 17.0031 10.7053 19.5083 10.7738 21.922C11.8626 22.4322 12.8221 23.1708 14.3069 23.2469C14.1317 22.0362 13.9794 20.9474 13.8804 19.8052C13.5073 19.6453 12.9743 19.8128 12.6241 19.7595C12.6241 19.3407 13.1571 19.5768 13.2028 19.2951C13.2332 19.0819 12.9058 19.0666 13.0124 18.7316C13.2865 18.8306 13.4312 19.0514 13.7205 19.1352C13.9871 18.5565 13.7205 17.5285 13.7586 17.0412C13.7662 16.9498 13.8043 16.5387 14.0099 16.6072C14.1926 16.6681 14.0023 17.7113 14.0175 18.1681C14.0327 18.5945 13.9642 18.9981 14.1393 19.2646C15.5708 19.0666 17.0252 18.9448 18.5785 18.8991C18.2359 18.7544 17.8323 18.6174 17.3907 18.3661C17.147 18.229 16.3932 17.9473 16.3247 17.7189C16.2104 17.3534 16.614 17.163 16.6825 16.8508C15.9592 17.2468 15.8221 16.4701 15.647 15.9295C15.4947 15.4346 15.4033 15.0615 15.3653 14.7797C14.7333 14.4599 14.0632 14.163 13.5302 13.7823ZM20.7791 12.9904C21.7766 12.5107 21.9593 14.795 21.5634 15.5336C21.6243 15.7544 21.8299 15.8381 21.9136 16.0361C21.3578 17.0336 20.741 17.9625 20.1699 18.9448C20.5887 18.6783 21.1979 18.8991 21.6928 18.7011C21.8755 18.6326 22.005 18.2138 22.142 17.8788C22.5228 16.9651 22.9187 15.8077 23.0938 14.9396C23.1319 14.7417 23.2461 14.3076 23.2157 14.1325C23.17 13.8127 22.7436 13.5767 22.5228 13.3863C22.1192 13.0208 21.8679 12.7086 21.4415 12.366C21.2816 12.6173 20.9161 12.7848 20.7791 12.9904ZM11.2535 4.15007C10.7814 4.67546 10.8804 5.6501 10.9337 6.35062C11.7941 5.81 12.9287 6.39631 12.921 7.31003C13.3322 7.30242 13.0733 6.79987 12.9972 6.47245C12.7535 5.41405 13.4084 4.2719 13.0276 3.30487C12.289 3.36579 11.6875 3.66275 11.2535 4.15007ZM14.6495 1.11193C13.5759 1.41651 12.1977 2.20079 11.756 3.16781C12.0987 3.11451 12.3347 2.947 12.6698 2.92415C12.7992 2.91654 12.9667 2.97746 13.1114 2.93938C13.4007 2.86324 13.652 2.2084 13.8728 1.96474C14.086 1.7287 14.3449 1.6221 14.5201 1.40889C14.6343 1.35559 14.8018 1.35559 14.8094 1.18808C14.7637 1.13478 14.7104 1.0967 14.6495 1.11193ZM20.2461 1.40128C19.1268 0.769287 17.2384 0.297196 16.0505 0.891117C15.0911 1.37082 13.7967 2.16272 13.3551 3.1602C13.7662 4.12723 13.2332 5.01049 13.1952 5.99275C13.1799 6.51814 13.4388 6.96739 13.4617 7.53847C13.317 7.77451 12.8906 7.79735 12.5936 7.78212C12.4946 7.27958 12.3195 6.71611 11.8017 6.6552C11.0707 6.57144 10.5301 7.18059 10.4997 7.81258C10.4616 8.55879 11.0707 9.79232 11.9388 9.70856C12.2738 9.6781 12.3576 9.34307 12.7231 9.34307C12.921 9.73902 12.4185 9.86085 12.3652 10.1426C12.35 10.2187 12.4033 10.5005 12.4413 10.6375C12.6012 11.2847 12.9515 12.1299 13.2941 12.6249C13.7358 13.2569 14.5962 13.3482 15.5252 13.4091C15.6927 13.0513 16.3018 13.0817 16.6978 13.1731C16.2181 12.9827 15.7764 12.5259 15.4109 12.1223C14.9921 11.6578 14.5657 11.1629 14.5429 10.5538C15.3424 11.6578 15.9972 12.6249 17.444 13.1122C18.5404 13.4777 19.8197 12.9447 20.6649 12.3507C21.0151 12.1071 21.2207 11.7111 21.472 11.3609C22.4009 10.0208 22.835 8.11716 22.7436 6.26686C22.7055 5.50543 22.7055 4.74399 22.4466 4.23383C22.1801 3.70082 21.274 3.2135 20.741 3.70082C20.642 3.17543 21.1826 2.85563 21.8146 3.04598C21.3654 2.45968 20.8933 1.76677 20.2461 1.40128ZM22.3324 18.6174C23.2081 18.1834 24.8375 17.4524 25.3782 18.6174C25.5837 19.0514 25.8198 19.7748 25.9188 20.224C26.0634 20.8484 25.7589 22.1733 25.1117 22.3789C24.5406 22.5616 23.8781 22.554 23.1928 22.417C23.1091 22.3484 23.0253 22.2342 22.9568 22.1124C22.4695 22.0971 22.005 22.1352 21.6243 22.3408C21.6623 22.7063 21.4187 22.7596 21.1826 22.8357C21.0151 23.5134 21.5253 24.3967 21.4035 25.0058C21.3197 25.4475 20.7791 25.516 20.3831 25.5921C20.3679 25.8358 20.3984 26.0414 20.4288 26.247C20.3374 26.582 19.9339 26.7724 19.5455 26.8181C18.2739 26.9703 16.3475 27.0389 15.1292 26.5972C14.7866 25.7597 14.5201 24.747 14.2383 23.7952C13.0505 23.9246 12.0835 23.285 11.1773 22.8586C10.8652 22.7139 10.4311 22.6302 10.3093 22.3789C10.1951 22.1352 10.2408 21.6707 10.2103 21.2367C10.1418 20.1174 10.0733 19.0362 9.78392 17.894C9.65447 17.3762 9.41843 16.927 9.25852 16.4321C9.10624 15.9752 8.84735 15.4041 8.77882 14.9473C8.67983 14.2696 9.31944 14.2315 9.723 13.9345C10.355 13.4777 10.8499 13.2264 11.5352 12.8152C11.7408 12.6934 12.35 12.3888 12.4185 12.2441C12.5555 11.9624 12.1824 11.5665 12.0835 11.3457C11.9236 10.9954 11.8398 10.6984 11.817 10.3558C11.2459 10.2644 10.8042 9.92176 10.5454 9.54105C10.1113 8.90144 9.80676 7.72121 10.1875 6.83033C10.2179 6.7618 10.3626 6.61713 10.3855 6.51052C10.4311 6.29732 10.3017 6.01559 10.2941 5.78716C10.256 4.62216 10.4921 3.61706 11.2763 3.2668C11.5961 1.9952 12.7383 1.57641 13.8119 0.944417C14.2155 0.708372 14.6571 0.556084 15.114 0.388568C16.7511 -0.212967 19.2714 -0.0987518 20.6344 0.929189C21.2131 1.36321 22.1344 2.28455 22.4618 2.95461C23.3375 4.71353 23.269 7.6603 22.6598 9.80755C22.5761 10.0969 22.4618 10.5157 22.2943 10.8659C22.1801 11.1096 21.8222 11.5893 21.8603 11.8025C21.906 12.0233 22.6827 12.6096 22.8502 12.7695C23.1471 13.0589 23.7182 13.4396 23.7639 13.8051C23.8172 14.1934 23.5964 14.7264 23.4822 15.0995C23.1167 16.3483 22.7512 17.4981 22.3324 18.6174Z" fill="#231F20"/>
<path d="M16.5073 9.96729C16.553 9.90638 16.8119 9.80739 17.1774 9.98252C17.1774 9.98252 16.7433 10.051 16.7814 10.7744L16.5987 10.7363C16.6063 10.744 16.4159 10.0891 16.5073 9.96729Z" fill="#F7E4CD"/>
<path d="M19.6596 16.1501C19.6596 16.2567 19.5682 16.3481 19.4616 16.3481C19.355 16.3481 19.2637 16.2567 19.2637 16.1501C19.2637 16.0435 19.355 15.9521 19.4616 15.9521C19.5759 15.9521 19.6596 16.0435 19.6596 16.1501Z" fill="#1D1919"/>
<path d="M19.8579 17.0715C19.8579 17.1781 19.7665 17.2695 19.6599 17.2695C19.5533 17.2695 19.4619 17.1781 19.4619 17.0715C19.4619 16.9649 19.5533 16.8735 19.6599 16.8735C19.7741 16.8735 19.8579 16.9573 19.8579 17.0715Z" fill="#1D1919"/>
<path d="M9.48747 28.7216C9.42655 28.7292 9.37325 28.7368 9.32756 28.7445C9.28188 28.7521 9.23619 28.7597 9.17528 28.7749C9.10675 28.7901 9.06868 28.8206 9.05345 28.8663C9.03822 28.912 9.02299 28.9577 9.02299 29.0186V30.8765C9.02299 31.044 8.98492 31.2039 8.91639 31.3486C8.84786 31.4932 8.75649 31.6075 8.63466 31.7064C8.51283 31.7978 8.37577 31.874 8.22348 31.9196C8.07119 31.9653 7.91129 31.9958 7.74377 31.9958C7.44681 31.9958 7.21077 31.9273 7.02802 31.7826C6.84528 31.6379 6.75391 31.4476 6.75391 31.1963C6.75391 31.0516 6.79198 30.9298 6.87574 30.8308C6.95949 30.7318 7.07371 30.6861 7.21838 30.6861C7.35544 30.6861 7.46204 30.7242 7.5458 30.8079C7.62956 30.8917 7.66763 30.9907 7.66763 31.1049C7.66763 31.2039 7.62956 31.3029 7.56103 31.3866C7.4925 31.4704 7.40874 31.5542 7.31737 31.6227V31.6531C7.3326 31.6836 7.36306 31.7141 7.40874 31.7369C7.45443 31.7597 7.50773 31.7674 7.55342 31.7674C7.74377 31.7674 7.89606 31.6988 8.00266 31.5618C8.10926 31.4247 8.16257 31.2191 8.16257 30.945V29.0414C8.16257 28.9881 8.15495 28.9348 8.13972 28.8967C8.12449 28.8587 8.07881 28.8282 8.01028 28.7978C7.96459 28.7749 7.90368 28.7597 7.83515 28.7445C7.76662 28.7292 7.71332 28.7216 7.66763 28.714V28.5312H9.46462V28.7216H9.48747Z" fill="#231F20"/>
<path d="M12.3045 31.341C12.2512 31.4324 12.1827 31.5161 12.1066 31.5999C12.0304 31.6837 11.939 31.7446 11.8401 31.8055C11.7335 31.8664 11.6269 31.9121 11.5203 31.9426C11.4137 31.973 11.2842 31.9882 11.1472 31.9882C10.9111 31.9882 10.7131 31.9578 10.538 31.8893C10.3705 31.8207 10.2258 31.737 10.1192 31.6227C10.005 31.5085 9.92885 31.3791 9.86794 31.2268C9.81464 31.0745 9.78418 30.907 9.78418 30.7319C9.78418 30.572 9.81464 30.4121 9.87555 30.2674C9.93647 30.1227 10.0202 29.9857 10.1268 29.8714C10.2334 29.7572 10.3705 29.6659 10.538 29.5973C10.7055 29.5288 10.8883 29.4907 11.0862 29.4907C11.3071 29.4907 11.4898 29.5212 11.6345 29.5745C11.7791 29.6278 11.8934 29.7039 11.9847 29.7953C12.0761 29.8867 12.137 29.9933 12.1827 30.1151C12.2208 30.2369 12.2436 30.3664 12.2436 30.5034V30.6557H10.637C10.637 30.9831 10.6979 31.2268 10.8273 31.3943C10.9492 31.5618 11.1548 31.6456 11.4213 31.6456C11.5736 31.6456 11.703 31.6075 11.8248 31.5238C11.9467 31.44 12.0456 31.341 12.1294 31.2116L12.3045 31.341ZM11.3984 30.4349C11.3984 30.3435 11.3908 30.2445 11.3832 30.1456C11.3756 30.0466 11.3604 29.9628 11.3299 29.9019C11.2994 29.8258 11.269 29.7725 11.2157 29.7344C11.17 29.6963 11.1091 29.6811 11.0406 29.6811C10.9187 29.6811 10.8197 29.742 10.7512 29.8638C10.6751 29.9857 10.637 30.1836 10.6294 30.4501L11.3984 30.4349Z" fill="#231F20"/>
<path d="M15.6625 31.9046H14.231V31.7294C14.2615 31.7294 14.2995 31.7218 14.3376 31.7142C14.3833 31.7066 14.4137 31.699 14.4366 31.6914C14.467 31.6761 14.4899 31.6457 14.5051 31.6152C14.5203 31.5848 14.528 31.5315 14.528 31.4706V30.3589C14.528 30.199 14.4975 30.0771 14.4366 29.9934C14.3757 29.9096 14.2919 29.8715 14.1701 29.8715C14.1092 29.8715 14.0483 29.8791 13.995 29.902C13.9417 29.9172 13.8883 29.9477 13.835 29.9857C13.7894 30.0162 13.7513 30.0467 13.7208 30.0847C13.6904 30.1152 13.6675 30.1457 13.6523 30.1761V31.4477C13.6523 31.501 13.6599 31.5467 13.6751 31.5848C13.6904 31.6228 13.7208 31.6533 13.7513 31.6685C13.7741 31.6838 13.8046 31.699 13.8427 31.7066C13.8807 31.7142 13.9188 31.7218 13.9569 31.7294V31.9046H12.5101V31.7294C12.5482 31.7294 12.5863 31.7218 12.632 31.7142C12.67 31.7066 12.7081 31.699 12.7386 31.6914C12.7919 31.6761 12.8223 31.6457 12.8452 31.6076C12.8604 31.5695 12.8756 31.5239 12.8756 31.4629V30.0771C12.8756 30.0314 12.8604 29.9781 12.8376 29.9324C12.8147 29.8868 12.7767 29.8487 12.7386 29.8182C12.7081 29.803 12.6777 29.7802 12.632 29.7725C12.5863 29.7573 12.5406 29.7497 12.4873 29.7497V29.5746L13.6218 29.5137L13.6599 29.5517V29.8944H13.6675C13.7132 29.8563 13.7665 29.8106 13.8274 29.7497C13.8883 29.6964 13.9493 29.6507 14.0026 29.6126C14.0635 29.5746 14.1396 29.5441 14.231 29.5137C14.3224 29.4832 14.429 29.4756 14.5356 29.4756C14.7945 29.4756 14.9848 29.5517 15.1143 29.6964C15.2437 29.8411 15.3046 30.039 15.3046 30.2827V31.4477C15.3046 31.5086 15.3122 31.5543 15.3275 31.5848C15.3427 31.6228 15.3808 31.6457 15.4265 31.6685C15.4493 31.6761 15.4798 31.6914 15.5178 31.699C15.5559 31.7066 15.594 31.7142 15.6473 31.7218V31.9046H15.6625Z" fill="#231F20"/>
<path d="M18.9369 31.9046H17.8176C17.6805 31.6609 17.5511 31.4553 17.4369 31.2878C17.3227 31.1203 17.2161 30.9604 17.1171 30.8234L16.98 30.9452V31.463C16.98 31.5163 16.9876 31.5696 17.0029 31.6C17.0181 31.6381 17.0485 31.6609 17.1018 31.6838C17.1323 31.699 17.1628 31.7066 17.2008 31.7142C17.2389 31.7219 17.277 31.7295 17.3151 31.7295V31.9046H15.8379V31.7295C15.8759 31.7295 15.914 31.7219 15.9597 31.7142C15.9978 31.7066 16.0358 31.699 16.0663 31.6914C16.1196 31.6762 16.1501 31.6457 16.1729 31.6076C16.1881 31.5696 16.2034 31.5239 16.2034 31.463V28.8132C16.2034 28.7599 16.1881 28.7066 16.1653 28.6533C16.1424 28.6 16.112 28.5543 16.0663 28.5238C16.0358 28.5086 15.9901 28.4857 15.9292 28.4781C15.8683 28.4629 15.815 28.4553 15.7617 28.4553V28.2802L16.9419 28.2192L16.98 28.2573V30.7091C17.0942 30.6025 17.2313 30.4807 17.376 30.3436C17.5206 30.2066 17.6425 30.0924 17.7262 30.001C17.7795 29.9477 17.81 29.9096 17.81 29.8792C17.8176 29.8487 17.8176 29.8335 17.8176 29.8259C17.8176 29.7954 17.7948 29.7726 17.7415 29.7573C17.6882 29.7421 17.6196 29.7193 17.513 29.704V29.5365H18.7161V29.704C18.5562 29.7497 18.4344 29.7878 18.3506 29.8259C18.2668 29.8639 18.1755 29.9172 18.0765 29.9782C18.008 30.0238 17.947 30.0695 17.8861 30.1152C17.8252 30.1609 17.7567 30.2218 17.6729 30.2903C17.8252 30.5188 17.9699 30.7244 18.0993 30.9147C18.2288 31.1051 18.3658 31.3107 18.5105 31.5239C18.5562 31.6 18.6171 31.6457 18.6933 31.6762C18.7694 31.699 18.8379 31.7142 18.9141 31.7219V31.9046H18.9369Z" fill="#231F20"/>
<path d="M20.4594 31.9048H18.9594V31.7297C18.9974 31.7297 19.0431 31.722 19.0812 31.7144C19.1193 31.7068 19.1573 31.6992 19.1802 31.6916C19.2335 31.6764 19.2639 31.6459 19.2868 31.6078C19.3096 31.5698 19.3172 31.5241 19.3172 31.4632V30.0773C19.3172 30.024 19.302 29.9707 19.2792 29.9327C19.2563 29.887 19.2259 29.8565 19.1878 29.8337C19.1573 29.8185 19.1193 29.7956 19.0583 29.7804C18.9974 29.7652 18.9441 29.7499 18.8984 29.7499V29.5748L20.0634 29.5139L20.1015 29.552V31.4403C20.1015 31.4936 20.1167 31.5393 20.1396 31.585C20.1624 31.6231 20.2005 31.6535 20.2386 31.6687C20.269 31.684 20.3071 31.6992 20.3452 31.7068C20.3832 31.7144 20.4213 31.722 20.467 31.7297V31.9048H20.4594ZM20.1167 28.6687C20.1167 28.7905 20.0711 28.8895 19.9797 28.9733C19.8883 29.057 19.7741 29.1027 19.6523 29.1027C19.5228 29.1027 19.4162 29.057 19.3172 28.9733C19.2259 28.8895 19.1802 28.7829 19.1802 28.6687C19.1802 28.5469 19.2259 28.4479 19.3172 28.3565C19.4086 28.2727 19.5228 28.2271 19.6523 28.2271C19.7817 28.2271 19.8883 28.2727 19.9797 28.3565C20.0711 28.4403 20.1167 28.5469 20.1167 28.6687Z" fill="#231F20"/>
<path d="M23.8178 31.9046H22.3863V31.7294C22.4167 31.7294 22.4548 31.7218 22.4929 31.7142C22.5386 31.7066 22.569 31.699 22.5919 31.6914C22.6223 31.6761 22.6452 31.6457 22.6604 31.6152C22.6756 31.5848 22.6832 31.5315 22.6832 31.4706V30.3589C22.6832 30.199 22.6528 30.0771 22.5919 29.9934C22.5309 29.9096 22.4472 29.8715 22.3254 29.8715C22.2644 29.8715 22.2035 29.8791 22.1502 29.902C22.0969 29.9248 22.0436 29.9477 21.9903 29.9857C21.9446 30.0162 21.9066 30.0467 21.8761 30.0847C21.8456 30.1152 21.8228 30.1457 21.8076 30.1761V31.4477C21.8076 31.501 21.8152 31.5467 21.8304 31.5848C21.8456 31.6228 21.8761 31.6533 21.9066 31.6685C21.9294 31.6838 21.9599 31.699 21.9979 31.7066C22.036 31.7142 22.0741 31.7218 22.1122 31.7294V31.9046H20.6654V31.7294C20.7035 31.7294 20.7416 31.7218 20.7873 31.7142C20.8253 31.7066 20.8634 31.699 20.8939 31.6914C20.9472 31.6761 20.9776 31.6457 21.0005 31.6076C21.0157 31.5695 21.0309 31.5239 21.0309 31.4629V30.0771C21.0309 30.0314 21.0157 29.9781 20.9928 29.9324C20.97 29.8868 20.9319 29.8487 20.8939 29.8182C20.8634 29.803 20.8329 29.7802 20.7873 29.7725C20.7416 29.7573 20.6959 29.7497 20.6426 29.7497V29.5746L21.7771 29.5137L21.8152 29.5517V29.8944H21.8228C21.8685 29.8563 21.9218 29.8106 21.9827 29.7497C22.0436 29.6964 22.1045 29.6507 22.1578 29.6126C22.2188 29.5746 22.2949 29.5441 22.3863 29.5137C22.4776 29.4832 22.5842 29.4756 22.6908 29.4756C22.9497 29.4756 23.1401 29.5517 23.2695 29.6964C23.399 29.8411 23.4599 30.039 23.4599 30.2827V31.4477C23.4599 31.5086 23.4675 31.5543 23.4827 31.5848C23.498 31.6228 23.536 31.6457 23.5817 31.6685C23.6046 31.6761 23.635 31.6914 23.6731 31.699C23.7112 31.7066 23.7492 31.7142 23.8025 31.7218V31.9046H23.8178Z" fill="#231F20"/>
<path d="M25.1352 31.9882C24.9829 31.9882 24.8306 31.9654 24.6859 31.9197C24.5412 31.874 24.427 31.8283 24.3433 31.775L24.2747 31.9349H24.092L24.0615 31.0517H24.2367C24.2595 31.1202 24.2976 31.204 24.3585 31.2953C24.4118 31.3867 24.4803 31.4628 24.5488 31.539C24.625 31.6075 24.7087 31.6684 24.8077 31.7217C24.9067 31.7674 25.0057 31.7979 25.1123 31.7979C25.257 31.7979 25.3636 31.7674 25.4321 31.7141C25.5006 31.6608 25.5387 31.5694 25.5387 31.4552C25.5387 31.3943 25.5235 31.341 25.493 31.2953C25.4626 31.2573 25.4169 31.2192 25.3636 31.1887C25.3027 31.1583 25.2341 31.1278 25.158 31.105C25.0818 31.0821 24.9905 31.0593 24.8839 31.0212C24.7773 30.9908 24.6859 30.9603 24.6098 30.9222C24.5336 30.8918 24.4499 30.8385 24.3737 30.7699C24.3052 30.709 24.2443 30.6329 24.2062 30.5491C24.1605 30.4654 24.1453 30.3588 24.1453 30.2369C24.1453 30.0161 24.2367 29.8334 24.427 29.6963C24.6174 29.5593 24.861 29.4907 25.1656 29.4907C25.3103 29.4907 25.4397 29.506 25.5616 29.5364C25.6834 29.5669 25.7824 29.5973 25.8661 29.6354L25.9194 29.4983H26.1022L26.1402 30.3055H25.9727C25.9194 30.1379 25.8204 30.0009 25.691 29.8791C25.5539 29.7572 25.4093 29.6963 25.257 29.6963C25.1351 29.6963 25.0362 29.7192 24.9676 29.7725C24.8991 29.8258 24.861 29.8943 24.861 29.9857C24.861 30.1075 24.9143 30.1912 25.0133 30.2445C25.1123 30.2978 25.257 30.3511 25.4397 30.3968C25.7215 30.473 25.927 30.572 26.0641 30.6938C26.1935 30.8232 26.2621 30.9831 26.2621 31.1735C26.2621 31.4324 26.1631 31.638 25.9575 31.775C25.7291 31.9121 25.4626 31.9882 25.1352 31.9882Z" fill="#231F20"/>
</svg>
