<svg width="33" height="32" viewBox="0 0 33 32" fill="none" xmlns="http://www.w3.org/2000/svg">
<path d="M9.50024 29.138C9.92824 29.694 10.5782 30 11.2482 30H21.7502C22.4202 30 23.0702 29.67 23.5002 29.132L30.0162 20.776C30.4442 20.22 30.5922 19.51 30.4442 18.82L28.1142 8.40601C28.043 8.07216 27.8968 7.75884 27.6869 7.48966C27.477 7.22048 27.2087 7.00245 26.9022 6.85201L17.4742 2.23201C17.1739 2.07878 16.8414 1.99925 16.5042 2.00001C16.1682 2.00001 15.8342 2.07601 15.5342 2.23001L6.10424 6.87001C5.79827 7.02081 5.53045 7.23898 5.32088 7.50813C5.11131 7.77727 4.96545 8.09041 4.89424 8.42401L2.56424 18.84C2.39624 19.53 2.56424 20.24 2.99224 20.796L9.50024 29.136V29.138Z" fill="#326DE6"/>
<path fill-rule="evenodd" clip-rule="evenodd" d="M25.9818 18.2561C26.1778 18.2601 26.3738 18.2761 26.5678 18.3041L26.6838 18.3301L26.7458 18.3461C26.8302 18.3575 26.9114 18.3861 26.9841 18.4304C27.0568 18.4746 27.1196 18.5334 27.1685 18.6032C27.2174 18.6729 27.2512 18.752 27.268 18.8355C27.2847 18.9189 27.284 19.005 27.2658 19.0881C27.2471 19.1717 27.2109 19.2505 27.1598 19.3192C27.1087 19.388 27.0437 19.4452 26.969 19.4873C26.8944 19.5293 26.8117 19.5552 26.7264 19.5633C26.6411 19.5714 26.5551 19.5614 26.4738 19.5341H26.4658L26.4598 19.5321L26.4538 19.5281C26.4339 19.524 26.4139 19.52 26.3938 19.5161L26.2938 19.4961C26.1073 19.4361 25.9243 19.3653 25.7458 19.2841C25.4015 19.1452 25.0445 19.04 24.6798 18.9701C24.5535 18.9665 24.4308 19.0125 24.3378 19.0981C24.2507 19.0816 24.1634 19.0662 24.0758 19.0521C23.4829 20.9099 22.2271 22.4846 20.5478 23.4761C20.5778 23.5601 20.6118 23.6421 20.6498 23.7221C20.5878 23.8314 20.5713 23.9608 20.6038 24.0821C20.7518 24.4221 20.9338 24.7461 21.1458 25.0501C21.2658 25.2061 21.3738 25.3701 21.4738 25.5381L21.5298 25.6521L21.5538 25.7021C21.6206 25.8128 21.6506 25.9417 21.6396 26.0705C21.6286 26.1993 21.5771 26.3212 21.4925 26.4189C21.4079 26.5166 21.2945 26.585 21.1687 26.6144C21.0428 26.6437 20.9109 26.6324 20.7918 26.5821C20.7126 26.5494 20.6411 26.5004 20.5818 26.4385C20.5226 26.3765 20.477 26.3028 20.4478 26.2221L20.4278 26.1821C20.4084 26.1439 20.3897 26.1052 20.3718 26.0661C20.3018 25.8831 20.2423 25.6961 20.1938 25.5061C20.0875 25.1519 19.9469 24.809 19.7738 24.4821C19.6987 24.3805 19.5867 24.3123 19.4618 24.2921L19.4018 24.1861L19.3318 24.0581C17.5117 24.7454 15.5026 24.7404 13.6858 24.0441L13.5458 24.2941C13.447 24.3095 13.3551 24.354 13.2818 24.4221C13.0732 24.7634 12.9136 25.1324 12.8078 25.5181C12.7601 25.7081 12.7013 25.8951 12.6318 26.0781C12.616 26.1119 12.5993 26.1452 12.5818 26.1781L12.5558 26.2321C12.527 26.313 12.4815 26.3889 12.4223 26.4511C12.363 26.5132 12.2914 26.5622 12.212 26.5948C12.1325 26.6274 12.0472 26.643 11.9613 26.6405C11.8755 26.6379 11.7912 26.6174 11.7138 26.5801C11.5978 26.5247 11.5021 26.4343 11.4401 26.3217C11.378 26.2091 11.3528 26.0798 11.3678 25.9521C11.3781 25.8673 11.4061 25.7855 11.4498 25.7121L11.4778 25.6521L11.5298 25.5481C11.6298 25.3781 11.7378 25.2161 11.8578 25.0601C12.0738 24.7481 12.2578 24.4161 12.4118 24.0681C12.4278 23.9498 12.4083 23.8294 12.3558 23.7221L12.4678 23.4561C10.7948 22.4723 9.53983 20.91 8.93984 19.0641L8.67184 19.1101C8.56837 19.0368 8.44645 18.9938 8.31984 18.9861C7.95526 19.0555 7.59826 19.1599 7.25384 19.2981C7.07384 19.3781 6.89184 19.4481 6.70584 19.5081C6.6727 19.5163 6.63936 19.5237 6.60584 19.5301L6.54584 19.5441H6.53984L6.53584 19.5481H6.52584C6.42444 19.5807 6.31633 19.5864 6.21207 19.5646C6.1078 19.5429 6.01096 19.4945 5.93097 19.4242C5.85098 19.3539 5.79059 19.2641 5.75569 19.1635C5.72079 19.0628 5.71258 18.9549 5.73184 18.8501C5.75639 18.724 5.82002 18.6088 5.91372 18.5208C6.00741 18.4329 6.12641 18.3767 6.25384 18.3601L6.26384 18.3581H6.26784L6.27984 18.3541C6.32784 18.3421 6.38784 18.3261 6.43184 18.3181C6.62584 18.2921 6.82184 18.2761 7.01784 18.2721C7.38984 18.2461 7.75784 18.1861 8.11584 18.0921C8.22194 18.0241 8.31146 17.9333 8.37784 17.8261L8.63384 17.7521C8.35624 15.8261 8.80153 13.8654 9.88384 12.2481L9.68784 12.0741C9.68036 11.9475 9.63739 11.8255 9.56384 11.7221C9.28199 11.4804 8.97721 11.2667 8.65384 11.0841C8.47897 10.9953 8.30936 10.8965 8.14584 10.7881L8.04984 10.7121L8.01984 10.6861L8.01184 10.6801C7.87247 10.5809 7.77819 10.4303 7.74969 10.2616C7.72119 10.0928 7.76081 9.9197 7.85984 9.78014C7.9187 9.70869 7.99353 9.65209 8.07831 9.61491C8.16308 9.57774 8.25542 9.56103 8.34784 9.56614C8.50326 9.57273 8.65252 9.62878 8.77384 9.72614L8.81784 9.76015C8.84984 9.78615 8.88584 9.81214 8.90984 9.83414C9.05384 9.96814 9.18784 10.1121 9.31384 10.2601C9.56384 10.5341 9.83984 10.7841 10.1378 11.0041C10.2498 11.0641 10.3798 11.0761 10.5018 11.0401L10.7218 11.1961C12.061 9.77582 13.8799 8.90342 15.8258 8.74815L15.8418 8.49014C15.9367 8.40589 16.0054 8.29623 16.0398 8.17414C16.0532 7.80414 16.0305 7.43372 15.9718 7.06814C15.9328 6.87657 15.9047 6.68292 15.8878 6.48814V6.32414V6.31415C15.8791 6.22872 15.8885 6.14243 15.9154 6.06086C15.9422 5.9793 15.9859 5.9043 16.0436 5.84073C16.1013 5.77716 16.1718 5.72645 16.2504 5.69189C16.329 5.65733 16.414 5.6397 16.4998 5.64014C16.5855 5.64032 16.6702 5.65837 16.7485 5.69313C16.8268 5.7279 16.897 5.77862 16.9546 5.84205C17.0122 5.90548 17.056 5.98023 17.083 6.06152C17.1101 6.1428 17.1199 6.22885 17.1118 6.31415V6.48814C17.0957 6.6829 17.0684 6.87656 17.0298 7.06814C16.9706 7.43366 16.9472 7.80408 16.9598 8.17414C16.9839 8.29837 17.0557 8.40821 17.1598 8.48014V8.49415L17.1738 8.75214C19.1078 8.92814 20.9138 9.79614 22.2538 11.1981L22.4858 11.0341C22.6111 11.0559 22.74 11.042 22.8578 10.9941C23.1558 10.7741 23.4318 10.5221 23.6818 10.2481C23.8078 10.0981 23.9418 9.95614 24.0858 9.82214L24.1878 9.74214L24.2218 9.71414C24.283 9.65348 24.3563 9.60638 24.4369 9.57589C24.5175 9.54541 24.6036 9.53223 24.6896 9.53722C24.7757 9.54221 24.8597 9.56524 24.9362 9.60483C25.0127 9.64442 25.0801 9.69967 25.1339 9.767C25.1876 9.83432 25.2266 9.91222 25.2483 9.99561C25.27 10.079 25.2739 10.166 25.2598 10.251C25.2456 10.336 25.2137 10.4171 25.1662 10.489C25.1187 10.5608 25.0565 10.6219 24.9838 10.6681L24.9358 10.7081C24.9058 10.7321 24.8758 10.7581 24.8498 10.7761C24.6864 10.8845 24.5168 10.9834 24.3418 11.0721C24.0185 11.2555 23.7137 11.4698 23.4318 11.7121C23.3498 11.8073 23.3082 11.9307 23.3158 12.0561L23.2158 12.1441L23.0998 12.2501C24.1838 13.8621 24.6398 15.8161 24.3738 17.7401L24.6198 17.8121C24.6818 17.9221 24.7738 18.0141 24.8858 18.0761C25.2438 18.1721 25.6118 18.2321 25.9818 18.2561ZM15.0818 10.4801C15.2958 10.4321 15.5138 10.3941 15.7338 10.3681L15.5538 13.5681L15.5378 13.5761C15.5349 13.6489 15.5172 13.7203 15.4857 13.786C15.4543 13.8517 15.4098 13.9102 15.3549 13.9582C15.3001 14.0061 15.2361 14.0423 15.1668 14.0647C15.0975 14.087 15.0243 14.095 14.9518 14.0881C14.8545 14.0799 14.7611 14.0453 14.6818 13.9881L14.6778 13.9901L12.0458 12.1301C12.8838 11.3101 13.9358 10.7381 15.0818 10.4801ZM18.3178 13.9801L20.9338 12.1321C19.9378 11.1589 18.6499 10.5392 17.2678 10.3681L17.4478 13.5641H17.4518C17.4548 13.6371 17.4726 13.7087 17.5041 13.7745C17.5357 13.8403 17.5804 13.899 17.6354 13.9469C17.6905 13.9949 17.7548 14.0311 17.8243 14.0533C17.8938 14.0755 17.9672 14.0833 18.0398 14.0761C18.1372 14.0679 18.2306 14.0333 18.3098 13.9761L18.3178 13.9801ZM22.8138 17.2921L19.7178 16.4001L19.7138 16.3881C19.6437 16.3687 19.5782 16.3353 19.5212 16.2899C19.4643 16.2446 19.4171 16.1881 19.3826 16.124C19.348 16.06 19.3268 15.9896 19.3201 15.917C19.3134 15.8445 19.3215 15.7714 19.3438 15.7021C19.3744 15.6091 19.4297 15.5262 19.5038 15.4621L19.4998 15.4601L21.8898 13.3261C22.6218 14.5141 22.9438 15.9061 22.8098 17.2921H22.8138ZM18.6918 19.0001L19.9278 21.9801C21.1097 21.2282 22.0071 20.1035 22.4778 18.7841L19.2918 18.2461L19.2878 18.2521C19.1751 18.2304 19.0584 18.2466 18.9558 18.2981C18.8317 18.3588 18.7355 18.4648 18.6871 18.5943C18.6388 18.7238 18.6419 18.8669 18.6958 18.9941L18.6918 19.0001ZM17.9218 22.8101C16.7758 23.0701 15.5818 23.0101 14.4678 22.6341L16.0218 19.8341C16.068 19.7484 16.1384 19.6768 16.2219 19.6267C16.3054 19.5767 16.4009 19.5502 16.4982 19.55C16.5956 19.5498 16.6912 19.5759 16.7749 19.6256C16.8586 19.6752 16.9274 19.7466 16.9738 19.8321H16.9858L18.5438 22.6361C18.3395 22.7043 18.1319 22.7624 17.9218 22.8101ZM13.0858 21.9661L14.3078 19.0181L14.2998 19.0061C14.3388 18.9166 14.3526 18.818 14.3396 18.7212C14.3267 18.6244 14.2875 18.5329 14.2264 18.4567C14.1652 18.3805 14.0844 18.3225 13.9927 18.2889C13.9009 18.2553 13.8017 18.2475 13.7058 18.2661L13.6998 18.2601L10.5418 18.7941C11.0173 20.1029 11.9116 21.2179 13.0858 21.9661ZM11.0918 13.3261L13.4938 15.4681L13.4918 15.4821C13.5651 15.5461 13.6196 15.6288 13.6496 15.7213C13.6796 15.8138 13.6839 15.9128 13.6622 16.0075C13.6404 16.1023 13.5934 16.1895 13.5261 16.2597C13.4587 16.3298 13.3737 16.3805 13.2798 16.4061L13.2778 16.4161L10.1978 17.3021C10.0447 15.9142 10.3593 14.5149 11.0918 13.3261ZM16.9918 15.6341H16.0078L15.3938 16.3941L15.6138 17.3461L16.4998 17.7721L17.3838 17.3481L17.6038 16.3961L16.9918 15.6341Z" fill="white"/>
</svg>
