<svg width="69" height="34" viewBox="0 0 69 34" fill="none" xmlns="http://www.w3.org/2000/svg">
<path fill-rule="evenodd" clip-rule="evenodd" d="M51.2195 0H17.7833C8.252 0 0.5 7.62733 0.5 17C0.5 26.3727 8.252 34 17.7805 34H51.2167C60.748 34 68.5 26.3727 68.5 17C68.5 7.62733 60.748 0 51.2195 0ZM34.7267 26.6532C34.1742 26.7665 33.5537 26.7863 33.1343 26.3528C33.0068 26.6362 32.749 26.571 32.5082 26.5115C32.4511 26.496 32.3934 26.4828 32.3353 26.4718C32.307 26.5427 32.2872 26.6078 32.2617 26.6787C31.3295 26.7382 30.6325 25.8032 30.1877 25.0977C29.7515 24.8763 29.3042 24.6777 28.8475 24.5027C28.3602 24.3043 27.87 24.106 27.4053 23.851C27.3952 24.0142 27.3914 24.1777 27.394 24.3412C27.3883 25.0325 27.3827 25.7663 26.7508 26.1857C26.731 27.0215 27.4195 27.013 28.0995 27.0073C28.686 26.9988 29.2612 26.9932 29.366 27.5287C29.319 27.5339 29.2717 27.5368 29.2243 27.5372C29.094 27.5372 28.9637 27.5372 28.8645 27.6335C28.533 27.948 28.1788 27.812 27.8105 27.6703C27.4705 27.54 27.122 27.404 26.7707 27.6137C26.5139 27.7427 26.266 27.8885 26.0283 28.05C25.5791 28.3876 25.0372 28.5795 24.4757 28.5997C24.4077 28.4977 24.436 28.4325 24.4927 28.373C24.5366 28.3227 24.5773 28.2697 24.6145 28.2143C24.6683 28.135 24.7137 28.0528 24.759 27.9763C24.912 27.7072 25.0508 27.4663 25.4447 27.353C24.9205 27.2708 24.47 27.5088 24.028 27.7412L24.0167 27.7468C23.9556 27.7795 23.8942 27.8116 23.8325 27.8432C23.5577 27.9565 23.3962 27.8687 23.2318 27.778C22.9995 27.6505 22.7558 27.5173 22.1665 27.8913C22.0532 27.8007 22.1098 27.7185 22.1722 27.6477C22.43 27.3388 22.7672 27.2935 23.1497 27.3105C22.1552 26.7637 21.4383 27.1518 20.8547 27.4663C20.339 27.744 19.9282 27.965 19.5202 27.4323C19.336 27.4805 19.2312 27.6108 19.1292 27.7383C19.0867 27.795 19.0442 27.846 18.996 27.8942C18.8968 27.7837 18.9195 27.659 18.945 27.5315L18.9592 27.4578C18.9638 27.4297 18.9666 27.4013 18.9677 27.3728L18.8912 27.3445C18.741 27.2822 18.5937 27.2198 18.6362 26.9932C18.3047 26.8798 18.0695 27.0782 17.8258 27.2595C17.6728 27.1433 17.7975 26.9903 17.9165 26.8487C17.9675 26.7936 18.0105 26.7316 18.044 26.6645C18.1517 26.4803 18.3358 26.4747 18.5143 26.469C18.6673 26.4662 18.8203 26.4605 18.9252 26.35C19.302 26.1375 19.7667 26.248 20.2342 26.3585C20.577 26.4378 20.9198 26.52 21.2372 26.4775C21.8123 26.5483 22.5235 25.9675 22.2345 25.3867C21.7075 24.7265 21.7132 23.8907 21.716 23.0832V22.678C21.6707 22.372 21.2287 22.0178 20.7867 21.6637C20.4467 21.3945 20.1067 21.1225 19.9423 20.8703C19.489 20.3688 19.1348 19.788 18.7835 19.2128L18.741 19.1448C18.1403 18.0002 17.8995 16.7082 17.6587 15.419C17.3668 13.872 17.0778 12.3307 16.1683 11.0557C15.4147 11.4637 14.4343 11.2682 13.7855 10.7213C13.4455 11.0245 13.4172 11.4212 13.3945 11.8433L13.3917 11.883C12.5502 11.0557 12.655 9.49167 13.3265 8.568C13.6013 8.20533 13.93 7.90783 14.2955 7.64433C14.3805 7.58483 14.4088 7.52533 14.406 7.43467C15.0718 4.488 19.608 5.0575 21.0417 7.14283C21.5148 7.7265 21.8378 8.39517 22.1608 9.06383C22.549 9.86567 22.9343 10.6675 23.5775 11.3163C24.2008 11.9878 24.8582 12.6282 25.5155 13.2685C26.5327 14.2602 27.5498 15.249 28.4395 16.354C29.8278 18.0172 30.8167 19.9693 31.6808 21.9357C31.8225 22.1963 31.9075 22.4825 31.9925 22.7658C32.1172 23.1908 32.2447 23.613 32.5592 23.9473C32.6328 24.0465 32.7972 24.1967 32.9813 24.3667C33.4233 24.7718 33.9928 25.296 33.8002 25.5255C33.8257 25.5793 33.8767 25.6388 33.9418 25.6955C34.0325 25.7748 34.1515 25.8598 34.2705 25.9448C34.6162 26.1913 34.9817 26.4492 34.7267 26.6532ZM56.7643 16.609L54.2087 19.1222C53.5287 19.7937 52.6872 20.2923 51.7748 20.5672L51.7267 20.5813L51.7097 20.6238C51.4143 21.3935 50.9562 22.0903 50.3667 22.6667L47.811 25.1827C46.6975 26.2792 45.2157 26.8827 43.6347 26.8827C42.0565 26.8827 40.5747 26.2792 39.4583 25.1827C38.9118 24.6471 38.4775 24.0079 38.1811 23.3025C37.8847 22.597 37.732 21.8395 37.732 21.0743C37.732 20.3091 37.8847 19.5516 38.1811 18.8462C38.4775 18.1407 38.9118 17.5015 39.4583 16.966L42.014 14.45C42.6997 13.7757 43.5185 13.2912 44.4478 13.0107L44.4932 12.9993L44.5102 12.954C44.8077 12.1833 45.261 11.492 45.856 10.9027L48.4117 8.3895C49.5252 7.293 51.0098 6.6895 52.588 6.6895C54.169 6.6895 55.648 7.293 56.7643 8.3895C57.8807 9.486 58.4927 10.9452 58.4927 12.4978C58.4927 14.0533 57.8807 15.5125 56.7643 16.6062V16.609Z" fill="#FEFEFE"/>
</svg>
