<svg width="35" height="34" viewBox="0 0 35 34" fill="none" xmlns="http://www.w3.org/2000/svg">
<path d="M22.9608 24.2562C19.9971 25.5652 16.787 25.0282 15.5516 24.5962C15.5516 24.8937 15.5375 25.8102 15.4836 27.1178C15.4298 28.4268 15.0133 29.2528 14.8107 29.5035C14.8334 30.3209 14.8518 32.1059 14.7441 32.7052C14.6409 33.1899 14.4078 33.6375 14.0698 34H12.2508C12.4123 33.1826 13.0371 32.6598 13.3289 32.5012C13.4904 30.8111 13.1731 29.3434 12.9917 28.8221C12.8132 29.4582 12.3726 30.9329 12.0496 31.7517C11.7851 32.4021 11.4462 33.0196 11.0396 33.592H9.6923C9.6243 32.7732 10.0748 32.5012 10.3652 32.5012C10.4998 32.2504 10.8228 31.4656 11.0396 30.3195C11.2549 29.1763 10.9489 27.0272 10.7704 26.0964V23.1667C8.61422 22.0079 7.80672 20.8491 7.26697 19.5543C6.8363 18.5201 6.95247 16.9433 7.0658 16.2846C6.9298 16.0352 6.53739 15.3992 6.39147 14.5137C6.1903 13.2869 6.30222 12.4015 6.39147 11.9241C6.25689 11.7881 5.98772 11.0925 5.98772 9.40242C5.98772 7.71375 6.48214 6.83683 6.72864 6.60875V5.85933C5.78514 5.79133 4.84305 5.38333 4.3033 4.83792C3.76497 4.2925 4.16872 3.47508 4.50589 3.20308C4.84305 2.92967 5.1788 3.13367 5.65055 2.99767C6.1223 2.86167 6.52605 2.72567 6.72722 2.31767C6.89155 1.98758 6.5728 0.634667 6.39289 0C7.20039 0.109083 7.71747 0.817417 7.87472 1.15883V0C8.8848 0.477417 10.7038 1.63483 11.3101 4.1565C11.7946 6.17383 12.1403 10.4026 12.2522 12.2641C14.8348 12.2867 18.113 11.8958 21.0766 12.5375C23.7697 13.1212 24.9824 14.3083 26.3962 14.3083C27.8115 14.3083 28.6204 13.4909 29.6291 14.1723C30.6406 14.8537 31.1789 16.762 31.0443 18.1928C30.9366 19.3375 30.0569 19.7143 29.6305 19.7597C29.0921 21.5588 29.6305 23.2801 29.9662 23.9162V26.5044C30.1235 26.7311 30.438 27.4323 30.438 28.4127C30.438 29.3944 30.1235 30.0475 29.9662 30.2529C30.2354 31.7787 29.8529 33.3412 29.6291 33.932H27.8115C28.0268 33.3866 28.3951 33.2506 28.5524 33.2506C28.8754 31.5605 28.6416 30.0022 28.4844 29.4355C27.4616 28.8348 26.8014 27.778 26.5988 27.3232C26.6215 27.7086 26.5577 28.781 26.1271 29.9795C25.6964 31.1794 25.0504 31.8877 24.7812 32.0917V33.5226H22.9622C22.9622 32.6513 23.4552 32.4785 23.7031 32.5012C24.0176 31.9345 24.7798 31.0703 24.7798 29.3675C24.7798 27.9296 23.7697 27.2538 23.0288 25.9604C22.6775 25.3456 22.8489 24.5749 22.9622 24.2562H22.9608Z" fill="url(#paint0_linear_1219_3078)"/>
<defs>
<linearGradient id="paint0_linear_1219_3078" x1="6.19597" y1="2.86167" x2="35.368" y2="27.3091" gradientUnits="userSpaceOnUse">
<stop offset="0.062" stop-color="#F6DCD9"/>
<stop offset="0.326" stop-color="#FFA5EA"/>
<stop offset="0.589" stop-color="#45DFF8"/>
<stop offset="1" stop-color="#BC8DEB"/>
</linearGradient>
</defs>
</svg>
