<svg width="35" height="34" viewBox="0 0 35 34" fill="none" xmlns="http://www.w3.org/2000/svg">
<g clip-path="url(#clip0_1214_2771)">
<path d="M5.35645 4.81665H10.2142V9.67298H5.35645V4.81665ZM24.7846 4.81665H29.6438V9.67298H24.7846V4.81665Z" fill="#FFD700"/>
<path d="M5.35645 9.67297H15.0705V14.5307H5.35786L5.35645 9.67297ZM19.9283 9.67297H29.6424V14.5307H19.9283V9.67297Z" fill="#FFAF00"/>
<path d="M5.35645 14.5322H29.6438V19.3886H5.35645V14.5322Z" fill="#FF8205"/>
<path d="M5.35645 19.3885H10.2142V24.2449H5.35645V19.3885ZM15.0719 19.3885H19.9297V24.2449H15.0719V19.3885ZM24.7846 19.3885H29.6438V24.2449H24.7846V19.3885Z" fill="#FA500F"/>
<path d="M0.5 24.2449H15.0718V29.1026H0.5V24.2449ZM19.9282 24.2449H34.5V29.1026H19.9282V24.2449Z" fill="#E10500"/>
</g>
<defs>
<clipPath id="clip0_1214_2771">
<rect width="34" height="34" fill="white" transform="translate(0.5)"/>
</clipPath>
</defs>
</svg>
