<svg width="30" height="32" viewBox="0 0 30 32" fill="none" xmlns="http://www.w3.org/2000/svg">
<path d="M13.6958 0.406322C14.4858 -0.045877 15.5148 -0.0479196 16.3042 0.406322C20.2752 2.65018 24.2475 4.89052 28.2179 7.13574C28.9647 7.55639 29.4642 8.38749 29.4566 9.24797V22.7479C29.4622 23.644 28.9133 24.4949 28.1254 24.9061C24.1674 27.1376 20.2114 29.3718 16.2541 31.6033C15.4478 32.0643 14.3981 32.0288 13.617 31.53C12.4303 30.8421 11.2417 30.1576 10.055 29.4704C9.81247 29.3258 9.53911 29.2107 9.36787 28.9756C9.51925 28.7716 9.78989 28.7462 10.0098 28.6571C10.5051 28.4996 10.96 28.2468 11.4151 28.0014C11.5301 27.9227 11.6706 27.9529 11.7809 28.0233C12.7956 28.6051 13.8013 29.2038 14.8194 29.7801C15.0366 29.9054 15.2566 29.739 15.4422 29.6355C19.3262 27.4403 23.215 25.2534 27.0984 23.0576C27.2423 22.9883 27.3218 22.8356 27.3101 22.678C27.3128 18.2246 27.3108 13.7705 27.3115 9.31719C27.3279 9.13835 27.2244 8.97392 27.0627 8.90073C23.1185 6.67946 19.1762 4.45478 15.2326 2.23293C15.1643 2.18596 15.0833 2.16076 15.0004 2.16063C14.9175 2.16051 14.8365 2.18548 14.768 2.23225C10.8244 4.45478 6.88288 6.6815 2.93928 8.90266C2.77814 8.97597 2.67 9.13767 2.68918 9.31719C2.68986 13.7705 2.68918 18.2246 2.68918 22.6787C2.68234 22.7556 2.69923 22.8327 2.73758 22.8997C2.77592 22.9667 2.83388 23.0204 2.90365 23.0535C3.95601 23.6502 5.00975 24.2428 6.0628 24.8375C6.65604 25.1568 7.38444 25.3466 8.03806 25.1019C8.61485 24.8951 9.01916 24.3065 9.00816 23.694C9.0136 19.2667 9.00543 14.8387 9.01224 10.412C8.99783 10.2155 9.18427 10.0531 9.37536 10.0716C9.88101 10.0682 10.3873 10.0648 10.893 10.0729C11.104 10.0682 11.2493 10.2798 11.2232 10.4778C11.2211 14.9332 11.2286 19.3887 11.2198 23.8441C11.2212 25.0315 10.7333 26.3235 9.63499 26.9045C8.28192 27.6054 6.60952 27.4568 5.27278 26.7846C4.11556 26.2071 3.01122 25.5254 1.87454 24.9066C1.08464 24.4978 0.538483 23.6434 0.544043 22.748V9.24797C0.535759 8.36967 1.05514 7.52349 1.82518 7.10896C5.78251 4.87566 9.73916 2.64065 13.6958 0.406322Z" fill="#8CC84B"/>
<path d="M17.1481 9.75787C18.8741 9.64678 20.7218 9.69206 22.2749 10.5423C23.4774 11.1939 24.1441 12.5614 24.1653 13.8973C24.1317 14.0775 23.9433 14.1769 23.7713 14.1646C23.2706 14.1639 22.7697 14.1714 22.2689 14.1612C22.0565 14.1693 21.933 13.9735 21.9064 13.7857C21.7625 13.1465 21.4139 12.5134 20.8122 12.2051C19.8887 11.7427 18.8178 11.7659 17.8107 11.7756C17.0755 11.8146 16.2849 11.8783 15.662 12.3106C15.1839 12.6381 15.0386 13.2992 15.2093 13.8316C15.3702 14.2139 15.8115 14.3373 16.1726 14.451C18.2526 14.995 20.4567 14.9408 22.497 15.6568C23.3417 15.9486 24.168 16.516 24.4572 17.4004C24.8354 18.5858 24.6696 20.0026 23.8262 20.9542C23.1423 21.7373 22.1462 22.1635 21.1528 22.395C19.8311 22.6897 18.4595 22.6972 17.1174 22.5664C15.8553 22.4225 14.5419 22.0909 13.5676 21.231C12.7345 20.5076 12.3276 19.3805 12.368 18.2926C12.3776 18.1088 12.5605 17.9807 12.7365 17.9958C13.2408 17.9917 13.7451 17.9904 14.2494 17.9965C14.4508 17.9821 14.6001 18.1562 14.6105 18.346C14.7035 18.955 14.9324 19.5942 15.4635 19.9553C16.4884 20.6165 17.7744 20.5713 18.9479 20.5898C19.9202 20.5466 21.0116 20.5336 21.805 19.891C22.2236 19.5245 22.3477 18.9112 22.2345 18.3837C22.112 17.9383 21.646 17.7308 21.2459 17.595C19.1926 16.9455 16.9638 17.1812 14.9304 16.4467C14.1048 16.1549 13.3065 15.6033 12.9894 14.7552C12.5468 13.5549 12.7496 12.0702 13.6813 11.1507C14.5898 10.2361 15.9012 9.88394 17.1481 9.75787Z" fill="#8CC84B"/>
</svg>
