<svg width="31" height="30" viewBox="0 0 31 30" fill="none" xmlns="http://www.w3.org/2000/svg">
<path fill-rule="evenodd" clip-rule="evenodd" d="M28.5217 12.2782C28.8622 11.2687 28.9803 10.1975 28.8678 9.13804C28.7552 8.07861 28.4148 7.05607 27.8699 6.14058C26.2103 3.29062 22.8761 1.82337 19.6197 2.51336C18.8984 1.71483 18.0163 1.07804 17.0312 0.644882C16.0462 0.211727 14.9806 -0.00797695 13.9046 0.000221267C10.5759 -0.00659681 7.62215 2.10837 6.59804 5.23378C5.54536 5.44449 4.54952 5.87663 3.67657 6.50151C2.80363 7.12639 2.07354 7.92974 1.53473 8.85827C0.720323 10.2413 0.372258 11.8496 0.541934 13.4456C0.71161 15.0417 1.39003 16.5408 2.47703 17.7218C2.13613 18.7314 2.01775 19.8028 2.13003 20.8625C2.24231 21.9222 2.58259 22.945 3.1275 23.8608C4.78708 26.7107 8.12125 28.1766 11.3777 27.488C12.0987 28.2864 12.9807 28.923 13.9655 29.3559C14.9503 29.7889 16.0157 30.0083 17.0915 29.9998C20.4229 30.0079 23.378 27.8916 24.4021 24.7635C25.4555 24.5528 26.452 24.1204 27.3255 23.495C28.1989 22.8697 28.9293 22.0656 29.4681 21.1363C30.281 19.7533 30.6279 18.1457 30.4578 16.5506C30.2876 14.9555 29.6094 13.4573 28.5231 12.2769L28.5217 12.2782ZM17.0928 28.0389C15.7627 28.0421 14.4729 27.5821 13.445 26.738C13.4914 26.7134 13.5718 26.6698 13.625 26.6371L19.6797 23.1871C19.8308 23.1028 19.9566 22.9795 20.0439 22.8301C20.1312 22.6807 20.1768 22.5106 20.1761 22.3376V13.9159L22.7357 15.3736C22.763 15.3873 22.7807 15.4132 22.7848 15.4418V22.4167C22.7807 25.5176 20.2347 28.0321 17.0928 28.0389ZM4.85118 22.8817C4.18383 21.7466 3.94305 20.4107 4.17207 19.114C4.21571 19.1413 4.2948 19.189 4.35071 19.2204L10.4054 22.6703C10.7122 22.8476 11.0927 22.8476 11.4009 22.6703L18.792 18.4595V21.3749C18.7926 21.3899 18.7895 21.4047 18.7831 21.4183C18.7767 21.4318 18.7671 21.4436 18.7551 21.4526L12.635 24.938C9.90902 26.4871 6.42758 25.5653 4.85254 22.879L4.85118 22.8817ZM3.25705 9.84007C3.92701 8.69736 4.9766 7.82587 6.22303 7.37738L6.2203 7.58329V14.4832C6.21947 14.6564 6.26507 14.8267 6.35236 14.9764C6.43966 15.126 6.56546 15.2495 6.71668 15.3341L14.1078 19.5436L11.5495 21.0026C11.5369 21.0107 11.5224 21.0156 11.5074 21.0168C11.4924 21.018 11.4774 21.0155 11.4636 21.0094L5.3421 17.52C2.62158 15.9654 1.68883 12.5318 3.25568 9.8428L3.25705 9.84007ZM24.2807 14.6673L16.8896 10.4564L19.4479 9.00008C19.4604 8.99175 19.4748 8.98664 19.4898 8.98521C19.5048 8.98378 19.5199 8.98608 19.5338 8.9919L25.6553 12.4787C28.3799 14.0332 29.314 17.4722 27.7404 20.1599C27.0698 21.3019 26.0211 22.1735 24.7757 22.624V15.5182C24.7766 15.3453 24.7312 15.1753 24.6441 15.0259C24.5571 14.8765 24.4316 14.7531 24.2807 14.6686V14.6673ZM26.8267 10.886C26.7671 10.8497 26.7071 10.8143 26.6467 10.7796L20.592 7.32965C20.4408 7.24267 20.2694 7.19689 20.0949 7.19689C19.9205 7.19689 19.7491 7.24267 19.5979 7.32965L12.2068 11.5405V8.62509C12.2062 8.61012 12.2092 8.59523 12.2157 8.5817C12.2221 8.56816 12.2317 8.55638 12.2436 8.54736L18.3624 5.06333C21.0897 3.51289 24.5739 4.43606 26.1449 7.12647C26.809 8.26237 27.0517 9.59326 26.8267 10.886ZM10.8159 16.0813L8.25626 14.625C8.2429 14.6185 8.23139 14.6087 8.22282 14.5965C8.21424 14.5843 8.20885 14.5702 8.20717 14.5555V7.58056C8.20853 4.47561 10.7613 1.95974 13.9087 1.96246C15.2396 1.96246 16.5269 2.42337 17.551 3.26335C17.5047 3.2879 17.4256 3.33153 17.3724 3.3629L11.3177 6.81284C11.1663 6.89699 11.0403 7.0202 10.9528 7.16962C10.8652 7.31904 10.8194 7.4892 10.82 7.66238L10.8159 16.08V16.0813ZM12.2068 13.125L15.4987 11.25L18.7906 13.125V16.875L15.4987 18.7499L12.2054 16.875V13.125H12.2068Z" fill="#F5F5F5"/>
</svg>
