<svg width="34" height="34" viewBox="0 0 34 34" fill="none" xmlns="http://www.w3.org/2000/svg">
<path fill-rule="evenodd" clip-rule="evenodd" d="M13.8299 2.125C11.4955 2.125 9.60314 3.95731 9.60314 6.21759V9.05093H16.9187V9.83797H6.35177C4.01739 9.83797 2.125 11.6703 2.125 13.9305V20.0695C2.125 22.3297 4.01739 24.162 6.35177 24.162H8.7903V20.6991C8.7903 18.4388 10.6827 16.6065 13.0171 16.6065H20.8203C22.7956 16.6065 24.3968 15.0561 24.3968 13.1436V6.21759C24.3968 3.95731 22.5045 2.125 20.1701 2.125H13.8299ZM12.8545 7.16204C13.6626 7.16204 14.3176 6.52777 14.3176 5.74537C14.3176 4.96297 13.6626 4.3287 12.8545 4.3287C12.0464 4.3287 11.3914 4.96297 11.3914 5.74537C11.3914 6.52777 12.0464 7.16204 12.8545 7.16204Z" fill="url(#paint0_linear_1454_4618)"/>
<path fill-rule="evenodd" clip-rule="evenodd" d="M20.1694 31.8749C22.5038 31.8749 24.3963 30.0426 24.3963 27.7824V24.949H17.0806V24.162H27.6476C29.982 24.162 31.8744 22.3296 31.8744 20.0694V13.9304C31.8744 11.6702 29.982 9.83789 27.6476 9.83789H25.2091V13.3008C25.2091 15.5612 23.3167 17.3935 20.9824 17.3935H13.179C11.2037 17.3935 9.60254 18.9439 9.60254 20.8564V27.7824C9.60254 30.0426 11.495 31.8749 13.8293 31.8749H20.1694ZM21.1449 26.8379C20.3368 26.8379 19.6817 27.4721 19.6817 28.2545C19.6817 29.037 20.3368 29.6712 21.1449 29.6712C21.9529 29.6712 22.608 29.037 22.608 28.2545C22.608 27.4721 21.9529 26.8379 21.1449 26.8379Z" fill="url(#paint1_linear_1454_4618)"/>
<defs>
<linearGradient id="paint0_linear_1454_4618" x1="13.261" y1="2.125" x2="13.261" y2="24.162" gradientUnits="userSpaceOnUse">
<stop stop-color="#327EBD"/>
<stop offset="1" stop-color="#1565A7"/>
</linearGradient>
<linearGradient id="paint1_linear_1454_4618" x1="20.7385" y1="9.83789" x2="20.7385" y2="31.8749" gradientUnits="userSpaceOnUse">
<stop stop-color="#FFDA4B"/>
<stop offset="1" stop-color="#F9C600"/>
</linearGradient>
</defs>
</svg>
