<svg width="24" height="24" viewBox="0 0 24 24" fill="none" xmlns="http://www.w3.org/2000/svg">
<path d="M18.989 6.97598C22.8826 10.8696 22.8826 17.1155 18.989 21.0361C15.1766 24.9297 8.90359 24.9297 5.01002 21.0361C1.11645 17.1425 1.11645 10.8696 5.01002 6.97598L11.986 0V3.48799L11.3371 4.13692L6.71346 8.76053C3.79328 11.6266 3.79328 16.3314 6.71346 19.2515C9.57956 22.1717 14.2843 22.1717 17.2045 19.2515C20.1246 16.3854 20.1246 11.6807 17.2045 8.76053L18.989 6.97598ZM15.501 6.54336C14.7842 6.54336 14.2032 5.96229 14.2032 5.2455C14.2032 4.52872 14.7842 3.94765 15.501 3.94765C16.2178 3.94765 16.7989 4.52872 16.7989 5.2455C16.7989 5.96229 16.2178 6.54336 15.501 6.54336Z" fill="#EE4C2C"/>
</svg>
