<svg width="34" height="34" viewBox="0 0 34 34" fill="none" xmlns="http://www.w3.org/2000/svg">
<path d="M17 19.6284C18.467 19.6284 19.6562 18.4392 19.6562 16.9722C19.6562 15.5052 18.467 14.3159 17 14.3159C15.533 14.3159 14.3438 15.5052 14.3438 16.9722C14.3438 18.4392 15.533 19.6284 17 19.6284Z" fill="#00D8FF"/>
<path d="M17 23.0628C13.8073 23.1401 10.6227 22.7097 7.565 21.7878C6.15254 21.3401 4.83516 20.6348 3.67944 19.7075C3.23843 19.3907 2.87116 18.9823 2.60285 18.5102C2.33454 18.0381 2.17153 17.5136 2.125 16.9726C2.125 15.2163 4.0545 13.495 7.28662 12.3688C10.426 11.3708 13.7062 10.8872 17 10.9365C20.2499 10.8911 23.4861 11.366 26.5859 12.3433C27.9462 12.777 29.2189 13.4482 30.345 14.3259C30.7785 14.6279 31.1402 15.0216 31.4046 15.4789C31.669 15.9363 31.8296 16.4462 31.875 16.9726C31.875 18.798 29.7181 20.6478 26.2438 21.7974C23.2453 22.6892 20.1278 23.116 17 23.0628ZM17 12.2073C13.8487 12.1652 10.7109 12.625 7.70419 13.5694C4.72919 14.6075 3.39575 16.027 3.39575 16.9694C3.39575 17.9554 4.82906 19.5056 7.97619 20.5819C10.9013 21.4594 13.947 21.8678 17 21.7921C19.9924 21.8456 22.9754 21.4407 25.8453 20.5915C29.1125 19.5088 30.6 17.9565 30.6 16.9726C30.5464 16.635 30.4233 16.3121 30.2386 16.0244C30.0539 15.7368 29.8116 15.4905 29.5269 15.3013C28.5194 14.5226 27.3824 13.9277 26.1683 13.5439C23.2029 12.6129 20.1078 12.1617 17 12.2073Z" fill="#00D8FF"/>
<path d="M10.9646 30.2205C10.4689 30.2319 9.97912 30.1116 9.54509 29.872C8.02359 28.9944 7.49659 26.4635 8.13515 23.1007C8.83921 19.8825 10.0591 16.7993 11.7476 13.9706C13.3315 11.1328 15.3593 8.56667 17.754 6.36951C18.8092 5.40763 20.0265 4.64033 21.3495 4.10319C21.828 3.87894 22.3499 3.7627 22.8784 3.7627C23.4068 3.7627 23.9288 3.87894 24.4073 4.10319C25.9894 5.01482 26.5132 7.80707 25.7748 11.3909C25.049 14.4345 23.8607 17.3488 22.2515 20.0322C20.7234 22.8365 18.7595 25.3803 16.4333 27.5685C15.3397 28.5681 14.0706 29.3566 12.6901 29.8943C12.1374 30.0995 11.554 30.2097 10.9646 30.2205ZM12.8484 14.6018C11.2378 17.3104 10.0685 20.2582 9.38465 23.3344C8.79709 26.4316 9.36127 28.2942 10.1815 28.7681C11.0315 29.26 13.0949 28.7936 15.6003 26.6048C17.8209 24.5085 19.6954 22.0735 21.154 19.3904C22.6956 16.8251 23.8354 14.0388 24.5338 11.1284C25.2286 7.75501 24.6283 5.68951 23.7762 5.19863C23.4568 5.07626 23.1155 5.02148 22.7739 5.03776C22.4323 5.05403 22.0978 5.14101 21.7915 5.29319C20.6139 5.77912 19.5312 6.46899 18.5933 7.33107C16.3054 9.43566 14.3685 11.8923 12.8558 14.6081L12.8484 14.6018Z" fill="#00D8FF"/>
<path d="M23.0318 30.2346C21.5921 30.2346 19.7635 29.3633 17.8595 27.726C15.4229 25.5089 13.3609 22.9123 11.7534 20.0367C10.086 17.247 8.87576 14.2084 8.16849 11.0363C7.86175 9.64068 7.80491 8.20174 8.00061 6.78629C8.04586 6.26121 8.20574 5.75245 8.469 5.29588C8.73225 4.83931 9.09247 4.44606 9.52424 4.14385C11.1042 3.22904 13.7849 4.16935 16.5208 6.59822C18.7952 8.7468 20.7266 11.2315 22.2477 13.9656C23.914 16.6902 25.1369 19.6622 25.8708 22.7705C26.1907 24.2173 26.2401 25.7109 26.0164 27.1757C25.9631 27.7158 25.7937 28.2381 25.5197 28.7067C25.2457 29.1753 24.8736 29.5791 24.429 29.8903C24.002 30.127 23.5198 30.2458 23.0318 30.2346ZM12.853 19.3971C14.3952 22.1452 16.3649 24.6303 18.6883 26.7592C21.0779 28.8151 22.9734 29.2571 23.7883 28.7779C24.6383 28.2838 25.2652 26.2672 24.6192 23.0043C23.9114 20.0367 22.7384 17.1997 21.1437 14.5988C19.6922 11.982 17.8486 9.60283 15.6772 7.54385C13.1017 5.25735 11.0128 4.74629 10.1617 5.23929C9.89648 5.45485 9.6788 5.72307 9.52244 6.02701C9.36608 6.33095 9.27443 6.66401 9.2533 7.00516C9.08437 8.2675 9.1394 9.54975 9.41586 10.793C10.0962 13.8266 11.2569 16.7319 12.8541 19.3992L12.853 19.3971Z" fill="#00D8FF"/>
</svg>
