<svg width="32" height="32" viewBox="0 0 32 32" fill="none" xmlns="http://www.w3.org/2000/svg">
<g clip-path="url(#clip0_2432_65611)">
<rect width="32" height="32" fill="white"/>
<path d="M29.2691 0.000410173C29.351 -0.0045278 29.4287 0.0354313 29.4694 0.10342C29.5101 0.171409 29.5068 0.25558 29.4607 0.320402L21.1735 11.063C21.1128 11.1284 21.0256 11.1659 20.934 11.1659C20.8424 11.1659 20.7552 11.1284 20.6945 11.063L17.7724 7.95449C17.701 7.88379 17.5999 7.84783 17.4974 7.85672C17.395 7.8656 17.3023 7.91838 17.2455 8.00021L15.4731 10.1487C15.417 10.2697 15.4354 10.4103 15.521 10.5144L20.7903 15.7257C20.851 15.7911 20.9382 15.8286 21.0298 15.8286C21.1214 15.8286 21.2086 15.7911 21.2693 15.7257L31.6164 4.61744C31.6774 4.55478 31.7721 4.5335 31.8561 4.56355C31.9401 4.5936 31.9967 4.66904 31.9996 4.75458V31.771C32.0035 31.8327 31.9796 31.8931 31.9338 31.9368C31.888 31.9805 31.8247 32.0034 31.7601 31.9996H0.239939C0.175282 32.0034 0.11203 31.9805 0.0662242 31.9368C0.0204188 31.8931 -0.00353991 31.8327 0.000424298 31.771V0.228976C-0.00353991 0.167274 0.0204188 0.106914 0.0662242 0.0632022C0.11203 0.0194907 0.175282 -0.00337282 0.239939 0.000410173H29.2691ZM21.1256 18.2399C19.6995 18.216 18.3251 18.7493 17.321 19.716C16.317 20.6828 15.7705 21.9992 15.8084 23.3598C15.8084 26.514 18.2035 28.5254 21.3172 28.5254C22.7586 28.5596 24.172 28.1421 25.3411 27.3369C25.4494 27.243 25.4698 27.0876 25.389 26.9712L24.5267 25.7369C24.4298 25.6308 24.2648 25.6111 24.1435 25.6912C23.394 26.1796 22.512 26.4496 21.6046 26.4683C19.928 26.4683 18.8742 25.4626 18.6826 24.2741C18.686 24.225 18.727 24.186 18.7784 24.1827H26.0117C26.1659 24.1727 26.2887 24.0555 26.2991 23.9084V23.6341C26.2991 20.4342 24.1914 18.2399 21.1256 18.2399ZM13.9881 16.5028C12.5331 15.3679 10.6921 14.7823 8.81456 14.8572C5.55716 14.8572 3.54524 16.6857 3.54524 18.8799C3.54524 23.8627 11.4971 22.2627 11.4971 24.5941C11.4971 25.3255 10.7307 26.0569 9.10198 26.0569C7.55513 26.0691 6.06273 25.5125 4.93443 24.5026C4.86706 24.4425 4.77581 24.4131 4.68405 24.4219C4.59229 24.4306 4.50895 24.4767 4.4554 24.5484L3.20992 26.194C3.12911 26.3105 3.14945 26.4658 3.25782 26.5597C4.5512 27.7026 6.37151 28.4797 8.91037 28.4797C12.6468 28.4797 14.4671 26.6512 14.5629 24.2741C14.5629 19.3371 6.61103 20.7542 6.61103 18.6514C6.61103 17.8742 7.32957 17.3257 8.57505 17.3257C9.948 17.3077 11.2851 17.7438 12.3594 18.5599C12.4225 18.6093 12.5039 18.6323 12.585 18.6237C12.6662 18.6151 12.7402 18.5756 12.7905 18.5142L14.036 16.9143C14.0877 16.854 14.1118 16.7764 14.1028 16.6989C14.0938 16.6215 14.0524 16.5508 13.9881 16.5028ZM21.1735 20.2513C22.4764 20.1818 23.6012 21.1134 23.7124 22.3541C23.7089 22.4032 23.668 22.4422 23.6166 22.4456H18.7305C18.6791 22.4422 18.6381 22.4032 18.6347 22.3541C18.7948 21.1377 19.889 20.2315 21.1735 20.2513Z" fill="#2CB134"/>
</g>
<defs>
<clipPath id="clip0_2432_65611">
<rect width="32" height="32" fill="white"/>
</clipPath>
</defs>
</svg>
