<svg width="33" height="32" viewBox="0 0 33 32" fill="none" xmlns="http://www.w3.org/2000/svg">
<path fill-rule="evenodd" clip-rule="evenodd" d="M8.60908 4.79018L16.5 4L24.3909 4.79018L30.4999 12.558L16.5 27.9999L2.5 12.558L8.60908 4.79018Z" fill="#FDB300"/>
<path d="M8.17063 12.5581L16.4999 28.0001L2.5 12.5581H8.17063ZM24.8294 12.5581L16.4999 28.0001L30.5 12.5581" fill="#EA6C00"/>
<path fill-rule="evenodd" clip-rule="evenodd" d="M8.1709 12.5581H24.8294L16.5002 28.0001" fill="#FDAD00"/>
<path d="M16.5002 4L8.60928 4.79004L8.1709 12.5579L16.5002 4ZM16.5002 4L24.3912 4.79004L24.8296 12.5579" fill="#FDD231"/>
<path d="M30.5 12.5579L24.391 4.79004L24.8294 12.5579H30.5ZM2.5 12.5579L8.60901 4.79004L8.17063 12.5579" fill="#FDAD00"/>
<path fill-rule="evenodd" clip-rule="evenodd" d="M16.5002 4L8.1709 12.5579H24.8294" fill="#FEEEB7"/>
</svg>
