<svg width="24" height="24" viewBox="0 0 24 24" fill="none" xmlns="http://www.w3.org/2000/svg">
<path d="M14.8862 3.29964C14.8862 3.29964 19.9154 6.17459 21.2315 10.7418C22.4174 14.8674 21.4677 16.8363 21.4677 16.8363C22.0742 17.4971 22.5521 18.2653 22.8769 19.1013C23.2031 19.6385 23.3948 20.2465 23.4356 20.8737C23.4765 21.5008 23.3653 22.1286 23.1115 22.7035C23.1115 22.7035 23.0306 21.0209 20.5229 20.6723C18.2247 20.3487 17.3891 22.5862 12.9998 22.4778C10.5678 22.4315 8.18406 21.791 6.0564 20.6121C3.92874 19.4332 2.12175 17.7518 0.792969 15.7143C2.93745 16.8841 5.74688 18.7001 9.24552 18.421C12.7442 18.142 13.4746 17.0669 13.4746 17.0669C9.54199 13.9549 6.06101 10.3114 3.1316 6.24092C5.88197 8.54234 12.6948 13.1225 12.5363 13.006C10.0443 10.571 7.76426 7.92812 5.72099 5.10599C5.72099 5.10599 15.9427 13.51 16.7654 13.4566C17.1035 12.7601 18.8516 9.1547 14.8854 3.29883L14.8862 3.29964Z" fill="url(#paint0_linear_2295_12077)"/>
<defs>
<linearGradient id="paint0_linear_2295_12077" x1="12.474" y1="11.0654" x2="12.0463" y2="22.7133" gradientUnits="userSpaceOnUse">
<stop stop-color="#F88535"/>
<stop offset="1" stop-color="#FD2221"/>
</linearGradient>
</defs>
</svg>
