<svg width="35" height="34" viewBox="0 0 35 34" fill="none" xmlns="http://www.w3.org/2000/svg">
<path d="M17.6768 0.708252H16.6143V7.08325H17.6768V0.708252Z" fill="#78909C"/>
<path d="M20.333 3.3645H13.958V4.427H20.333V3.3645Z" fill="#78909C"/>
<path d="M30.4268 13.4583H29.3643V19.8333H30.4268V13.4583Z" fill="#5C6BC0"/>
<path d="M33.083 16.1145H26.708V17.177H33.083V16.1145Z" fill="#5C6BC0"/>
<path d="M4.92676 13.4583H3.86426V19.8333H4.92676V13.4583Z" fill="#78909C"/>
<path d="M7.58301 16.1145H1.20801V17.177H7.58301V16.1145Z" fill="#78909C"/>
<path d="M17.6768 26.2083H16.6143V32.5833H17.6768V26.2083Z" fill="#5C6BC0"/>
<path d="M20.333 28.8645H13.958V29.927H20.333V28.8645Z" fill="#5C6BC0"/>
<path d="M23.1667 15.5833H11.125V17.7083H23.1667V15.5833Z" fill="#E8762D"/>
<path d="M18.208 10.625H16.083V22.6667H18.208V10.625Z" fill="#E8762D"/>
<path d="M9.70866 4.25H8.29199V14.1667H9.70866V4.25Z" fill="#FFA000"/>
<path d="M13.9587 8.5H4.04199V9.91667H13.9587V8.5Z" fill="#FFA000"/>
<path d="M25.9997 4.25H24.583V14.1667H25.9997V4.25Z" fill="#607D8B"/>
<path d="M30.2497 8.5H20.333V9.91667H30.2497V8.5Z" fill="#607D8B"/>
<path d="M9.70866 19.125H8.29199V29.0417H9.70866V19.125Z" fill="#C62828"/>
<path d="M13.9587 23.375H4.04199V24.7917H13.9587V23.375Z" fill="#C62828"/>
<path d="M25.9997 19.125H24.583V29.0417H25.9997V19.125Z" fill="#0D47A1"/>
<path d="M30.2497 23.375H20.333V24.7917H30.2497V23.375Z" fill="#0D47A1"/>
</svg>
