<svg width="29" height="32" viewBox="0 0 29 32" fill="none" xmlns="http://www.w3.org/2000/svg">
<path d="M15.8806 5.73372L20.9481 8.66158C21.1264 8.76481 21.1358 9.04633 20.9481 9.15894L14.9328 12.6311C14.7545 12.7343 14.5293 12.7343 14.3698 12.6311L8.35455 9.15894C8.16686 9.05572 8.16686 8.76481 8.35455 8.66158L13.422 5.73372V0.00938402L0.5 7.46979V22.4L5.45484 19.5472V13.7009C5.45484 13.4944 5.69883 13.3443 5.87713 13.4569L11.8924 16.929C12.0707 17.0323 12.1833 17.2199 12.1833 17.4264V24.3707C12.1833 24.5771 11.9393 24.7273 11.761 24.6147L6.69355 21.6868L1.73871 24.5396L14.6607 32L27.5921 24.5396L22.6372 21.6868L17.5698 24.6053C17.3915 24.7179 17.1381 24.5771 17.1475 24.3613V17.417C17.1475 17.2106 17.2695 17.0229 17.4384 16.9196L23.4537 13.4475C23.632 13.3349 23.8853 13.4757 23.876 13.6915V19.5378L28.8308 22.3906V7.46041L15.8994 0V5.72434L15.8806 5.73372Z" fill="#FEFEFE"/>
</svg>
