<svg width="29" height="28" viewBox="0 0 29 28" fill="none" xmlns="http://www.w3.org/2000/svg">
<path d="M0.5 10.1333C0.5 6.58633 0.5 4.81283 1.19029 3.45806C1.79749 2.26637 2.76637 1.29749 3.95806 0.69029C5.31283 0 7.08633 0 10.6333 0H18.3667C21.9137 0 23.6872 0 25.0419 0.69029C26.2336 1.29749 27.2025 2.26637 27.8097 3.45806C28.5 4.81283 28.5 6.58633 28.5 10.1333V17.8667C28.5 21.4137 28.5 23.1872 27.8097 24.5419C27.2025 25.7336 26.2336 26.7025 25.0419 27.3097C23.6872 28 21.9137 28 18.3667 28H10.6333C7.08633 28 5.31283 28 3.95806 27.3097C2.76637 26.7025 1.79749 25.7336 1.19029 24.5419C0.5 23.1872 0.5 21.4137 0.5 17.8667V10.1333Z" fill="#470137"/>
</svg>
