<svg width="28" height="28" viewBox="0 0 28 28" fill="none" xmlns="http://www.w3.org/2000/svg">
<path d="M0 10.1333C0 6.58633 0 4.81283 0.69029 3.45806C1.29749 2.26637 2.26637 1.29749 3.45806 0.69029C4.81283 0 6.58633 0 10.1333 0H17.8667C21.4137 0 23.1872 0 24.5419 0.69029C25.7336 1.29749 26.7025 2.26637 27.3097 3.45806C28 4.81283 28 6.58633 28 10.1333V17.8667C28 21.4137 28 23.1872 27.3097 24.5419C26.7025 25.7336 25.7336 26.7025 24.5419 27.3097C23.1872 28 21.4137 28 17.8667 28H10.1333C6.58633 28 4.81283 28 3.45806 27.3097C2.26637 26.7025 1.29749 25.7336 0.69029 24.5419C0 23.1872 0 21.4137 0 17.8667V10.1333Z" fill="#00005B"/>
</svg>
