<svg width="24" height="24" viewBox="0 0 24 24" fill="none" xmlns="http://www.w3.org/2000/svg">
<g clip-path="url(#clip0_1925_19188)">
<path d="M5.61834 11.0223C8.71645 11.0223 11.2368 8.54998 11.2368 5.51122C11.2368 2.47238 8.71645 0 5.61834 0C2.52031 0 0 2.47238 0 5.51122C0 8.54998 2.52031 11.0223 5.61834 11.0223Z" fill="white"/>
<path d="M23.9483 5.66873C23.9497 5.51616 23.9508 5.6347 23.9508 5.51128C23.9508 2.47238 21.4304 0 18.3324 0C15.2343 0 12.7139 2.47238 12.7139 5.51128V5.51137C12.7139 9.34875 9.53118 12.4707 5.61898 12.4707C4.08549 12.4707 2.67121 12.0051 1.51562 11.2072C2.64058 13.1794 4.32939 14.8045 6.36074 15.8724V18.3727C6.36074 21.4069 8.83078 23.9245 11.9238 23.9538C15.0473 23.9834 17.5979 21.4998 17.5979 18.4431V15.8697C21.3177 13.9111 23.8846 10.0799 23.9485 5.68191H23.9481L23.9483 5.66873Z" fill="white"/>
</g>
<defs>
<clipPath id="clip0_1925_19188">
<rect width="24" height="24" fill="white"/>
</clipPath>
</defs>
</svg>
