<svg width="1440" height="700" viewBox="0 0 1440 700" fill="none" xmlns="http://www.w3.org/2000/svg">
<rect x="0.5" y="0.5" width="69" height="69" stroke="#C6BBE1" stroke-opacity="0.25" stroke-linecap="round" stroke-dasharray="7 7"/>
<rect x="70.5" y="0.5" width="69" height="69" stroke="#C6BBE1" stroke-opacity="0.25" stroke-linecap="round" stroke-dasharray="7 7"/>
<rect x="140.5" y="0.5" width="69" height="69" stroke="#C6BBE1" stroke-opacity="0.25" stroke-linecap="round" stroke-dasharray="7 7"/>
<rect x="210.5" y="0.5" width="69" height="69" stroke="#C6BBE1" stroke-opacity="0.25" stroke-linecap="round" stroke-dasharray="7 7"/>
<rect x="280.5" y="0.5" width="69" height="69" stroke="#C6BBE1" stroke-opacity="0.25" stroke-linecap="round" stroke-dasharray="7 7"/>
<rect x="350.5" y="0.5" width="69" height="69" stroke="#C6BBE1" stroke-opacity="0.25" stroke-linecap="round" stroke-dasharray="7 7"/>
<rect x="420.5" y="0.5" width="69" height="69" stroke="#C6BBE1" stroke-opacity="0.25" stroke-linecap="round" stroke-dasharray="7 7"/>
<rect x="490.5" y="0.5" width="69" height="69" stroke="#C6BBE1" stroke-opacity="0.25" stroke-linecap="round" stroke-dasharray="7 7"/>
<rect x="560.5" y="0.5" width="69" height="69" stroke="#C6BBE1" stroke-opacity="0.25" stroke-linecap="round" stroke-dasharray="7 7"/>
<rect x="630.5" y="0.5" width="69" height="69" stroke="#C6BBE1" stroke-opacity="0.25" stroke-linecap="round" stroke-dasharray="7 7"/>
<rect x="700.5" y="0.5" width="69" height="69" stroke="#C6BBE1" stroke-opacity="0.25" stroke-linecap="round" stroke-dasharray="7 7"/>
<rect x="770.5" y="0.5" width="69" height="69" stroke="#C6BBE1" stroke-opacity="0.25" stroke-linecap="round" stroke-dasharray="7 7"/>
<rect x="840.5" y="0.5" width="69" height="69" stroke="#C6BBE1" stroke-opacity="0.25" stroke-linecap="round" stroke-dasharray="7 7"/>
<rect x="910.5" y="0.5" width="69" height="69" stroke="#C6BBE1" stroke-opacity="0.25" stroke-linecap="round" stroke-dasharray="7 7"/>
<rect x="980.5" y="0.5" width="69" height="69" stroke="#C6BBE1" stroke-opacity="0.25" stroke-linecap="round" stroke-dasharray="7 7"/>
<rect x="1050.5" y="0.5" width="69" height="69" stroke="#C6BBE1" stroke-opacity="0.25" stroke-linecap="round" stroke-dasharray="7 7"/>
<rect x="1120.5" y="0.5" width="69" height="69" stroke="#C6BBE1" stroke-opacity="0.25" stroke-linecap="round" stroke-dasharray="7 7"/>
<rect x="1190.5" y="0.5" width="69" height="69" stroke="#C6BBE1" stroke-opacity="0.25" stroke-linecap="round" stroke-dasharray="7 7"/>
<rect x="1260.5" y="0.5" width="69" height="69" stroke="#C6BBE1" stroke-opacity="0.25" stroke-linecap="round" stroke-dasharray="7 7"/>
<rect x="1330.5" y="0.5" width="69" height="69" stroke="#C6BBE1" stroke-opacity="0.25" stroke-linecap="round" stroke-dasharray="7 7"/>
<rect x="1400.5" y="0.5" width="69" height="69" stroke="#C6BBE1" stroke-opacity="0.25" stroke-linecap="round" stroke-dasharray="7 7"/>
<rect x="0.5" y="70.5" width="69" height="69" stroke="#C6BBE1" stroke-opacity="0.25" stroke-linecap="round" stroke-dasharray="7 7"/>
<rect x="70.5" y="70.5" width="69" height="69" stroke="#C6BBE1" stroke-opacity="0.25" stroke-linecap="round" stroke-dasharray="7 7"/>
<rect x="140.5" y="70.5" width="69" height="69" stroke="#C6BBE1" stroke-opacity="0.25" stroke-linecap="round" stroke-dasharray="7 7"/>
<rect x="210.5" y="70.5" width="69" height="69" stroke="#C6BBE1" stroke-opacity="0.25" stroke-linecap="round" stroke-dasharray="7 7"/>
<rect x="280.5" y="70.5" width="69" height="69" stroke="#C6BBE1" stroke-opacity="0.25" stroke-linecap="round" stroke-dasharray="7 7"/>
<rect x="350.5" y="70.5" width="69" height="69" stroke="#C6BBE1" stroke-opacity="0.25" stroke-linecap="round" stroke-dasharray="7 7"/>
<rect x="420.5" y="70.5" width="69" height="69" stroke="#C6BBE1" stroke-opacity="0.25" stroke-linecap="round" stroke-dasharray="7 7"/>
<rect x="490.5" y="70.5" width="69" height="69" stroke="#C6BBE1" stroke-opacity="0.25" stroke-linecap="round" stroke-dasharray="7 7"/>
<rect x="560.5" y="70.5" width="69" height="69" stroke="#C6BBE1" stroke-opacity="0.25" stroke-linecap="round" stroke-dasharray="7 7"/>
<rect x="630.5" y="70.5" width="69" height="69" stroke="#C6BBE1" stroke-opacity="0.25" stroke-linecap="round" stroke-dasharray="7 7"/>
<rect x="700.5" y="70.5" width="69" height="69" stroke="#C6BBE1" stroke-opacity="0.25" stroke-linecap="round" stroke-dasharray="7 7"/>
<rect x="770.5" y="70.5" width="69" height="69" stroke="#C6BBE1" stroke-opacity="0.25" stroke-linecap="round" stroke-dasharray="7 7"/>
<rect x="840.5" y="70.5" width="69" height="69" stroke="#C6BBE1" stroke-opacity="0.25" stroke-linecap="round" stroke-dasharray="7 7"/>
<rect x="910.5" y="70.5" width="69" height="69" stroke="#C6BBE1" stroke-opacity="0.25" stroke-linecap="round" stroke-dasharray="7 7"/>
<rect x="980.5" y="70.5" width="69" height="69" stroke="#C6BBE1" stroke-opacity="0.25" stroke-linecap="round" stroke-dasharray="7 7"/>
<rect x="1050.5" y="70.5" width="69" height="69" stroke="#C6BBE1" stroke-opacity="0.25" stroke-linecap="round" stroke-dasharray="7 7"/>
<rect x="1120.5" y="70.5" width="69" height="69" stroke="#C6BBE1" stroke-opacity="0.25" stroke-linecap="round" stroke-dasharray="7 7"/>
<rect x="1190.5" y="70.5" width="69" height="69" stroke="#C6BBE1" stroke-opacity="0.25" stroke-linecap="round" stroke-dasharray="7 7"/>
<rect x="1260.5" y="70.5" width="69" height="69" stroke="#C6BBE1" stroke-opacity="0.25" stroke-linecap="round" stroke-dasharray="7 7"/>
<rect x="1330.5" y="70.5" width="69" height="69" stroke="#C6BBE1" stroke-opacity="0.25" stroke-linecap="round" stroke-dasharray="7 7"/>
<rect x="1400.5" y="70.5" width="69" height="69" stroke="#C6BBE1" stroke-opacity="0.25" stroke-linecap="round" stroke-dasharray="7 7"/>
<rect x="0.5" y="140.5" width="69" height="69" stroke="#C6BBE1" stroke-opacity="0.25" stroke-linecap="round" stroke-dasharray="7 7"/>
<rect x="70.5" y="140.5" width="69" height="69" stroke="#C6BBE1" stroke-opacity="0.25" stroke-linecap="round" stroke-dasharray="7 7"/>
<rect x="140.5" y="140.5" width="69" height="69" stroke="#C6BBE1" stroke-opacity="0.25" stroke-linecap="round" stroke-dasharray="7 7"/>
<rect x="210.5" y="140.5" width="69" height="69" stroke="#C6BBE1" stroke-opacity="0.25" stroke-linecap="round" stroke-dasharray="7 7"/>
<rect x="280.5" y="140.5" width="69" height="69" stroke="#C6BBE1" stroke-opacity="0.25" stroke-linecap="round" stroke-dasharray="7 7"/>
<rect x="350.5" y="140.5" width="69" height="69" stroke="#C6BBE1" stroke-opacity="0.25" stroke-linecap="round" stroke-dasharray="7 7"/>
<rect x="420.5" y="140.5" width="69" height="69" stroke="#C6BBE1" stroke-opacity="0.25" stroke-linecap="round" stroke-dasharray="7 7"/>
<rect x="490.5" y="140.5" width="69" height="69" stroke="#C6BBE1" stroke-opacity="0.25" stroke-linecap="round" stroke-dasharray="7 7"/>
<rect x="560.5" y="140.5" width="69" height="69" stroke="#C6BBE1" stroke-opacity="0.25" stroke-linecap="round" stroke-dasharray="7 7"/>
<rect x="630.5" y="140.5" width="69" height="69" stroke="#C6BBE1" stroke-opacity="0.25" stroke-linecap="round" stroke-dasharray="7 7"/>
<rect x="700.5" y="140.5" width="69" height="69" stroke="#C6BBE1" stroke-opacity="0.25" stroke-linecap="round" stroke-dasharray="7 7"/>
<rect x="770.5" y="140.5" width="69" height="69" stroke="#C6BBE1" stroke-opacity="0.25" stroke-linecap="round" stroke-dasharray="7 7"/>
<rect x="840.5" y="140.5" width="69" height="69" stroke="#C6BBE1" stroke-opacity="0.25" stroke-linecap="round" stroke-dasharray="7 7"/>
<rect x="910.5" y="140.5" width="69" height="69" stroke="#C6BBE1" stroke-opacity="0.25" stroke-linecap="round" stroke-dasharray="7 7"/>
<rect x="980.5" y="140.5" width="69" height="69" stroke="#C6BBE1" stroke-opacity="0.25" stroke-linecap="round" stroke-dasharray="7 7"/>
<rect x="1050.5" y="140.5" width="69" height="69" stroke="#C6BBE1" stroke-opacity="0.25" stroke-linecap="round" stroke-dasharray="7 7"/>
<rect x="1120.5" y="140.5" width="69" height="69" stroke="#C6BBE1" stroke-opacity="0.25" stroke-linecap="round" stroke-dasharray="7 7"/>
<rect x="1190.5" y="140.5" width="69" height="69" stroke="#C6BBE1" stroke-opacity="0.25" stroke-linecap="round" stroke-dasharray="7 7"/>
<rect x="1260.5" y="140.5" width="69" height="69" stroke="#C6BBE1" stroke-opacity="0.25" stroke-linecap="round" stroke-dasharray="7 7"/>
<rect x="1330.5" y="140.5" width="69" height="69" stroke="#C6BBE1" stroke-opacity="0.25" stroke-linecap="round" stroke-dasharray="7 7"/>
<rect x="1400.5" y="140.5" width="69" height="69" stroke="#C6BBE1" stroke-opacity="0.25" stroke-linecap="round" stroke-dasharray="7 7"/>
<rect x="0.5" y="210.5" width="69" height="69" stroke="#C6BBE1" stroke-opacity="0.25" stroke-linecap="round" stroke-dasharray="7 7"/>
<rect x="70.5" y="210.5" width="69" height="69" stroke="#C6BBE1" stroke-opacity="0.25" stroke-linecap="round" stroke-dasharray="7 7"/>
<rect x="140.5" y="210.5" width="69" height="69" stroke="#C6BBE1" stroke-opacity="0.25" stroke-linecap="round" stroke-dasharray="7 7"/>
<rect x="210.5" y="210.5" width="69" height="69" stroke="#C6BBE1" stroke-opacity="0.25" stroke-linecap="round" stroke-dasharray="7 7"/>
<rect x="280.5" y="210.5" width="69" height="69" stroke="#C6BBE1" stroke-opacity="0.25" stroke-linecap="round" stroke-dasharray="7 7"/>
<rect x="350.5" y="210.5" width="69" height="69" stroke="#C6BBE1" stroke-opacity="0.25" stroke-linecap="round" stroke-dasharray="7 7"/>
<rect x="420.5" y="210.5" width="69" height="69" stroke="#C6BBE1" stroke-opacity="0.25" stroke-linecap="round" stroke-dasharray="7 7"/>
<rect x="490.5" y="210.5" width="69" height="69" stroke="#C6BBE1" stroke-opacity="0.25" stroke-linecap="round" stroke-dasharray="7 7"/>
<rect x="560.5" y="210.5" width="69" height="69" stroke="#C6BBE1" stroke-opacity="0.25" stroke-linecap="round" stroke-dasharray="7 7"/>
<rect x="630.5" y="210.5" width="69" height="69" stroke="#C6BBE1" stroke-opacity="0.25" stroke-linecap="round" stroke-dasharray="7 7"/>
<rect x="700.5" y="210.5" width="69" height="69" stroke="#C6BBE1" stroke-opacity="0.25" stroke-linecap="round" stroke-dasharray="7 7"/>
<rect x="770.5" y="210.5" width="69" height="69" stroke="#C6BBE1" stroke-opacity="0.25" stroke-linecap="round" stroke-dasharray="7 7"/>
<rect x="840.5" y="210.5" width="69" height="69" stroke="#C6BBE1" stroke-opacity="0.25" stroke-linecap="round" stroke-dasharray="7 7"/>
<rect x="910.5" y="210.5" width="69" height="69" stroke="#C6BBE1" stroke-opacity="0.25" stroke-linecap="round" stroke-dasharray="7 7"/>
<rect x="980.5" y="210.5" width="69" height="69" stroke="#C6BBE1" stroke-opacity="0.25" stroke-linecap="round" stroke-dasharray="7 7"/>
<rect x="1050.5" y="210.5" width="69" height="69" stroke="#C6BBE1" stroke-opacity="0.25" stroke-linecap="round" stroke-dasharray="7 7"/>
<rect x="1120.5" y="210.5" width="69" height="69" stroke="#C6BBE1" stroke-opacity="0.25" stroke-linecap="round" stroke-dasharray="7 7"/>
<rect x="1190.5" y="210.5" width="69" height="69" stroke="#C6BBE1" stroke-opacity="0.25" stroke-linecap="round" stroke-dasharray="7 7"/>
<rect x="1260.5" y="210.5" width="69" height="69" stroke="#C6BBE1" stroke-opacity="0.25" stroke-linecap="round" stroke-dasharray="7 7"/>
<rect x="1330.5" y="210.5" width="69" height="69" stroke="#C6BBE1" stroke-opacity="0.25" stroke-linecap="round" stroke-dasharray="7 7"/>
<rect x="1400.5" y="210.5" width="69" height="69" stroke="#C6BBE1" stroke-opacity="0.25" stroke-linecap="round" stroke-dasharray="7 7"/>
<rect x="0.5" y="280.5" width="69" height="69" stroke="#C6BBE1" stroke-opacity="0.25" stroke-linecap="round" stroke-dasharray="7 7"/>
<rect x="70.5" y="280.5" width="69" height="69" stroke="#C6BBE1" stroke-opacity="0.25" stroke-linecap="round" stroke-dasharray="7 7"/>
<rect x="140.5" y="280.5" width="69" height="69" stroke="#C6BBE1" stroke-opacity="0.25" stroke-linecap="round" stroke-dasharray="7 7"/>
<rect x="210.5" y="280.5" width="69" height="69" stroke="#C6BBE1" stroke-opacity="0.25" stroke-linecap="round" stroke-dasharray="7 7"/>
<rect x="280.5" y="280.5" width="69" height="69" stroke="#C6BBE1" stroke-opacity="0.25" stroke-linecap="round" stroke-dasharray="7 7"/>
<rect x="350.5" y="280.5" width="69" height="69" stroke="#C6BBE1" stroke-opacity="0.25" stroke-linecap="round" stroke-dasharray="7 7"/>
<rect x="420.5" y="280.5" width="69" height="69" stroke="#C6BBE1" stroke-opacity="0.25" stroke-linecap="round" stroke-dasharray="7 7"/>
<rect x="490.5" y="280.5" width="69" height="69" stroke="#C6BBE1" stroke-opacity="0.25" stroke-linecap="round" stroke-dasharray="7 7"/>
<rect x="560.5" y="280.5" width="69" height="69" stroke="#C6BBE1" stroke-opacity="0.25" stroke-linecap="round" stroke-dasharray="7 7"/>
<rect x="630.5" y="280.5" width="69" height="69" stroke="#C6BBE1" stroke-opacity="0.25" stroke-linecap="round" stroke-dasharray="7 7"/>
<rect x="700.5" y="280.5" width="69" height="69" stroke="#C6BBE1" stroke-opacity="0.25" stroke-linecap="round" stroke-dasharray="7 7"/>
<rect x="770.5" y="280.5" width="69" height="69" stroke="#C6BBE1" stroke-opacity="0.25" stroke-linecap="round" stroke-dasharray="7 7"/>
<rect x="840.5" y="280.5" width="69" height="69" stroke="#C6BBE1" stroke-opacity="0.25" stroke-linecap="round" stroke-dasharray="7 7"/>
<rect x="910.5" y="280.5" width="69" height="69" stroke="#C6BBE1" stroke-opacity="0.25" stroke-linecap="round" stroke-dasharray="7 7"/>
<rect x="980.5" y="280.5" width="69" height="69" stroke="#C6BBE1" stroke-opacity="0.25" stroke-linecap="round" stroke-dasharray="7 7"/>
<rect x="1050.5" y="280.5" width="69" height="69" stroke="#C6BBE1" stroke-opacity="0.25" stroke-linecap="round" stroke-dasharray="7 7"/>
<rect x="1120.5" y="280.5" width="69" height="69" stroke="#C6BBE1" stroke-opacity="0.25" stroke-linecap="round" stroke-dasharray="7 7"/>
<rect x="1190.5" y="280.5" width="69" height="69" stroke="#C6BBE1" stroke-opacity="0.25" stroke-linecap="round" stroke-dasharray="7 7"/>
<rect x="1260.5" y="280.5" width="69" height="69" stroke="#C6BBE1" stroke-opacity="0.25" stroke-linecap="round" stroke-dasharray="7 7"/>
<rect x="1330.5" y="280.5" width="69" height="69" stroke="#C6BBE1" stroke-opacity="0.25" stroke-linecap="round" stroke-dasharray="7 7"/>
<rect x="1400.5" y="280.5" width="69" height="69" stroke="#C6BBE1" stroke-opacity="0.25" stroke-linecap="round" stroke-dasharray="7 7"/>
<rect x="0.5" y="350.5" width="69" height="69" stroke="#C6BBE1" stroke-opacity="0.25" stroke-linecap="round" stroke-dasharray="7 7"/>
<rect x="70.5" y="350.5" width="69" height="69" stroke="#C6BBE1" stroke-opacity="0.25" stroke-linecap="round" stroke-dasharray="7 7"/>
<rect x="140.5" y="350.5" width="69" height="69" stroke="#C6BBE1" stroke-opacity="0.25" stroke-linecap="round" stroke-dasharray="7 7"/>
<rect x="210.5" y="350.5" width="69" height="69" stroke="#C6BBE1" stroke-opacity="0.25" stroke-linecap="round" stroke-dasharray="7 7"/>
<rect x="280.5" y="350.5" width="69" height="69" stroke="#C6BBE1" stroke-opacity="0.25" stroke-linecap="round" stroke-dasharray="7 7"/>
<rect x="350.5" y="350.5" width="69" height="69" stroke="#C6BBE1" stroke-opacity="0.25" stroke-linecap="round" stroke-dasharray="7 7"/>
<rect x="420.5" y="350.5" width="69" height="69" stroke="#C6BBE1" stroke-opacity="0.25" stroke-linecap="round" stroke-dasharray="7 7"/>
<rect x="490.5" y="350.5" width="69" height="69" stroke="#C6BBE1" stroke-opacity="0.25" stroke-linecap="round" stroke-dasharray="7 7"/>
<rect x="560.5" y="350.5" width="69" height="69" stroke="#C6BBE1" stroke-opacity="0.25" stroke-linecap="round" stroke-dasharray="7 7"/>
<rect x="630.5" y="350.5" width="69" height="69" stroke="#C6BBE1" stroke-opacity="0.25" stroke-linecap="round" stroke-dasharray="7 7"/>
<rect x="700.5" y="350.5" width="69" height="69" stroke="#C6BBE1" stroke-opacity="0.25" stroke-linecap="round" stroke-dasharray="7 7"/>
<rect x="770.5" y="350.5" width="69" height="69" stroke="#C6BBE1" stroke-opacity="0.25" stroke-linecap="round" stroke-dasharray="7 7"/>
<rect x="840.5" y="350.5" width="69" height="69" stroke="#C6BBE1" stroke-opacity="0.25" stroke-linecap="round" stroke-dasharray="7 7"/>
<rect x="910.5" y="350.5" width="69" height="69" stroke="#C6BBE1" stroke-opacity="0.25" stroke-linecap="round" stroke-dasharray="7 7"/>
<rect x="980.5" y="350.5" width="69" height="69" stroke="#C6BBE1" stroke-opacity="0.25" stroke-linecap="round" stroke-dasharray="7 7"/>
<rect x="1050.5" y="350.5" width="69" height="69" stroke="#C6BBE1" stroke-opacity="0.25" stroke-linecap="round" stroke-dasharray="7 7"/>
<rect x="1120.5" y="350.5" width="69" height="69" stroke="#C6BBE1" stroke-opacity="0.25" stroke-linecap="round" stroke-dasharray="7 7"/>
<rect x="1190.5" y="350.5" width="69" height="69" stroke="#C6BBE1" stroke-opacity="0.25" stroke-linecap="round" stroke-dasharray="7 7"/>
<rect x="1260.5" y="350.5" width="69" height="69" stroke="#C6BBE1" stroke-opacity="0.25" stroke-linecap="round" stroke-dasharray="7 7"/>
<rect x="1330.5" y="350.5" width="69" height="69" stroke="#C6BBE1" stroke-opacity="0.25" stroke-linecap="round" stroke-dasharray="7 7"/>
<rect x="1400.5" y="350.5" width="69" height="69" stroke="#C6BBE1" stroke-opacity="0.25" stroke-linecap="round" stroke-dasharray="7 7"/>
<rect x="0.5" y="420.5" width="69" height="69" stroke="#C6BBE1" stroke-opacity="0.25" stroke-linecap="round" stroke-dasharray="7 7"/>
<rect x="70.5" y="420.5" width="69" height="69" stroke="#C6BBE1" stroke-opacity="0.25" stroke-linecap="round" stroke-dasharray="7 7"/>
<rect x="140.5" y="420.5" width="69" height="69" stroke="#C6BBE1" stroke-opacity="0.25" stroke-linecap="round" stroke-dasharray="7 7"/>
<rect x="210.5" y="420.5" width="69" height="69" stroke="#C6BBE1" stroke-opacity="0.25" stroke-linecap="round" stroke-dasharray="7 7"/>
<rect x="280.5" y="420.5" width="69" height="69" stroke="#C6BBE1" stroke-opacity="0.25" stroke-linecap="round" stroke-dasharray="7 7"/>
<rect x="350.5" y="420.5" width="69" height="69" stroke="#C6BBE1" stroke-opacity="0.25" stroke-linecap="round" stroke-dasharray="7 7"/>
<rect x="420.5" y="420.5" width="69" height="69" stroke="#C6BBE1" stroke-opacity="0.25" stroke-linecap="round" stroke-dasharray="7 7"/>
<rect x="490.5" y="420.5" width="69" height="69" stroke="#C6BBE1" stroke-opacity="0.25" stroke-linecap="round" stroke-dasharray="7 7"/>
<rect x="560.5" y="420.5" width="69" height="69" stroke="#C6BBE1" stroke-opacity="0.25" stroke-linecap="round" stroke-dasharray="7 7"/>
<rect x="630.5" y="420.5" width="69" height="69" stroke="#C6BBE1" stroke-opacity="0.25" stroke-linecap="round" stroke-dasharray="7 7"/>
<rect x="700.5" y="420.5" width="69" height="69" stroke="#C6BBE1" stroke-opacity="0.25" stroke-linecap="round" stroke-dasharray="7 7"/>
<rect x="770.5" y="420.5" width="69" height="69" stroke="#C6BBE1" stroke-opacity="0.25" stroke-linecap="round" stroke-dasharray="7 7"/>
<rect x="840.5" y="420.5" width="69" height="69" stroke="#C6BBE1" stroke-opacity="0.25" stroke-linecap="round" stroke-dasharray="7 7"/>
<rect x="910.5" y="420.5" width="69" height="69" stroke="#C6BBE1" stroke-opacity="0.25" stroke-linecap="round" stroke-dasharray="7 7"/>
<rect x="980.5" y="420.5" width="69" height="69" stroke="#C6BBE1" stroke-opacity="0.25" stroke-linecap="round" stroke-dasharray="7 7"/>
<rect x="1050.5" y="420.5" width="69" height="69" stroke="#C6BBE1" stroke-opacity="0.25" stroke-linecap="round" stroke-dasharray="7 7"/>
<rect x="1120.5" y="420.5" width="69" height="69" stroke="#C6BBE1" stroke-opacity="0.25" stroke-linecap="round" stroke-dasharray="7 7"/>
<rect x="1190.5" y="420.5" width="69" height="69" stroke="#C6BBE1" stroke-opacity="0.25" stroke-linecap="round" stroke-dasharray="7 7"/>
<rect x="1260.5" y="420.5" width="69" height="69" stroke="#C6BBE1" stroke-opacity="0.25" stroke-linecap="round" stroke-dasharray="7 7"/>
<rect x="1330.5" y="420.5" width="69" height="69" stroke="#C6BBE1" stroke-opacity="0.25" stroke-linecap="round" stroke-dasharray="7 7"/>
<rect x="1400.5" y="420.5" width="69" height="69" stroke="#C6BBE1" stroke-opacity="0.25" stroke-linecap="round" stroke-dasharray="7 7"/>
<rect x="0.5" y="490.5" width="69" height="69" stroke="#C6BBE1" stroke-opacity="0.25" stroke-linecap="round" stroke-dasharray="7 7"/>
<rect x="70.5" y="490.5" width="69" height="69" stroke="#C6BBE1" stroke-opacity="0.25" stroke-linecap="round" stroke-dasharray="7 7"/>
<rect x="140.5" y="490.5" width="69" height="69" stroke="#C6BBE1" stroke-opacity="0.25" stroke-linecap="round" stroke-dasharray="7 7"/>
<rect x="210.5" y="490.5" width="69" height="69" stroke="#C6BBE1" stroke-opacity="0.25" stroke-linecap="round" stroke-dasharray="7 7"/>
<rect x="280.5" y="490.5" width="69" height="69" stroke="#C6BBE1" stroke-opacity="0.25" stroke-linecap="round" stroke-dasharray="7 7"/>
<rect x="350.5" y="490.5" width="69" height="69" stroke="#C6BBE1" stroke-opacity="0.25" stroke-linecap="round" stroke-dasharray="7 7"/>
<rect x="420.5" y="490.5" width="69" height="69" stroke="#C6BBE1" stroke-opacity="0.25" stroke-linecap="round" stroke-dasharray="7 7"/>
<rect x="490.5" y="490.5" width="69" height="69" stroke="#C6BBE1" stroke-opacity="0.25" stroke-linecap="round" stroke-dasharray="7 7"/>
<rect x="560.5" y="490.5" width="69" height="69" stroke="#C6BBE1" stroke-opacity="0.25" stroke-linecap="round" stroke-dasharray="7 7"/>
<rect x="630.5" y="490.5" width="69" height="69" stroke="#C6BBE1" stroke-opacity="0.25" stroke-linecap="round" stroke-dasharray="7 7"/>
<rect x="700.5" y="490.5" width="69" height="69" stroke="#C6BBE1" stroke-opacity="0.25" stroke-linecap="round" stroke-dasharray="7 7"/>
<rect x="770.5" y="490.5" width="69" height="69" stroke="#C6BBE1" stroke-opacity="0.25" stroke-linecap="round" stroke-dasharray="7 7"/>
<rect x="840.5" y="490.5" width="69" height="69" stroke="#C6BBE1" stroke-opacity="0.25" stroke-linecap="round" stroke-dasharray="7 7"/>
<rect x="910.5" y="490.5" width="69" height="69" stroke="#C6BBE1" stroke-opacity="0.25" stroke-linecap="round" stroke-dasharray="7 7"/>
<rect x="980.5" y="490.5" width="69" height="69" stroke="#C6BBE1" stroke-opacity="0.25" stroke-linecap="round" stroke-dasharray="7 7"/>
<rect x="1050.5" y="490.5" width="69" height="69" stroke="#C6BBE1" stroke-opacity="0.25" stroke-linecap="round" stroke-dasharray="7 7"/>
<rect x="1120.5" y="490.5" width="69" height="69" stroke="#C6BBE1" stroke-opacity="0.25" stroke-linecap="round" stroke-dasharray="7 7"/>
<rect x="1190.5" y="490.5" width="69" height="69" stroke="#C6BBE1" stroke-opacity="0.25" stroke-linecap="round" stroke-dasharray="7 7"/>
<rect x="1260.5" y="490.5" width="69" height="69" stroke="#C6BBE1" stroke-opacity="0.25" stroke-linecap="round" stroke-dasharray="7 7"/>
<rect x="1330.5" y="490.5" width="69" height="69" stroke="#C6BBE1" stroke-opacity="0.25" stroke-linecap="round" stroke-dasharray="7 7"/>
<rect x="1400.5" y="490.5" width="69" height="69" stroke="#C6BBE1" stroke-opacity="0.25" stroke-linecap="round" stroke-dasharray="7 7"/>
<rect x="0.5" y="560.5" width="69" height="69" stroke="#C6BBE1" stroke-opacity="0.25" stroke-linecap="round" stroke-dasharray="7 7"/>
<rect x="70.5" y="560.5" width="69" height="69" stroke="#C6BBE1" stroke-opacity="0.25" stroke-linecap="round" stroke-dasharray="7 7"/>
<rect x="140.5" y="560.5" width="69" height="69" stroke="#C6BBE1" stroke-opacity="0.25" stroke-linecap="round" stroke-dasharray="7 7"/>
<rect x="210.5" y="560.5" width="69" height="69" stroke="#C6BBE1" stroke-opacity="0.25" stroke-linecap="round" stroke-dasharray="7 7"/>
<rect x="280.5" y="560.5" width="69" height="69" stroke="#C6BBE1" stroke-opacity="0.25" stroke-linecap="round" stroke-dasharray="7 7"/>
<rect x="350.5" y="560.5" width="69" height="69" stroke="#C6BBE1" stroke-opacity="0.25" stroke-linecap="round" stroke-dasharray="7 7"/>
<rect x="420.5" y="560.5" width="69" height="69" stroke="#C6BBE1" stroke-opacity="0.25" stroke-linecap="round" stroke-dasharray="7 7"/>
<rect x="490.5" y="560.5" width="69" height="69" stroke="#C6BBE1" stroke-opacity="0.25" stroke-linecap="round" stroke-dasharray="7 7"/>
<rect x="560.5" y="560.5" width="69" height="69" stroke="#C6BBE1" stroke-opacity="0.25" stroke-linecap="round" stroke-dasharray="7 7"/>
<rect x="630.5" y="560.5" width="69" height="69" stroke="#C6BBE1" stroke-opacity="0.25" stroke-linecap="round" stroke-dasharray="7 7"/>
<rect x="700.5" y="560.5" width="69" height="69" stroke="#C6BBE1" stroke-opacity="0.25" stroke-linecap="round" stroke-dasharray="7 7"/>
<rect x="770.5" y="560.5" width="69" height="69" stroke="#C6BBE1" stroke-opacity="0.25" stroke-linecap="round" stroke-dasharray="7 7"/>
<rect x="840.5" y="560.5" width="69" height="69" stroke="#C6BBE1" stroke-opacity="0.25" stroke-linecap="round" stroke-dasharray="7 7"/>
<rect x="910.5" y="560.5" width="69" height="69" stroke="#C6BBE1" stroke-opacity="0.25" stroke-linecap="round" stroke-dasharray="7 7"/>
<rect x="980.5" y="560.5" width="69" height="69" stroke="#C6BBE1" stroke-opacity="0.25" stroke-linecap="round" stroke-dasharray="7 7"/>
<rect x="1050.5" y="560.5" width="69" height="69" stroke="#C6BBE1" stroke-opacity="0.25" stroke-linecap="round" stroke-dasharray="7 7"/>
<rect x="1120.5" y="560.5" width="69" height="69" stroke="#C6BBE1" stroke-opacity="0.25" stroke-linecap="round" stroke-dasharray="7 7"/>
<rect x="1190.5" y="560.5" width="69" height="69" stroke="#C6BBE1" stroke-opacity="0.25" stroke-linecap="round" stroke-dasharray="7 7"/>
<rect x="1260.5" y="560.5" width="69" height="69" stroke="#C6BBE1" stroke-opacity="0.25" stroke-linecap="round" stroke-dasharray="7 7"/>
<rect x="1330.5" y="560.5" width="69" height="69" stroke="#C6BBE1" stroke-opacity="0.25" stroke-linecap="round" stroke-dasharray="7 7"/>
<rect x="1400.5" y="560.5" width="69" height="69" stroke="#C6BBE1" stroke-opacity="0.25" stroke-linecap="round" stroke-dasharray="7 7"/>
<rect x="0.5" y="630.5" width="69" height="69" stroke="#C6BBE1" stroke-opacity="0.25" stroke-linecap="round" stroke-dasharray="7 7"/>
<rect x="70.5" y="630.5" width="69" height="69" stroke="#C6BBE1" stroke-opacity="0.25" stroke-linecap="round" stroke-dasharray="7 7"/>
<rect x="140.5" y="630.5" width="69" height="69" stroke="#C6BBE1" stroke-opacity="0.25" stroke-linecap="round" stroke-dasharray="7 7"/>
<rect x="210.5" y="630.5" width="69" height="69" stroke="#C6BBE1" stroke-opacity="0.25" stroke-linecap="round" stroke-dasharray="7 7"/>
<rect x="280.5" y="630.5" width="69" height="69" stroke="#C6BBE1" stroke-opacity="0.25" stroke-linecap="round" stroke-dasharray="7 7"/>
<rect x="350.5" y="630.5" width="69" height="69" stroke="#C6BBE1" stroke-opacity="0.25" stroke-linecap="round" stroke-dasharray="7 7"/>
<rect x="420.5" y="630.5" width="69" height="69" stroke="#C6BBE1" stroke-opacity="0.25" stroke-linecap="round" stroke-dasharray="7 7"/>
<rect x="490.5" y="630.5" width="69" height="69" stroke="#C6BBE1" stroke-opacity="0.25" stroke-linecap="round" stroke-dasharray="7 7"/>
<rect x="560.5" y="630.5" width="69" height="69" stroke="#C6BBE1" stroke-opacity="0.25" stroke-linecap="round" stroke-dasharray="7 7"/>
<rect x="630.5" y="630.5" width="69" height="69" stroke="#C6BBE1" stroke-opacity="0.25" stroke-linecap="round" stroke-dasharray="7 7"/>
<rect x="700.5" y="630.5" width="69" height="69" stroke="#C6BBE1" stroke-opacity="0.25" stroke-linecap="round" stroke-dasharray="7 7"/>
<rect x="770.5" y="630.5" width="69" height="69" stroke="#C6BBE1" stroke-opacity="0.25" stroke-linecap="round" stroke-dasharray="7 7"/>
<rect x="840.5" y="630.5" width="69" height="69" stroke="#C6BBE1" stroke-opacity="0.25" stroke-linecap="round" stroke-dasharray="7 7"/>
<rect x="910.5" y="630.5" width="69" height="69" stroke="#C6BBE1" stroke-opacity="0.25" stroke-linecap="round" stroke-dasharray="7 7"/>
<rect x="980.5" y="630.5" width="69" height="69" stroke="#C6BBE1" stroke-opacity="0.25" stroke-linecap="round" stroke-dasharray="7 7"/>
<rect x="1050.5" y="630.5" width="69" height="69" stroke="#C6BBE1" stroke-opacity="0.25" stroke-linecap="round" stroke-dasharray="7 7"/>
<rect x="1120.5" y="630.5" width="69" height="69" stroke="#C6BBE1" stroke-opacity="0.25" stroke-linecap="round" stroke-dasharray="7 7"/>
<rect x="1190.5" y="630.5" width="69" height="69" stroke="#C6BBE1" stroke-opacity="0.25" stroke-linecap="round" stroke-dasharray="7 7"/>
<rect x="1260.5" y="630.5" width="69" height="69" stroke="#C6BBE1" stroke-opacity="0.25" stroke-linecap="round" stroke-dasharray="7 7"/>
<rect x="1330.5" y="630.5" width="69" height="69" stroke="#C6BBE1" stroke-opacity="0.25" stroke-linecap="round" stroke-dasharray="7 7"/>
<rect x="1400.5" y="630.5" width="69" height="69" stroke="#C6BBE1" stroke-opacity="0.25" stroke-linecap="round" stroke-dasharray="7 7"/>
</svg>
