<svg width="32" height="32" viewBox="0 0 32 32" fill="none" xmlns="http://www.w3.org/2000/svg">
<path d="M28.0904 8.58578C27.8985 8.70028 27.8357 8.94885 27.9504 9.14078C29.2243 11.2747 29.8975 13.729 29.8975 16.2387C29.8975 23.9023 23.6627 30.1371 15.9991 30.1371C14.667 30.1371 13.3554 29.9508 12.1006 29.5837C11.8864 29.5195 11.6612 29.6437 11.5984 29.8582C11.5357 30.0729 11.6587 30.2977 11.8732 30.3603C13.2019 30.7493 14.59 30.9467 15.9991 30.9467C24.109 30.9467 30.7071 24.3488 30.7071 16.2387C30.7071 13.5829 29.9942 10.9851 28.6454 8.72591C28.5309 8.5336 28.2822 8.47128 28.0904 8.58578Z" fill="#7D2AE8"/>
<path d="M3.01727 22.6569C3.07433 22.6569 3.13239 22.6449 3.18758 22.6193C3.39027 22.5251 3.4782 22.2844 3.38414 22.0817C2.53239 20.2485 2.10058 18.2824 2.10058 16.2386C2.10058 8.57312 8.33545 2.337 15.9992 2.337C16.8053 2.337 17.6087 2.40593 18.3874 2.54162C18.6081 2.57987 18.8175 2.4325 18.8557 2.21243C18.8941 1.992 18.7468 1.78237 18.5265 1.74412C17.702 1.60025 16.8518 1.5275 15.9992 1.5275C7.88908 1.5275 1.29102 8.127 1.29102 16.2387C1.29102 18.4014 1.74827 20.4819 2.64989 22.4226C2.71845 22.5702 2.86458 22.6569 3.01727 22.6569Z" fill="#7D2AE8"/>
<path d="M11.3621 11.6428C11.7927 11.2083 12.2809 10.8367 12.8135 10.5385C13.0084 10.429 13.0779 10.1824 12.9686 9.9873C12.8595 9.79217 12.6126 9.72292 12.4176 9.83205C11.8194 10.1675 11.2709 10.585 10.7872 11.0729C10.6297 11.2317 10.6311 11.4881 10.7897 11.6453C10.948 11.8026 11.2051 11.8017 11.3621 11.6428Z" fill="#A16EEE"/>
<path d="M14.5122 9.88011C15.1027 9.74286 15.7223 9.68693 16.328 9.71849C16.5537 9.72986 16.7415 9.55849 16.7532 9.33524C16.7648 9.11199 16.593 8.92161 16.3698 8.91024C15.6897 8.87574 14.993 8.93711 14.3288 9.09143C14.111 9.14236 13.9755 9.35993 14.0263 9.57749C14.0759 9.79049 14.2882 9.93068 14.5122 9.88011Z" fill="#A16EEE"/>
<path d="M11.4385 21.9859C11.6141 22.1253 11.8683 22.0954 12.0073 21.9208C12.1463 21.7456 12.117 21.491 11.9419 21.3522C11.4632 20.9721 11.0404 20.5274 10.6854 20.0306C10.5554 19.8485 10.3026 19.8061 10.1206 19.9367C9.93876 20.0667 9.89669 20.3193 10.0266 20.5012C10.4258 21.0593 10.9008 21.5589 11.4385 21.9859Z" fill="#A16EEE"/>
<path d="M10.1106 12.5545C9.91451 12.447 9.66863 12.5184 9.56095 12.7148C9.23051 13.3176 8.98732 13.963 8.83788 14.6334C8.78932 14.8516 8.92676 15.0679 9.14494 15.1162C9.36313 15.165 9.57951 15.0274 9.62813 14.8092C9.76082 14.2134 9.97707 13.6397 10.2709 13.1037C10.3783 12.9077 10.3064 12.6617 10.1106 12.5545Z" fill="#A16EEE"/>
<path d="M9.05498 16.2469C8.83173 16.2601 8.66141 16.4515 8.67454 16.6747C8.71504 17.3622 8.85116 18.0381 9.07929 18.6838C9.15498 18.8975 9.38891 19.0039 9.59585 18.9305C9.8066 18.8559 9.91716 18.6247 9.84266 18.4137C9.63979 17.8401 9.51866 17.2389 9.48279 16.6274C9.46973 16.4044 9.27841 16.2371 9.05498 16.2469Z" fill="#A16EEE"/>
<path d="M18.84 22.1165C18.2902 22.3821 17.7064 22.569 17.1045 22.6715C16.8841 22.7091 16.7359 22.9182 16.7734 23.1386C16.8101 23.3537 17.0134 23.507 17.2404 23.4697C17.9173 23.3542 18.5741 23.1443 19.1926 22.8451C19.3937 22.7481 19.4779 22.5058 19.3807 22.3047C19.2834 22.1035 19.0421 22.0191 18.84 22.1165Z" fill="#A16EEE"/>
<path d="M13.5143 22.2752C13.3078 22.1898 13.0711 22.2882 12.9858 22.495C12.9005 22.7018 12.9991 22.9384 13.2057 23.0235C13.8399 23.285 14.5083 23.4555 15.1924 23.5301C15.4022 23.5566 15.6137 23.4021 15.6388 23.1718C15.663 22.9495 15.5025 22.7496 15.2804 22.7256C14.6721 22.6591 14.0778 22.5076 13.5143 22.2752Z" fill="#A16EEE"/>
<path d="M19.7433 10.8895C19.9257 11.0177 20.1786 10.9738 20.3072 10.7905C20.4355 10.6074 20.3911 10.3551 20.2082 10.2267C19.6451 9.83166 19.0307 9.5186 18.3819 9.29598C18.1702 9.22416 17.9403 9.33648 17.8677 9.54773C17.7952 9.75898 17.9077 9.98916 18.1191 10.0619C18.696 10.2599 19.2424 10.5382 19.7433 10.8895Z" fill="#A16EEE"/>
<path d="M22.5511 18.5437C22.7645 18.6052 22.99 18.4824 23.0518 18.2664C23.2403 17.6092 23.3358 16.9268 23.3358 16.2374C23.3358 15.9462 23.3185 15.6524 23.2843 15.3637C23.258 15.142 23.0575 14.982 22.8348 15.0095C22.6128 15.0357 22.454 15.2372 22.4805 15.4592C22.5108 15.7163 22.5263 15.9781 22.5263 16.2374C22.5263 16.8512 22.4413 17.4587 22.2736 18.0431C22.2119 18.2581 22.3362 18.482 22.5511 18.5437Z" fill="#A16EEE"/>
<path d="M20.8938 21.7038C21.4058 21.2446 21.8502 20.7178 22.2148 20.1375C22.3337 19.9484 22.2767 19.6983 22.0874 19.5794C21.898 19.4605 21.6485 19.5171 21.5293 19.7068C21.2048 20.2233 20.8092 20.6922 20.3533 21.1011C20.1868 21.2503 20.1729 21.5062 20.3222 21.6728C20.47 21.8376 20.7258 21.8543 20.8938 21.7038Z" fill="#A16EEE"/>
<path d="M22.5446 13.9124C22.7505 13.8255 22.8469 13.5877 22.7598 13.3818C22.4927 12.7506 22.1382 12.1596 21.7058 11.6251C21.5652 11.4512 21.3104 11.424 21.1366 11.5651C20.9628 11.7055 20.9357 11.9604 21.0765 12.1343C21.4612 12.6099 21.7766 13.1358 22.0141 13.6974C22.1024 13.9059 22.3424 13.9983 22.5446 13.9124Z" fill="#A16EEE"/>
<path d="M15.9982 11.9133C13.4821 11.9133 11.4355 13.9599 11.4355 16.476C11.4355 18.9921 13.4821 21.0387 15.9982 21.0387C18.5143 21.0387 20.5609 18.9921 20.5609 16.476C20.5609 13.9599 18.5144 11.9133 15.9982 11.9133ZM15.9982 20.2291C13.929 20.2291 12.2451 18.5452 12.2451 16.476C12.2451 14.4067 13.929 12.7229 15.9982 12.7229C18.0674 12.7229 19.7514 14.4067 19.7514 16.476C19.7514 18.5452 18.0675 20.2291 15.9982 20.2291Z" fill="#7D2AE8"/>
<path d="M6.87663 22.0555C4.24075 22.0555 2.09375 24.2024 2.09375 26.8384C2.09375 29.4775 4.24069 31.6245 6.87663 31.6245C9.51581 31.6245 11.6628 29.4775 11.6628 26.8384C11.6628 24.2024 9.51581 22.0555 6.87663 22.0555ZM8.60912 27.2431H7.28144V28.5708C7.28144 28.7942 7.10012 28.9755 6.87669 28.9755C6.65325 28.9755 6.47194 28.7942 6.47194 28.5708V27.2431H5.14744C4.924 27.2431 4.74269 27.0618 4.74269 26.8384C4.74269 26.6149 4.924 26.4336 5.14744 26.4336H6.47187V25.1092C6.47187 24.8857 6.65319 24.7044 6.87663 24.7044C7.10006 24.7044 7.28137 24.8857 7.28137 25.1092V26.4336H8.60906C8.8325 26.4336 9.01381 26.6149 9.01381 26.8384C9.01388 27.0618 8.83256 27.2431 8.60912 27.2431Z" fill="#BB98EF"/>
<path d="M23.6403 0.375549C21.0011 0.375549 18.8574 2.51924 18.8574 5.15842C18.8574 7.79761 21.0011 9.9413 23.6403 9.9413C26.2762 9.9413 28.4232 7.79761 28.4232 5.15842C28.4232 2.51924 26.2762 0.375549 23.6403 0.375549ZM25.3727 5.56317H21.9079C21.6844 5.56317 21.5031 5.38186 21.5031 5.15842C21.5031 4.93499 21.6844 4.75367 21.9079 4.75367H25.3727C25.5962 4.75367 25.7775 4.93499 25.7775 5.15842C25.7775 5.38186 25.5962 5.56317 25.3727 5.56317Z" fill="#BB98EF"/>
</svg>
