<svg width="36" height="36" viewBox="0 0 36 36" fill="none" xmlns="http://www.w3.org/2000/svg">
<g clip-path="url(#clip0_1630_6080)">
<path d="M17.9993 20.385C17.9562 20.3843 17.9139 20.3737 17.8755 20.3541L9.28055 16.1184C9.23364 16.0955 9.19406 16.0599 9.16624 16.0157C9.13842 15.9714 9.12347 15.9204 9.12305 15.8681V4.89938C9.12343 4.85206 9.13574 4.8056 9.15885 4.7643C9.18195 4.72301 9.21511 4.68821 9.25523 4.66313C9.29674 4.63627 9.3446 4.62083 9.39397 4.61836C9.44335 4.61589 9.49251 4.62648 9.53648 4.64907L18.123 8.89313C18.1704 8.91632 18.2102 8.95235 18.2381 8.99711C18.2659 9.04186 18.2807 9.09354 18.2805 9.14625V20.115C18.2806 20.1628 18.2686 20.2098 18.2454 20.2517C18.2223 20.2935 18.1889 20.3287 18.1484 20.3541C18.1025 20.3779 18.0509 20.3886 17.9993 20.385ZM9.67711 15.6909L17.718 19.6509V9.32063L9.67711 5.36063V15.6909Z" fill="#BB98EF"/>
<path d="M20.9794 18.9169C20.9166 18.9159 20.856 18.8939 20.8072 18.8545C20.7583 18.8151 20.7241 18.7605 20.7099 18.6994C20.6956 18.6383 20.7023 18.5742 20.7287 18.5173C20.7551 18.4603 20.7998 18.4139 20.8556 18.3853L26.3231 15.6909V5.36061L18.1247 9.39655C18.0913 9.41611 18.0543 9.42858 18.0159 9.43318C17.9775 9.43778 17.9386 9.43442 17.9015 9.42329C17.8645 9.41217 17.8301 9.39352 17.8006 9.36853C17.7711 9.34353 17.7471 9.31272 17.73 9.27801C17.713 9.24331 17.7032 9.20546 17.7015 9.16683C17.6997 9.1282 17.7059 9.08961 17.7197 9.05349C17.7335 9.01737 17.7546 8.98449 17.7817 8.95689C17.8088 8.9293 17.8413 8.90759 17.8772 8.89311L26.4806 4.65749C26.5246 4.63491 26.5737 4.62432 26.6231 4.62679C26.6725 4.62925 26.7204 4.64469 26.7619 4.67155C26.802 4.69663 26.8351 4.73143 26.8583 4.77273C26.8814 4.81402 26.8937 4.86048 26.8941 4.9078V15.8766C26.8936 15.9288 26.8787 15.9799 26.8509 16.0241C26.823 16.0683 26.7835 16.1039 26.7366 16.1269L21.0947 18.8887C21.0587 18.9062 21.0194 18.9158 20.9794 18.9169Z" fill="#BB98EF"/>
<path d="M9.3956 5.22001C9.34289 5.22012 9.29121 5.20541 9.24645 5.17756C9.2017 5.14971 9.16567 5.10985 9.14247 5.06251C9.12644 5.02878 9.11728 4.99218 9.11554 4.95486C9.1138 4.91755 9.11951 4.88026 9.13234 4.84517C9.14517 4.81009 9.16486 4.77791 9.19026 4.75052C9.21566 4.72313 9.24627 4.70107 9.28029 4.68564L17.8753 0.450014C17.9138 0.431139 17.9561 0.421326 17.999 0.421326C18.0419 0.421326 18.0843 0.431139 18.1228 0.450014L26.7178 4.65751C26.7537 4.67199 26.7861 4.6937 26.8132 4.72129C26.8403 4.74889 26.8614 4.78177 26.8752 4.81789C26.8891 4.85402 26.8953 4.8926 26.8935 4.93123C26.8917 4.96986 26.882 5.00771 26.8649 5.04241C26.8479 5.07712 26.8238 5.10793 26.7943 5.13293C26.7648 5.15792 26.7305 5.17657 26.6934 5.18769C26.6564 5.19882 26.6175 5.20218 26.5791 5.19758C26.5407 5.19298 26.5036 5.18051 26.4703 5.16095L17.999 1.01533L9.51935 5.19189C9.48078 5.21057 9.43845 5.22019 9.3956 5.22001Z" fill="#BB98EF"/>
<path d="M9.39727 35.5781C9.35441 35.5783 9.31209 35.5687 9.27352 35.55L0.667266 31.3144C0.619931 31.2912 0.580066 31.2552 0.552218 31.2104C0.524371 31.1657 0.509661 31.114 0.509766 31.0613V20.0925C0.50967 20.0447 0.521757 19.9977 0.544886 19.9559C0.568015 19.914 0.601422 19.8788 0.641953 19.8534C0.682485 19.8281 0.728804 19.8135 0.776538 19.8111C0.824272 19.8086 0.871845 19.8184 0.914766 19.8394L9.52102 24.075C9.56835 24.0982 9.60822 24.1342 9.63606 24.179C9.66391 24.2237 9.67862 24.2754 9.67852 24.3281V29.8491C9.67852 29.9237 9.64888 29.9952 9.59614 30.0479C9.5434 30.1007 9.47186 30.1303 9.39727 30.1303C9.32267 30.1303 9.25114 30.1007 9.19839 30.0479C9.14565 29.9952 9.11602 29.9237 9.11602 29.8491V24.5053L1.07227 20.5538V30.8869L9.11602 34.8441V32.3128C9.11602 32.2382 9.14565 32.1667 9.19839 32.114C9.25114 32.0612 9.32267 32.0316 9.39727 32.0316C9.47186 32.0316 9.5434 32.0612 9.59614 32.114C9.64888 32.1667 9.67852 32.2382 9.67852 32.3128V35.2969C9.67861 35.3447 9.66652 35.3917 9.6434 35.4335C9.62027 35.4754 9.58686 35.5106 9.54633 35.5359C9.50157 35.5637 9.44992 35.5783 9.39727 35.5781Z" fill="#7D2AE8"/>
<path d="M0.790501 20.4131C0.72776 20.4121 0.667151 20.3902 0.618316 20.3508C0.569481 20.3114 0.535225 20.2568 0.520997 20.1957C0.50677 20.1346 0.513388 20.0704 0.539799 20.0135C0.56621 19.9566 0.610897 19.9102 0.666751 19.8816L9.28144 15.615C9.31463 15.5972 9.35106 15.5862 9.38857 15.5828C9.42607 15.5793 9.46389 15.5834 9.49977 15.5949C9.53566 15.6063 9.56888 15.6249 9.59747 15.6494C9.62605 15.6739 9.64943 15.7039 9.66619 15.7376C9.68296 15.7714 9.69279 15.8081 9.69508 15.8457C9.69738 15.8833 9.6921 15.921 9.67956 15.9565C9.66702 15.992 9.64748 16.0246 9.62209 16.0525C9.5967 16.0803 9.56598 16.1027 9.53175 16.1184L0.917064 20.385C0.877642 20.4041 0.834303 20.4137 0.790501 20.4131Z" fill="#7D2AE8"/>
<path d="M26.6031 35.5472C26.5788 35.5499 26.5543 35.5499 26.53 35.5472H26.5075H26.4793L17.8787 31.3284C17.8455 31.3122 17.8158 31.2895 17.7913 31.2618C17.7668 31.2341 17.748 31.2018 17.736 31.1668C17.724 31.1318 17.719 31.0948 17.7212 31.0578C17.7235 31.0209 17.7331 30.9848 17.7493 30.9515C17.7656 30.9183 17.7882 30.8886 17.816 30.8641C17.8437 30.8396 17.876 30.8208 17.911 30.8088C17.946 30.7968 17.983 30.7918 18.0199 30.7941C18.0569 30.7964 18.093 30.8059 18.1262 30.8222L26.3246 34.8609V24.3084C26.3245 24.2557 26.3392 24.204 26.3671 24.1593C26.3949 24.1145 26.4348 24.0785 26.4821 24.0553L35.0884 19.8197C35.1313 19.7986 35.1789 19.7889 35.2266 19.7914C35.2744 19.7938 35.3207 19.8084 35.3612 19.8337C35.4017 19.8591 35.4351 19.8943 35.4583 19.9361C35.4814 19.978 35.4935 20.025 35.4934 20.0728V31.0415C35.4935 31.0943 35.4788 31.1459 35.4509 31.1907C35.4231 31.2355 35.3832 31.2715 35.3359 31.2947L26.7184 35.519C26.6824 35.5365 26.6431 35.5461 26.6031 35.5472ZM26.8843 24.4828V34.8159L34.9281 30.8559V20.5312L26.8843 24.4828Z" fill="#A16EEE"/>
<path d="M35.2101 20.3541C35.1673 20.3542 35.125 20.3446 35.0864 20.3259L26.4801 16.1072C26.4387 16.098 26.3998 16.0795 26.3665 16.0532C26.3332 16.0268 26.3063 15.9932 26.2878 15.955C26.2693 15.9168 26.2597 15.8748 26.2598 15.8323C26.2598 15.7899 26.2695 15.7479 26.288 15.7097C26.3066 15.6715 26.3336 15.638 26.3669 15.6117C26.4003 15.5854 26.4392 15.567 26.4807 15.5579C26.5222 15.5488 26.5652 15.5492 26.6065 15.5591C26.6478 15.569 26.6863 15.5881 26.7192 15.615L35.3254 19.8197C35.3828 19.8475 35.4291 19.8939 35.4566 19.9515C35.4841 20.009 35.4912 20.0742 35.4769 20.1363C35.4625 20.1984 35.4274 20.2538 35.3774 20.2933C35.3274 20.3329 35.2655 20.3543 35.2017 20.3541H35.2101Z" fill="#A16EEE"/>
<path d="M26.6039 24.5897C26.5611 24.5899 26.5188 24.5802 26.4802 24.5616L17.8768 20.3428C17.8096 20.31 17.7583 20.2518 17.734 20.1812C17.7098 20.1105 17.7146 20.0331 17.7474 19.9659C17.7802 19.8988 17.8383 19.8474 17.909 19.8232C17.9797 19.7989 18.0571 19.8037 18.1243 19.8366L26.7193 24.0553C26.7525 24.0715 26.7823 24.0941 26.8068 24.1218C26.8314 24.1496 26.8502 24.1819 26.8622 24.2169C26.8742 24.2519 26.8792 24.2889 26.8769 24.3259C26.8745 24.3628 26.8649 24.399 26.8486 24.4322C26.8261 24.4782 26.7914 24.5173 26.7482 24.545C26.7051 24.5728 26.6552 24.5882 26.6039 24.5897Z" fill="#A16EEE"/>
<path d="M9.39569 35.5781C9.33193 35.5784 9.26997 35.557 9.21998 35.5174C9.16998 35.4778 9.13492 35.4225 9.12053 35.3603C9.10615 35.2982 9.1133 35.2331 9.14081 35.1755C9.16832 35.118 9.21456 35.0716 9.27194 35.0438L17.7094 30.8869V20.5538L9.51944 24.5925C9.45231 24.6253 9.37489 24.6301 9.30421 24.6059C9.23353 24.5816 9.17539 24.5303 9.14257 24.4631C9.10975 24.396 9.10494 24.3186 9.1292 24.2479C9.15346 24.1772 9.20481 24.1191 9.27194 24.0863L17.8754 19.8506C17.9181 19.826 17.9666 19.813 18.016 19.813C18.0654 19.813 18.1139 19.826 18.1566 19.8506C18.1972 19.876 18.2306 19.9112 18.2537 19.953C18.2768 19.9949 18.2889 20.0419 18.2888 20.0897V31.0585C18.2889 31.1112 18.2742 31.1628 18.2464 31.2076C18.2185 31.2524 18.1787 31.2884 18.1313 31.3116L9.51944 35.55C9.48087 35.5687 9.43855 35.5783 9.39569 35.5781Z" fill="#7D2AE8"/>
</g>
<defs>
<clipPath id="clip0_1630_6080">
<rect width="36" height="36" fill="white"/>
</clipPath>
</defs>
</svg>
