<svg width="36" height="36" viewBox="0 0 36 36" fill="none" xmlns="http://www.w3.org/2000/svg">
<g clip-path="url(#clip0_2304_70683)">
<path d="M34.0989 32.852H32.4578V30.8814C32.4578 28.968 30.9011 27.4113 28.9876 27.4113H27.1343C27.2017 27.2893 27.2296 27.1465 27.2059 27.0032C27.1648 26.7562 26.9816 26.557 26.7388 26.4958C25.95 26.2969 25.1534 26.1262 24.351 25.982C26.4175 24.2779 27.7452 21.7863 27.9706 19.0977C27.9949 18.8074 27.7793 18.5524 27.4891 18.5281C27.1981 18.5039 26.9438 18.7193 26.9195 19.0096C26.6905 21.7412 25.1894 24.2468 22.8915 25.7498C21.3363 25.5363 19.6606 25.4161 18.0007 25.4161C16.4275 25.4161 14.7459 25.5252 13.1099 25.7498C10.5636 24.0872 9.04917 21.2985 9.04917 18.252C9.04917 13.7673 12.3976 9.95123 16.8379 9.37552C17.1268 9.33811 17.3306 9.07352 17.2931 8.78475C17.2557 8.49584 16.991 8.29158 16.7023 8.32948C11.7379 8.97305 7.99427 13.239 7.99427 18.2521C7.99427 21.2873 9.33879 24.0931 11.6459 25.9829C10.8451 26.127 10.0499 26.2975 9.26264 26.496C9.01999 26.5572 8.83669 26.7564 8.79555 27.0034C8.77172 27.1467 8.79963 27.2896 8.86706 27.4115H7.01384C5.10043 27.4115 3.54364 28.9681 3.54364 30.8816V32.8523H1.90255C1.14641 32.8523 0.53125 33.4674 0.53125 34.2236V34.6288C0.53125 35.385 1.14641 36.0001 1.90255 36.0001H34.0988C34.8549 36.0001 35.4701 35.385 35.4701 34.6288V34.2236C35.4702 33.4672 34.855 32.852 34.0989 32.852ZM28.9876 28.4661C30.3195 28.4661 31.403 29.5495 31.403 30.8813V32.852H18.9052L25.65 28.466L28.9876 28.4661ZM18.0007 26.4709C20.4652 26.4709 23.0103 26.7347 25.5215 27.2914L18.3223 31.9728C18.1631 32.0764 17.8385 32.0765 17.6792 31.9729L10.48 27.2914C12.9256 26.7492 15.4728 26.4709 18.0007 26.4709ZM4.59854 30.8814C4.59854 29.5496 5.68198 28.4662 7.01384 28.4662H10.3515L17.0963 32.8521H4.59854V30.8814ZM34.4153 34.6286C34.4153 34.8001 34.2704 34.9451 34.0989 34.9451H1.90262C1.73113 34.9451 1.58615 34.8002 1.58615 34.6286V34.2233C1.58615 34.0519 1.73106 33.9069 1.90262 33.9069C3.01096 33.9069 32.0183 33.9069 34.0989 33.9069C34.2704 33.9069 34.4153 34.0518 34.4153 34.2233V34.6286Z" fill="#BB98EF"/>
<path d="M18.0001 0C17.7088 0 17.4727 0.236109 17.4727 0.527413V6.21779C17.4727 6.50917 17.7088 6.74521 18.0001 6.74521C18.2913 6.74521 18.5275 6.5091 18.5275 6.21779V0.527413C18.5276 0.236109 18.2914 0 18.0001 0Z" fill="#A16EEE"/>
<path d="M13.9352 6.98079L11.7935 1.70884C11.6838 1.43877 11.3761 1.30883 11.1064 1.41866C10.8366 1.52828 10.7066 1.83597 10.8163 2.10582L12.9579 7.37778C13.0677 7.64806 13.3756 7.7775 13.6451 7.66795C13.9148 7.55834 14.0448 7.25065 13.9352 6.98079Z" fill="#A16EEE"/>
<path d="M10.0161 9.33152L6.01361 5.28681C5.80872 5.07974 5.47474 5.07805 5.26774 5.28287C5.06074 5.48769 5.05898 5.82167 5.2638 6.02874L9.26633 10.0735C9.47115 10.2805 9.80506 10.2823 10.0122 10.0775C10.2192 9.87258 10.221 9.53859 10.0161 9.33152Z" fill="#A16EEE"/>
<path d="M24.8935 1.41864C24.6237 1.30881 24.316 1.43889 24.2064 1.70882L22.0646 6.98084C21.9236 7.32812 22.1804 7.70689 22.5532 7.70689C22.7614 7.70689 22.9588 7.58265 23.042 7.37776L25.1836 2.10581C25.2932 1.83595 25.1633 1.52826 24.8935 1.41864Z" fill="#A16EEE"/>
<path d="M30.733 5.28292C30.526 5.07803 30.192 5.07972 29.9871 5.28686L25.9846 9.33165C25.7797 9.53865 25.7814 9.87263 25.9885 10.0775C26.1954 10.2823 26.5294 10.2807 26.7344 10.0736L30.7369 6.02879C30.9419 5.82172 30.9401 5.48774 30.733 5.28292Z" fill="#A16EEE"/>
<path d="M21.4235 11.855C21.1644 11.7215 20.8465 11.8234 20.713 12.0822C20.5796 12.3411 20.6813 12.6592 20.9403 12.7928C20.9724 12.8093 24.1517 14.4912 24.2005 18.2824C24.2042 18.5713 24.4396 18.803 24.7278 18.803C24.7301 18.803 24.7323 18.803 24.7347 18.8029C25.026 18.7992 25.2591 18.56 25.2553 18.2687C25.1984 13.8507 21.5776 11.9344 21.4235 11.855Z" fill="#7D2AE8"/>
<path d="M27.8532 16.5006C27.4823 14.4002 26.4676 12.5062 24.9189 11.0235C23.3657 9.53634 21.422 8.60463 19.2984 8.32929C19.009 8.29111 18.745 8.49565 18.7076 8.78456C18.6701 9.07348 18.8738 9.33792 19.1628 9.37533C22.9958 9.87223 26.1422 12.8777 26.8145 16.684C26.8597 16.9399 27.0822 17.1197 27.3333 17.1197C27.3637 17.1197 27.3946 17.1171 27.4256 17.1117C27.7124 17.061 27.9038 16.7874 27.8532 16.5006Z" fill="#7D2AE8"/>
</g>
<defs>
<clipPath id="clip0_2304_70683">
<rect width="36" height="36" fill="white"/>
</clipPath>
</defs>
</svg>
