<svg width="24" height="24" viewBox="0 0 24 24" fill="none" xmlns="http://www.w3.org/2000/svg">
<path d="M15 12C13.0013 11.4488 12.5512 10.9987 12 9C11.4488 10.9987 10.9987 11.4488 9 12C10.9987 12.5512 11.4488 13.0013 12 15C12.5512 13.0013 13.0013 12.5512 15 12Z" fill="#BB98EF"/>
<path d="M15 12C13.0013 11.4488 12.5512 10.9987 12 9C11.4488 10.9987 10.9987 11.4488 9 12C10.9987 12.5512 11.4488 13.0013 12 15C12.5512 13.0013 13.0013 12.5512 15 12Z" fill="#BB98EF"/>
<path d="M6.69844 6.97876C6.62719 6.97876 6.55594 6.95251 6.49969 6.89626L4.90969 5.30626C4.80094 5.19751 4.80094 5.01751 4.90969 4.90876C5.01844 4.80001 5.19844 4.80001 5.30719 4.90876L6.89719 6.49876C7.00594 6.60751 7.00594 6.78751 6.89719 6.89626C6.84094 6.95251 6.76969 6.97876 6.69844 6.97876Z" fill="#7D2AE8"/>
<path d="M8.81617 9.0975C8.74492 9.0975 8.67367 9.07125 8.61742 9.015L7.55617 7.95375C7.44742 7.845 7.44742 7.665 7.55617 7.55625C7.66492 7.4475 7.84492 7.4475 7.95367 7.55625L9.01492 8.6175C9.12367 8.72625 9.12367 8.90625 9.01492 9.015C8.95867 9.07125 8.88742 9.0975 8.81617 9.0975Z" fill="#7D2AE8"/>
<path d="M5.10844 19.1737C5.03719 19.1737 4.96594 19.1475 4.90969 19.0912C4.80094 18.9825 4.80094 18.8025 4.90969 18.6937L6.49969 17.1037C6.60844 16.995 6.78844 16.995 6.89719 17.1037C7.00594 17.2125 7.00594 17.3925 6.89719 17.5012L5.30719 19.0912C5.25094 19.1475 5.17969 19.1737 5.10844 19.1737Z" fill="#7D2AE8"/>
<path d="M7.75883 16.5225C7.68758 16.5225 7.61633 16.4963 7.56008 16.44C7.45133 16.3313 7.45133 16.1513 7.56008 16.0425L8.62133 14.9813C8.73008 14.8725 8.91008 14.8725 9.01883 14.9813C9.12758 15.09 9.12758 15.27 9.01883 15.3788L7.95758 16.44C7.90133 16.4963 7.83008 16.5225 7.75883 16.5225Z" fill="#7D2AE8"/>
<path d="M18.8918 19.1737C18.8205 19.1737 18.7493 19.1475 18.693 19.0912L17.103 17.5012C16.9943 17.3925 16.9943 17.2125 17.103 17.1037C17.2118 16.995 17.3918 16.995 17.5005 17.1037L19.0905 18.6937C19.1993 18.8025 19.1993 18.9825 19.0905 19.0912C19.0343 19.1475 18.963 19.1737 18.8918 19.1737Z" fill="#7D2AE8"/>
<path d="M16.242 16.5225C16.1707 16.5225 16.0995 16.4963 16.0432 16.44L14.982 15.3788C14.8732 15.27 14.8732 15.09 14.982 14.9813C15.0907 14.8725 15.2707 14.8725 15.3795 14.9813L16.4407 16.0425C16.5495 16.1513 16.5495 16.3313 16.4407 16.44C16.3845 16.4963 16.3132 16.5225 16.242 16.5225Z" fill="#7D2AE8"/>
<path d="M5.07073 9.41251C5.03323 9.41251 4.99948 9.40501 4.96198 9.39001L2.88448 8.52751C2.74198 8.46751 2.67448 8.30251 2.73073 8.16001C2.79073 8.01751 2.95573 7.95001 3.09823 8.00626L5.17573 8.86876C5.31823 8.92876 5.38573 9.09376 5.32948 9.23626C5.28448 9.34501 5.17948 9.40876 5.07073 9.40876V9.41251Z" fill="#BB98EF"/>
<path d="M7.84167 10.56C7.80417 10.56 7.77042 10.5525 7.73292 10.5375L6.34542 9.96375C6.20292 9.90375 6.13542 9.73875 6.19167 9.59625C6.25167 9.45375 6.41667 9.38625 6.55917 9.4425L7.94667 10.0163C8.08917 10.0763 8.15667 10.2413 8.10042 10.3838C8.05542 10.4925 7.95042 10.5563 7.84167 10.5563V10.56Z" fill="#BB98EF"/>
<path d="M2.99155 16.0125C2.8828 16.0125 2.7778 15.9487 2.7328 15.84C2.6728 15.6975 2.7403 15.5325 2.88655 15.4725L4.96405 14.61C5.10655 14.5537 5.27155 14.6175 5.33155 14.7637C5.39155 14.9062 5.32405 15.0712 5.1778 15.1312L3.1003 15.9937C3.06655 16.0087 3.02905 16.0162 2.99155 16.0162V16.0125Z" fill="#BB98EF"/>
<path d="M6.45834 14.5763C6.34959 14.5763 6.24459 14.5125 6.19959 14.4038C6.13959 14.2613 6.20709 14.0963 6.35334 14.0363L7.74084 13.4625C7.88334 13.4025 8.04834 13.47 8.10834 13.6163C8.16834 13.7588 8.10084 13.9238 7.95459 13.9838L6.56709 14.5575C6.53334 14.5725 6.49584 14.58 6.45834 14.58V14.5763Z" fill="#BB98EF"/>
<path d="M21.0082 16.0125C20.9707 16.0125 20.937 16.005 20.8995 15.99L18.822 15.1275C18.6795 15.0675 18.612 14.9025 18.6682 14.76C18.7282 14.6175 18.8932 14.55 19.0357 14.6062L21.1132 15.4687C21.2557 15.5287 21.3232 15.6937 21.267 15.8362C21.222 15.945 21.117 16.0087 21.0082 16.0087V16.0125Z" fill="#BB98EF"/>
<path d="M17.5428 14.5763C17.5053 14.5763 17.4716 14.5688 17.4341 14.5538L16.0466 13.98C15.9041 13.92 15.8366 13.755 15.8928 13.6125C15.9528 13.47 16.1178 13.4025 16.2603 13.4588L17.6478 14.0325C17.7903 14.0925 17.8578 14.2575 17.8016 14.4C17.7566 14.5088 17.6516 14.5725 17.5428 14.5725V14.5763Z" fill="#BB98EF"/>
<path d="M18.929 9.4125C18.8203 9.4125 18.7153 9.34875 18.6703 9.24C18.6103 9.0975 18.6778 8.9325 18.824 8.8725L20.9015 8.01C21.044 7.95375 21.209 8.0175 21.269 8.16375C21.329 8.30625 21.2615 8.47125 21.1153 8.53125L19.0378 9.39375C19.004 9.40875 18.9665 9.41625 18.929 9.41625V9.4125Z" fill="#BB98EF"/>
<path d="M16.1595 10.56C16.0508 10.56 15.9458 10.4963 15.9008 10.3875C15.8408 10.245 15.9083 10.08 16.0545 10.02L17.442 9.44625C17.5845 9.38625 17.7495 9.45375 17.8095 9.6C17.8695 9.7425 17.802 9.9075 17.6558 9.9675L16.2683 10.5413C16.2345 10.5563 16.197 10.5638 16.1595 10.5638V10.56Z" fill="#BB98EF"/>
<path d="M17.3018 6.97876C17.2305 6.97876 17.1593 6.95251 17.103 6.89626C16.9943 6.78751 16.9943 6.60751 17.103 6.49876L18.693 4.90876C18.8018 4.80001 18.9818 4.80001 19.0905 4.90876C19.1993 5.01751 19.1993 5.19751 19.0905 5.30626L17.5005 6.89626C17.4443 6.95251 17.373 6.97876 17.3018 6.97876Z" fill="#7D2AE8"/>
<path d="M15.1846 9.0975C15.1134 9.0975 15.0421 9.07125 14.9859 9.015C14.8771 8.90625 14.8771 8.72625 14.9859 8.6175L16.0471 7.55625C16.1559 7.4475 16.3359 7.4475 16.4446 7.55625C16.5534 7.665 16.5534 7.845 16.4446 7.95375L15.3834 9.015C15.3271 9.07125 15.2559 9.0975 15.1846 9.0975Z" fill="#7D2AE8"/>
<path d="M12 4.78125C11.8462 4.78125 11.7188 4.65375 11.7188 4.5V2.25C11.7188 2.09625 11.8462 1.96875 12 1.96875C12.1538 1.96875 12.2812 2.09625 12.2812 2.25V4.5C12.2812 4.65375 12.1538 4.78125 12 4.78125Z" fill="#BB98EF"/>
<path d="M12 7.78125C11.8462 7.78125 11.7188 7.65375 11.7188 7.5V6C11.7188 5.84625 11.8462 5.71875 12 5.71875C12.1538 5.71875 12.2812 5.84625 12.2812 6V7.5C12.2812 7.65375 12.1538 7.78125 12 7.78125Z" fill="#BB98EF"/>
<path d="M12 22.0312C11.8462 22.0312 11.7188 21.9037 11.7188 21.75V19.5C11.7188 19.3462 11.8462 19.2188 12 19.2188C12.1538 19.2188 12.2812 19.3462 12.2812 19.5V21.75C12.2812 21.9037 12.1538 22.0312 12 22.0312Z" fill="#BB98EF"/>
<path d="M12 18.2812C11.8462 18.2812 11.7188 18.1537 11.7188 18V16.5C11.7188 16.3462 11.8462 16.2188 12 16.2188C12.1538 16.2188 12.2812 16.3462 12.2812 16.5V18C12.2812 18.1537 12.1538 18.2812 12 18.2812Z" fill="#BB98EF"/>
<path d="M12 22.0312C11.8462 22.0312 11.7188 21.9037 11.7188 21.75V19.5C11.7188 19.3462 11.8462 19.2188 12 19.2188C12.1538 19.2188 12.2812 19.3462 12.2812 19.5V21.75C12.2812 21.9037 12.1538 22.0312 12 22.0312Z" fill="#BB98EF"/>
<path d="M12 18.2812C11.8462 18.2812 11.7188 18.1537 11.7188 18V16.5C11.7188 16.3462 11.8462 16.2188 12 16.2188C12.1538 16.2188 12.2812 16.3462 12.2812 16.5V18C12.2812 18.1537 12.1538 18.2812 12 18.2812Z" fill="#BB98EF"/>
<path d="M9.13139 5.35124C9.02264 5.35124 8.91764 5.28749 8.87264 5.17874L8.01014 3.10124C7.95014 2.95874 8.01764 2.79374 8.16389 2.73374C8.30639 2.67374 8.47139 2.74124 8.53139 2.88749L9.39389 4.96499C9.45389 5.10749 9.38639 5.27249 9.24014 5.33249C9.20639 5.34749 9.16889 5.35499 9.13139 5.35499V5.35124Z" fill="#A16EEE"/>
<path d="M10.2782 8.1225C10.1694 8.1225 10.0644 8.05875 10.0194 7.95L9.44569 6.5625C9.38569 6.42 9.45319 6.255 9.59944 6.195C9.74194 6.135 9.90694 6.2025 9.96694 6.34875L10.5407 7.73625C10.6007 7.87875 10.5332 8.04375 10.3869 8.10375C10.3532 8.11875 10.3157 8.12625 10.2782 8.12625V8.1225Z" fill="#A16EEE"/>
<path d="M4.5 12.2812H2.25C2.09625 12.2812 1.96875 12.1538 1.96875 12C1.96875 11.8462 2.09625 11.7188 2.25 11.7188H4.5C4.65375 11.7188 4.78125 11.8462 4.78125 12C4.78125 12.1538 4.65375 12.2812 4.5 12.2812Z" fill="#A16EEE"/>
<path d="M7.5 12.2812H6C5.84625 12.2812 5.71875 12.1538 5.71875 12C5.71875 11.8462 5.84625 11.7188 6 11.7188H7.5C7.65375 11.7188 7.78125 11.8462 7.78125 12C7.78125 12.1538 7.65375 12.2812 7.5 12.2812Z" fill="#A16EEE"/>
<path d="M8.26862 21.2887C8.23112 21.2887 8.19737 21.2812 8.15987 21.2662C8.01737 21.2062 7.94987 21.0412 8.00612 20.8987L8.86862 18.8212C8.92862 18.6787 9.09362 18.6112 9.23612 18.6675C9.37862 18.7275 9.44612 18.8925 9.38987 19.035L8.52737 21.1125C8.48237 21.2212 8.37737 21.285 8.26862 21.285V21.2887Z" fill="#A16EEE"/>
<path d="M9.70417 17.8238C9.66667 17.8238 9.63292 17.8163 9.59542 17.8013C9.45292 17.7413 9.38542 17.5763 9.44167 17.4338L10.0154 16.0463C10.0754 15.9038 10.2404 15.8363 10.3829 15.8925C10.5254 15.9525 10.5929 16.1175 10.5367 16.26L9.96292 17.6475C9.91792 17.7563 9.81292 17.82 9.70417 17.82V17.8238Z" fill="#A16EEE"/>
<path d="M15.731 21.2887C15.6222 21.2887 15.5172 21.225 15.4722 21.1162L14.6097 19.0387C14.5497 18.8962 14.6172 18.7312 14.7635 18.6712C14.906 18.6112 15.071 18.6787 15.131 18.825L15.9935 20.9025C16.0535 21.045 15.986 21.21 15.8398 21.27C15.806 21.285 15.7685 21.2925 15.731 21.2925V21.2887Z" fill="#A16EEE"/>
<path d="M14.2958 17.8237C14.187 17.8237 14.082 17.76 14.037 17.6512L13.4633 16.2637C13.4033 16.1212 13.4708 15.9562 13.617 15.8962C13.7595 15.84 13.9245 15.9037 13.9845 16.05L14.5583 17.4375C14.6183 17.58 14.5508 17.745 14.4045 17.805C14.3708 17.82 14.3333 17.8275 14.2958 17.8275V17.8237Z" fill="#A16EEE"/>
<path d="M21.75 12.2812H19.5C19.3462 12.2812 19.2188 12.1538 19.2188 12C19.2188 11.8462 19.3462 11.7188 19.5 11.7188H21.75C21.9037 11.7188 22.0312 11.8462 22.0312 12C22.0312 12.1538 21.9037 12.2812 21.75 12.2812Z" fill="#A16EEE"/>
<path d="M18 12.2812H16.5C16.3462 12.2812 16.2188 12.1538 16.2188 12C16.2188 11.8462 16.3462 11.7188 16.5 11.7188H18C18.1537 11.7188 18.2812 11.8462 18.2812 12C18.2812 12.1538 18.1537 12.2812 18 12.2812Z" fill="#A16EEE"/>
<path d="M14.8682 5.35125C14.8307 5.35125 14.797 5.34375 14.7595 5.32875C14.617 5.26875 14.5495 5.10375 14.6057 4.96125L15.4682 2.88375C15.5282 2.74125 15.6932 2.67375 15.8357 2.73C15.9782 2.79 16.0457 2.955 15.9895 3.0975L15.127 5.175C15.082 5.28375 14.977 5.3475 14.8682 5.3475V5.35125Z" fill="#A16EEE"/>
<path d="M13.7217 8.1225C13.6842 8.1225 13.6505 8.115 13.613 8.1C13.4705 8.04 13.403 7.875 13.4592 7.7325L14.033 6.345C14.093 6.2025 14.258 6.135 14.4005 6.19125C14.543 6.25125 14.6105 6.41625 14.5542 6.55875L13.9805 7.94625C13.9355 8.055 13.8305 8.11875 13.7217 8.11875V8.1225Z" fill="#A16EEE"/>
<path d="M21.75 12.2812H19.5C19.3462 12.2812 19.2188 12.1538 19.2188 12C19.2188 11.8462 19.3462 11.7188 19.5 11.7188H21.75C21.9037 11.7188 22.0312 11.8462 22.0312 12C22.0312 12.1538 21.9037 12.2812 21.75 12.2812Z" fill="#A16EEE"/>
<path d="M18 12.2812H16.5C16.3462 12.2812 16.2188 12.1538 16.2188 12C16.2188 11.8462 16.3462 11.7188 16.5 11.7188H18C18.1537 11.7188 18.2812 11.8462 18.2812 12C18.2812 12.1538 18.1537 12.2812 18 12.2812Z" fill="#A16EEE"/>
<path d="M4.5 12.2812H2.25C2.09625 12.2812 1.96875 12.1538 1.96875 12C1.96875 11.8462 2.09625 11.7188 2.25 11.7188H4.5C4.65375 11.7188 4.78125 11.8462 4.78125 12C4.78125 12.1538 4.65375 12.2812 4.5 12.2812Z" fill="#A16EEE"/>
<path d="M7.5 12.2812H6C5.84625 12.2812 5.71875 12.1538 5.71875 12C5.71875 11.8462 5.84625 11.7188 6 11.7188H7.5C7.65375 11.7188 7.78125 11.8462 7.78125 12C7.78125 12.1538 7.65375 12.2812 7.5 12.2812Z" fill="#A16EEE"/>
<path d="M20.1416 4.13999C20.0704 4.13999 19.9991 4.11374 19.9429 4.05749C19.8341 3.94874 19.8341 3.76874 19.9429 3.65999L21.5516 2.05124C21.6604 1.94249 21.8404 1.94249 21.9491 2.05124C22.0579 2.15999 22.0579 2.33999 21.9491 2.44874L20.3404 4.05749C20.2841 4.11374 20.2129 4.13999 20.1416 4.13999Z" fill="#7D2AE8"/>
<path d="M3.85781 4.13999C3.78656 4.13999 3.71531 4.11374 3.65906 4.05749L2.05031 2.44874C1.94156 2.33999 1.94156 2.15999 2.05031 2.05124C2.15906 1.94249 2.33906 1.94249 2.44781 2.05124L4.05656 3.65999C4.16531 3.76874 4.16531 3.94874 4.05656 4.05749C4.00031 4.11374 3.92906 4.13999 3.85781 4.13999Z" fill="#7D2AE8"/>
<path d="M21.7504 22.0312C21.6791 22.0312 21.6079 22.005 21.5516 21.9487L19.9429 20.34C19.8341 20.2312 19.8341 20.0512 19.9429 19.9425C20.0516 19.8337 20.2316 19.8337 20.3404 19.9425L21.9491 21.5512C22.0579 21.66 22.0579 21.84 21.9491 21.9487C21.8929 22.005 21.8216 22.0312 21.7504 22.0312Z" fill="#7D2AE8"/>
<path d="M2.24906 22.0312C2.17781 22.0312 2.10656 22.005 2.05031 21.9487C1.94156 21.84 1.94156 21.66 2.05031 21.5512L3.65906 19.9425C3.76781 19.8337 3.94781 19.8337 4.05656 19.9425C4.16531 20.0512 4.16531 20.2312 4.05656 20.34L2.44781 21.9487C2.39156 22.005 2.32031 22.0312 2.24906 22.0312Z" fill="#7D2AE8"/>
</svg>
