<svg width="27" height="35" viewBox="0 0 27 35" fill="none" xmlns="http://www.w3.org/2000/svg">
<path d="M11.4288 31.3041H9.43408C8.8818 31.3041 8.43408 30.8563 8.43408 30.3041V28.7371M11.4288 31.3041V33.8711M11.4288 31.3041H15.7069M15.7069 31.3041H17.7016C18.2538 31.3041 18.7016 30.8563 18.7016 30.3041V28.7371M15.7069 31.3041V33.8711M9.71752 34.2989H16.9903M13.5678 23.603H17.7016C18.2538 23.603 18.7016 24.0507 18.7016 24.603V28.7371M13.5678 23.603H9.43408C8.8818 23.603 8.43408 24.0507 8.43408 24.603V28.7371M13.5678 23.603V15.4742M8.43408 28.7371H18.7016M25.3858 9.91237C26.4555 12.4405 23.8898 14.6639 23.0643 15.2954C22.907 15.4157 22.7131 15.4742 22.515 15.4742H4.60263C4.48382 15.4742 4.36725 15.4538 4.25806 15.407C3.57462 15.1138 1.00049 13.861 1.00049 11.6237C1.00049 7.77319 4.85079 7.77319 4.85079 7.77319C4.85079 7.77319 5.70642 0.5 12.1236 0.5C19.3964 0.5 19.8242 7.77319 19.8242 7.77319C19.8242 7.77319 24.1185 6.91767 25.3858 9.91237Z" stroke="#008D93"/>
<path d="M6.99023 10.6958C7.73888 10.6958 8.34559 11.3027 8.3457 12.0513C8.3457 12.8 7.73895 13.4067 6.99023 13.4067C6.24159 13.4067 5.63477 12.7999 5.63477 12.0513C5.63487 11.3027 6.24166 10.6959 6.99023 10.6958Z" stroke="#008D93"/>
<path d="M12.9781 10.6958C13.7268 10.6958 14.3335 11.3027 14.3336 12.0513C14.3336 12.8 13.7269 13.4067 12.9781 13.4067C12.2295 13.4067 11.6227 12.7999 11.6227 12.0513C11.6228 11.3027 12.2296 10.6959 12.9781 10.6958Z" stroke="#008D93"/>
<path d="M18.9661 10.6958C19.7147 10.6958 20.3214 11.3027 20.3215 12.0513C20.3215 12.8 19.7148 13.4067 18.9661 13.4067C18.2174 13.4067 17.6106 12.7999 17.6106 12.0513C17.6107 11.3027 18.2175 10.6959 18.9661 10.6958Z" stroke="#008D93"/>
<path d="M12.5549 3.06763C15.0785 3.56783 16.0926 4.34043 16.833 6.91814" stroke="#008D93" stroke-linecap="round"/>
</svg>
