<svg width="35" height="38" viewBox="0 0 35 38" fill="none" xmlns="http://www.w3.org/2000/svg">
<path d="M4.62476 18.0611L12.1684 9.67827C12.4382 9.37853 12.8616 9.27012 13.2422 9.40335L20.9155 12.0893C21.2686 12.2129 21.6613 12.129 21.9331 11.8719L30.5101 3.75757" stroke="#4E4269" stroke-linecap="round"/>
<path d="M6.29328 37.2498H2.79614C2.24386 37.2498 1.79614 36.8021 1.79614 36.2498V28.9282C1.79614 28.3759 2.24386 27.9282 2.79614 27.9282H6.29328C6.84557 27.9282 7.29328 28.3759 7.29328 28.9282V36.2498C7.29328 36.8021 6.84557 37.2498 6.29328 37.2498Z" fill="#4E4269"/>
<path d="M15.17 37.2498H10.8707C10.3184 37.2498 9.87073 36.8021 9.87073 36.2498V19.1627C9.87073 18.6104 10.3184 18.1627 10.8707 18.1627H15.17C15.7223 18.1627 16.17 18.6104 16.17 19.1627V36.2498C16.17 36.8021 15.7223 37.2498 15.17 37.2498Z" fill="#4E4269"/>
<path d="M24.0467 37.2498H20.1913C19.639 37.2498 19.1913 36.8021 19.1913 36.2498V22.2699C19.1913 21.7176 19.639 21.2699 20.1913 21.2699H24.0467C24.599 21.2699 25.0467 21.7176 25.0467 22.2699V36.2498C25.0467 36.8021 24.599 37.2498 24.0467 37.2498Z" fill="#4E4269"/>
<path d="M33.3672 37.2498H29.068C28.5157 37.2498 28.068 36.8021 28.068 36.2498V12.5044C28.068 11.9521 28.5157 11.5044 29.068 11.5044H33.3672C33.9195 11.5044 34.3672 11.9521 34.3672 12.5044V36.2498C34.3672 36.8021 33.9195 37.2498 33.3672 37.2498Z" fill="#4E4269"/>
<ellipse cx="3.2957" cy="19.3938" rx="2.66301" ry="2.66332" fill="#4E4269"/>
<ellipse cx="12.6106" cy="9.62889" rx="2.66301" ry="2.66332" fill="#4E4269"/>
<ellipse cx="21.4979" cy="12.2915" rx="2.66301" ry="2.66332" fill="#4E4269"/>
<ellipse cx="30.8146" cy="3.41332" rx="2.66301" ry="2.66332" fill="#4E4269"/>
</svg>
