<svg width="35" height="36" viewBox="0 0 35 36" fill="none" xmlns="http://www.w3.org/2000/svg">
<path d="M11.8493 30.6594V30.6594C10.6507 30.6594 9.67905 31.631 9.67905 32.8296V33.9998C9.67905 34.5521 10.1268 34.9998 10.679 34.9998H24.5939C25.1462 34.9998 25.5939 34.5521 25.5939 33.9998V32.8296C25.5939 31.631 24.6223 30.6594 23.4237 30.6594V30.6594M11.8493 30.6594C11.7139 27.5734 11.0234 26.0608 8.93898 24.3402C8.54525 24.0152 8.42904 23.4539 8.68877 23.0144L17.6365 7.87207M11.8493 30.6594H23.4237M17.6365 7.87207L26.6169 23.0698C26.8625 23.4853 26.7731 24.014 26.4234 24.3467C24.6108 26.0714 23.9167 27.5811 23.4237 30.6594M17.6365 7.87207V17.638" stroke="#008D93"/>
<ellipse cx="5.34403" cy="15.1064" rx="1.80851" ry="1.80851" stroke="#008D93"/>
<ellipse cx="17.6473" cy="19.4472" rx="1.80851" ry="1.80851" stroke="#008D93"/>
<ellipse cx="29.9345" cy="15.1064" rx="1.80851" ry="1.80851" stroke="#008D93"/>
<ellipse cx="17.6473" cy="3.16984" rx="1.80851" ry="1.80851" stroke="#008D93"/>
<path d="M5.34207 13.2979C5.29734 13.2661 7.49203 4.39371 15.8314 3.29226M29.5761 13.2979C29.5761 13.2979 27.9944 4.44013 19.5056 3.29226M15.8314 2.80851H4.97872M4.97872 2.80851V2C4.97872 1.44772 4.53101 1 3.97872 1H2C1.44772 1 1 1.44772 1 2V3.97873C1 4.53101 1.44772 4.97873 2 4.97873H3.97872C4.53101 4.97873 4.97872 4.53102 4.97872 3.97873V2.80851ZM19.5056 2.80851H30.2988M30.2988 2.80851V3.97873C30.2988 4.53102 30.7466 4.97873 31.2988 4.97873H33.2776C33.8299 4.97873 34.2776 4.53102 34.2776 3.97873V2C34.2776 1.44772 33.8299 1 33.2776 1H31.2988C30.7466 1 30.2988 1.44772 30.2988 2V2.80851Z" stroke="#008D93"/>
</svg>
