<svg width="36" height="36" viewBox="0 0 36 36" fill="none" xmlns="http://www.w3.org/2000/svg">
<path d="M8.11587 16.0691L19.2048 27.5516M8.11587 16.0691C8.96915 14.1914 10.0119 12.4182 11.2338 10.7929M8.11587 16.0691C7.64816 17.0983 7.23738 18.1589 6.88523 19.2439M19.2048 27.5516C18.2779 27.9988 17.3114 28.4302 16.3057 28.8473M19.2048 27.5516C21.3528 26.5151 23.2877 25.3941 25.0029 24.1705M16.3057 28.8473C15.8767 29.0253 15.4405 29.2006 14.9973 29.3734C14.2543 29.6631 13.4126 29.466 12.862 28.8891L6.90347 22.6468C6.4388 22.16 6.24565 21.471 6.41927 20.8208C6.56098 20.2901 6.71637 19.7642 6.88523 19.2439M16.3057 28.8473L17.1536 34.4259C17.2644 35.1546 18.0986 35.5171 18.7069 35.1009L23.8949 31.5512C24.1379 31.385 24.2953 31.1201 24.3251 30.8272L25.0029 24.1705M25.0029 24.1705C32.2097 19.0292 35.5383 12.0783 34.5123 1.99309C34.4656 1.53467 34.1018 1.17104 33.643 1.12821C23.7772 0.207182 16.0906 4.33263 11.2338 10.7929M11.2338 10.7929L5.1826 11.3172C4.88405 11.3431 4.61284 11.5015 4.44362 11.7488L0.90565 16.9197C0.487824 17.5304 0.854908 18.3676 1.58715 18.474L6.88523 19.2439M0.724761 28.1226L4.34857 24.7662M0.724761 34.9129L7.61 28.1226M6.88523 35.2752L11.2338 30.9267" stroke="#008D93" stroke-linecap="round"/>
<path d="M24.2754 7.5105C26.4009 7.51053 28.124 9.23364 28.124 11.3591C28.124 13.4846 26.4009 15.2077 24.2754 15.2078C22.1499 15.2078 20.4268 13.4846 20.4268 11.3591C20.4268 9.23362 22.1499 7.5105 24.2754 7.5105Z" stroke="#008D93"/>
</svg>
