<svg width="41" height="40" viewBox="0 0 41 40" fill="none" xmlns="http://www.w3.org/2000/svg">
<path d="M20.2463 6.99731C16.9798 6.99731 13.7144 8.24028 11.2277 10.727C8.82299 13.1318 7.49861 16.3347 7.49854 19.7457C7.49854 23.1567 8.82291 26.3596 11.2276 28.7643C13.6294 31.1661 16.8178 32.4875 20.2088 32.4876C20.2204 32.4876 20.232 32.4876 20.2436 32.4876C23.6371 32.4785 26.832 31.1474 29.2399 28.7394C31.6478 26.3315 32.9788 23.1365 32.9879 19.7431C32.996 16.7318 31.9616 13.8791 30.0547 11.5925L27.815 13.8322C29.1322 15.5125 29.8435 17.5701 29.8378 19.7363C29.8309 22.2916 28.8278 24.6983 27.0132 26.5128C25.1987 28.3274 22.7921 29.3304 20.2368 29.3373C20.2281 29.3373 20.2192 29.3373 20.2105 29.3373C17.6598 29.3373 15.2613 28.3431 13.4542 26.5359C11.6403 24.7219 10.6413 22.3101 10.6413 19.7447C10.6413 17.1793 11.6403 14.7675 13.4542 12.9535C16.9184 9.48935 22.3919 9.23028 26.1571 12.1755L28.3968 9.93606C26.0432 7.9777 23.1446 6.99731 20.2463 6.99731Z" fill="#4E4269"/>
<path d="M20.2453 12.4878C18.3858 12.4878 16.527 13.1954 15.1115 14.6109C13.7402 15.9823 12.985 17.8056 12.985 19.7449C12.985 21.6842 13.7402 23.5075 15.1115 24.8788C16.4758 26.2431 18.2862 26.9937 20.2107 26.9937H20.2306C22.1623 26.9886 23.9824 26.2293 25.356 24.8557C26.7296 23.4821 27.4888 21.6618 27.494 19.7302C27.4992 17.7981 26.7481 15.9801 25.3791 14.611C23.9639 13.1956 22.1043 12.4878 20.2453 12.4878ZM19.1901 23.8475L15.7881 20.4455L17.4454 18.7882L19.1901 20.533L23.2637 16.4592L24.9209 18.1165L19.1901 23.8475Z" fill="#4E4269"/>
<path d="M31.718 9.92923C34.0659 12.6648 35.3414 16.1093 35.3316 19.7495C35.3209 23.7666 33.746 27.5479 30.8972 30.3968C28.0484 33.2458 24.267 34.8206 20.2499 34.8314C20.2364 34.8314 20.2222 34.8315 20.2087 34.8315C16.1913 34.8315 12.4152 33.2666 9.57039 30.4217C6.72296 27.5743 5.15484 23.7827 5.15484 19.7458C5.15484 15.7088 6.72296 11.9173 9.57046 9.06985C15.178 3.46227 24.1355 3.19649 30.0606 8.27235L32.2494 6.08376C28.9339 3.16446 24.7158 1.5686 20.2466 1.5686C15.383 1.5686 10.816 3.45712 7.38687 6.88626C0.296011 13.9773 0.296011 25.5152 7.38687 32.6062C10.8148 36.034 15.3662 37.9201 20.2077 37.9201C20.2242 37.9201 20.2409 37.9201 20.2574 37.92C25.0964 37.907 29.6505 36.0108 33.0807 32.5804C36.5109 29.1501 38.4072 24.5959 38.4202 19.757C38.4322 15.2886 36.8344 11.0681 33.9043 7.74306L31.718 9.92923Z" fill="#4E4269"/>
</svg>
