<svg width="24" height="24" viewBox="0 0 24 24" fill="none" xmlns="http://www.w3.org/2000/svg">
<g clip-path="url(#clip0_1160_1649)">
<path d="M1.19922 11.5999V21.1999C1.20098 22.7456 2.45355 23.9981 3.99922 23.9999H19.1992C20.7449 23.9981 21.9975 22.7456 21.9992 21.1999V18.7263C22.477 18.5574 22.7971 18.1066 22.7992 17.5999V15.1999C22.7971 14.6932 22.477 14.2424 21.9992 14.0735V11.5999C21.9978 10.2698 21.0621 9.12382 19.7592 8.85629L18.8272 4.67709C18.7583 4.366 18.5685 4.0951 18.2997 3.92409C18.0308 3.75309 17.705 3.69603 17.394 3.76549L16.9984 3.85349L14.6212 0.503889C14.2364 -0.0352614 13.4874 -0.16059 12.948 0.223889L3.64282 6.82509L3.49642 6.85749C3.18516 6.92639 2.91412 7.11632 2.74309 7.38535C2.57206 7.65438 2.51512 7.98041 2.58482 8.29149L2.76402 9.09149C1.80752 9.56166 1.2009 10.5341 1.19922 11.5999ZM21.9992 17.5999C21.9992 17.8208 21.8201 17.9999 21.5992 17.9999H18.3992C17.5156 17.9999 16.7992 17.2835 16.7992 16.3999C16.7992 15.5162 17.5156 14.7999 18.3992 14.7999H21.5992C21.8201 14.7999 21.9992 14.979 21.9992 15.1999V17.5999ZM13.4112 0.873889C13.4976 0.812244 13.6049 0.787431 13.7095 0.80491C13.8142 0.822389 13.9076 0.880727 13.9692 0.967089L16.15 4.04189L15.3028 4.23029L14.2392 2.73629C14.1778 2.64974 14.0844 2.59116 13.9798 2.57345C13.8751 2.55575 13.7677 2.58037 13.6812 2.64189C13.5947 2.70413 13.4869 2.72925 13.3817 2.71167C13.2766 2.6941 13.1828 2.63529 13.1212 2.54829C12.9933 2.3683 12.7437 2.32604 12.5636 2.45389L7.66762 5.92869L5.65242 6.37669L13.4112 0.873889ZM14.4552 4.41909L9.68522 5.47989L12.7592 3.29829C12.9063 3.40069 13.0744 3.46901 13.2512 3.49829C13.4277 3.52843 13.6087 3.51845 13.7808 3.46909L14.4552 4.41909ZM3.36562 8.11709C3.3418 8.01303 3.36056 7.90377 3.41773 7.81362C3.4749 7.72347 3.56574 7.65991 3.67002 7.63709L15.21 5.06949L15.2248 5.06629L17.566 4.54629C17.6701 4.52248 17.7794 4.5413 17.8696 4.59855C17.9598 4.6558 18.0233 4.74673 18.046 4.85109L18.9252 8.79989H18.1036L17.6096 6.58469C17.5864 6.48112 17.5229 6.39105 17.4332 6.33429C17.3438 6.27701 17.2351 6.25813 17.1316 6.28189C17.0295 6.30448 16.9225 6.28549 16.8344 6.22909C16.7442 6.17204 16.6806 6.08131 16.6576 5.97709C16.6096 5.7615 16.396 5.62559 16.1804 5.67349L5.40442 8.07349C5.18943 8.1213 5.05354 8.3339 5.10042 8.54909C5.11827 8.63356 5.1083 8.72154 5.07202 8.79989H3.99922C3.84136 8.80089 3.68387 8.81521 3.52842 8.84269L3.36562 8.11709ZM17.284 8.79989H5.89802C5.89802 8.79389 5.90122 8.78829 5.90162 8.78229L16.03 6.52669C16.2223 6.83319 16.5419 7.03726 16.9008 7.08269L17.284 8.79989ZM3.99922 9.59989H19.1992C20.3032 9.60121 21.1979 10.4959 21.1992 11.5999V13.9999H18.3992C17.0737 13.9999 15.9992 15.0744 15.9992 16.3999C15.9992 17.7254 17.0737 18.7999 18.3992 18.7999H21.1992V21.1999C21.1979 22.3039 20.3032 23.1986 19.1992 23.1999H3.99922C2.8952 23.1986 2.00054 22.3039 1.99922 21.1999V11.5999C2.00054 10.4959 2.8952 9.60121 3.99922 9.59989Z" fill="#D6C8EE"/>
<path d="M18.3993 15.2C17.9139 15.2 17.4763 15.4923 17.2906 15.9407C17.1049 16.3891 17.2075 16.9053 17.5507 17.2485C17.8939 17.5917 18.4101 17.6943 18.8585 17.5086C19.3069 17.3229 19.5993 16.8853 19.5993 16.4C19.5993 15.7372 19.062 15.2 18.3993 15.2ZM18.3993 16.8C18.1783 16.8 17.9993 16.6209 17.9993 16.4C17.9993 16.179 18.1783 16 18.3993 16C18.6202 16 18.7993 16.179 18.7993 16.4C18.7993 16.6209 18.6202 16.8 18.3993 16.8Z" fill="#D6C8EE"/>
<path d="M3.59922 11.1999H3.99922C4.22013 11.1999 4.39922 11.0208 4.39922 10.7999C4.39922 10.579 4.22013 10.3999 3.99922 10.3999H3.59922C3.3783 10.3999 3.19922 10.579 3.19922 10.7999C3.19922 11.0208 3.3783 11.1999 3.59922 11.1999Z" fill="#D6C8EE"/>
<path d="M5.59922 11.1999H5.99922C6.22013 11.1999 6.39922 11.0208 6.39922 10.7999C6.39922 10.579 6.22013 10.3999 5.99922 10.3999H5.59922C5.3783 10.3999 5.19922 10.579 5.19922 10.7999C5.19922 11.0208 5.3783 11.1999 5.59922 11.1999Z" fill="#D6C8EE"/>
<path d="M7.59922 11.1999H7.99922C8.22013 11.1999 8.39922 11.0208 8.39922 10.7999C8.39922 10.579 8.22013 10.3999 7.99922 10.3999H7.59922C7.3783 10.3999 7.19922 10.579 7.19922 10.7999C7.19922 11.0208 7.3783 11.1999 7.59922 11.1999Z" fill="#D6C8EE"/>
<path d="M9.59922 11.1999H9.99922C10.2201 11.1999 10.3992 11.0208 10.3992 10.7999C10.3992 10.579 10.2201 10.3999 9.99922 10.3999H9.59922C9.3783 10.3999 9.19922 10.579 9.19922 10.7999C9.19922 11.0208 9.3783 11.1999 9.59922 11.1999Z" fill="#D6C8EE"/>
<path d="M11.5992 11.1999H11.9992C12.2201 11.1999 12.3992 11.0208 12.3992 10.7999C12.3992 10.579 12.2201 10.3999 11.9992 10.3999H11.5992C11.3783 10.3999 11.1992 10.579 11.1992 10.7999C11.1992 11.0208 11.3783 11.1999 11.5992 11.1999Z" fill="#D6C8EE"/>
<path d="M13.5992 11.1999H13.9992C14.2201 11.1999 14.3992 11.0208 14.3992 10.7999C14.3992 10.579 14.2201 10.3999 13.9992 10.3999H13.5992C13.3783 10.3999 13.1992 10.579 13.1992 10.7999C13.1992 11.0208 13.3783 11.1999 13.5992 11.1999Z" fill="#D6C8EE"/>
<path d="M15.5992 11.1999H15.9992C16.2201 11.1999 16.3992 11.0208 16.3992 10.7999C16.3992 10.579 16.2201 10.3999 15.9992 10.3999H15.5992C15.3783 10.3999 15.1992 10.579 15.1992 10.7999C15.1992 11.0208 15.3783 11.1999 15.5992 11.1999Z" fill="#D6C8EE"/>
<path d="M17.5992 11.1999H17.9992C18.2201 11.1999 18.3992 11.0208 18.3992 10.7999C18.3992 10.579 18.2201 10.3999 17.9992 10.3999H17.5992C17.3783 10.3999 17.1992 10.579 17.1992 10.7999C17.1992 11.0208 17.3783 11.1999 17.5992 11.1999Z" fill="#D6C8EE"/>
<path d="M19.5992 11.1999H19.9992C20.2201 11.1999 20.3992 11.0208 20.3992 10.7999C20.3992 10.579 20.2201 10.3999 19.9992 10.3999H19.5992C19.3783 10.3999 19.1992 10.579 19.1992 10.7999C19.1992 11.0208 19.3783 11.1999 19.5992 11.1999Z" fill="#D6C8EE"/>
<path d="M3.59922 22.3999H3.99922C4.22013 22.3999 4.39922 22.2208 4.39922 21.9999C4.39922 21.7789 4.22013 21.5999 3.99922 21.5999H3.59922C3.3783 21.5999 3.19922 21.7789 3.19922 21.9999C3.19922 22.2208 3.3783 22.3999 3.59922 22.3999Z" fill="#D6C8EE"/>
<path d="M5.59922 22.3999H5.99922C6.22013 22.3999 6.39922 22.2208 6.39922 21.9999C6.39922 21.7789 6.22013 21.5999 5.99922 21.5999H5.59922C5.3783 21.5999 5.19922 21.7789 5.19922 21.9999C5.19922 22.2208 5.3783 22.3999 5.59922 22.3999Z" fill="#D6C8EE"/>
<path d="M7.59922 22.3999H7.99922C8.22013 22.3999 8.39922 22.2208 8.39922 21.9999C8.39922 21.7789 8.22013 21.5999 7.99922 21.5999H7.59922C7.3783 21.5999 7.19922 21.7789 7.19922 21.9999C7.19922 22.2208 7.3783 22.3999 7.59922 22.3999Z" fill="#D6C8EE"/>
<path d="M9.59922 22.3999H9.99922C10.2201 22.3999 10.3992 22.2208 10.3992 21.9999C10.3992 21.7789 10.2201 21.5999 9.99922 21.5999H9.59922C9.3783 21.5999 9.19922 21.7789 9.19922 21.9999C9.19922 22.2208 9.3783 22.3999 9.59922 22.3999Z" fill="#D6C8EE"/>
<path d="M11.5992 22.3999H11.9992C12.2201 22.3999 12.3992 22.2208 12.3992 21.9999C12.3992 21.7789 12.2201 21.5999 11.9992 21.5999H11.5992C11.3783 21.5999 11.1992 21.7789 11.1992 21.9999C11.1992 22.2208 11.3783 22.3999 11.5992 22.3999Z" fill="#D6C8EE"/>
<path d="M13.5992 22.3999H13.9992C14.2201 22.3999 14.3992 22.2208 14.3992 21.9999C14.3992 21.7789 14.2201 21.5999 13.9992 21.5999H13.5992C13.3783 21.5999 13.1992 21.7789 13.1992 21.9999C13.1992 22.2208 13.3783 22.3999 13.5992 22.3999Z" fill="#D6C8EE"/>
<path d="M15.5992 22.3999H15.9992C16.2201 22.3999 16.3992 22.2208 16.3992 21.9999C16.3992 21.7789 16.2201 21.5999 15.9992 21.5999H15.5992C15.3783 21.5999 15.1992 21.7789 15.1992 21.9999C15.1992 22.2208 15.3783 22.3999 15.5992 22.3999Z" fill="#D6C8EE"/>
<path d="M17.5992 22.3999H17.9992C18.2201 22.3999 18.3992 22.2208 18.3992 21.9999C18.3992 21.7789 18.2201 21.5999 17.9992 21.5999H17.5992C17.3783 21.5999 17.1992 21.7789 17.1992 21.9999C17.1992 22.2208 17.3783 22.3999 17.5992 22.3999Z" fill="#D6C8EE"/>
<path d="M19.5992 22.3999H19.9992C20.2201 22.3999 20.3992 22.2208 20.3992 21.9999C20.3992 21.7789 20.2201 21.5999 19.9992 21.5999H19.5992C19.3783 21.5999 19.1992 21.7789 19.1992 21.9999C19.1992 22.2208 19.3783 22.3999 19.5992 22.3999Z" fill="#D6C8EE"/>
</g>
<defs>
<clipPath id="clip0_1160_1649">
<rect width="24" height="24" fill="white"/>
</clipPath>
</defs>
</svg>
