<svg width="24" height="24" viewBox="0 0 24 24" fill="none" xmlns="http://www.w3.org/2000/svg">
<path d="M5.46368 11.625C5.46368 11.4177 5.29578 11.25 5.08868 11.25H1.875C1.25464 11.25 0.75 10.7454 0.75 10.125V3.375C0.75 2.75464 1.25464 2.25 1.875 2.25H10.875C11.2778 2.25 11.653 2.46936 11.8542 2.82202C11.9568 3.00146 12.1857 3.06445 12.3657 2.96228C12.5457 2.85938 12.6083 2.63049 12.5057 2.45068C12.1714 1.86438 11.5464 1.5 10.875 1.5H1.875C0.841187 1.5 0 2.34119 0 3.375V10.125C0 11.1588 0.841187 12 1.875 12H5.08868C5.29578 12 5.46368 11.8323 5.46368 11.625Z" fill="#D6C8EE"/>
<path d="M4.67963 4.54576C4.56317 4.48277 4.422 4.48534 4.30865 4.55235C4.19476 4.6201 4.125 4.74278 4.125 4.87498V9.37498C4.125 9.50719 4.19476 9.62987 4.30865 9.69762C4.36743 9.73241 4.43372 9.74998 4.5 9.74998C4.56171 9.74998 4.6236 9.7346 4.67963 9.70421L8.80463 7.45421C8.92511 7.38866 9 7.26231 9 7.12498C9 6.98766 8.92511 6.86131 8.80463 6.79576L4.67963 4.54576ZM4.875 8.74327V5.5067L7.84186 7.12498L4.875 8.74327Z" fill="#D6C8EE"/>
<path d="M22.125 3.375H12.375C11.3412 3.375 10.5 4.21619 10.5 5.25V9.84741C10.5 10.0547 10.6679 10.2224 10.875 10.2224C11.0821 10.2224 11.25 10.0547 11.25 9.84741V5.25C11.25 4.62964 11.7546 4.125 12.375 4.125H22.125C22.7454 4.125 23.25 4.62964 23.25 5.25V12.75C23.25 13.3704 22.7454 13.875 22.125 13.875H16.1138C15.9067 13.875 15.7388 14.0427 15.7388 14.25C15.7388 14.4573 15.9067 14.625 16.1138 14.625H22.125C23.1588 14.625 24 13.7838 24 12.75V5.25C24 4.21619 23.1588 3.375 22.125 3.375Z" fill="#D6C8EE"/>
<path d="M14.7111 12.3749C14.7111 12.5822 14.879 12.7499 15.0861 12.7499H21.7498C21.8767 12.7499 21.995 12.6858 22.0642 12.5792C22.1334 12.4727 22.1441 12.3386 22.0924 12.2225L19.0924 5.47254C19.0336 5.33998 18.9035 5.25318 18.7584 5.24989C18.598 5.23927 18.4792 5.32752 18.4144 5.45716L16.8283 8.62928L15.6868 6.91688C15.6129 6.80555 15.4832 6.74586 15.3516 6.75062C15.2181 6.75904 15.0993 6.83778 15.0394 6.95716L13.1569 10.7222C13.0642 10.9075 13.1393 11.1327 13.3246 11.2254C13.5101 11.318 13.7351 11.2429 13.8278 11.0576L15.4213 7.87049L16.5628 9.5829C16.637 9.69422 16.7648 9.75721 16.8981 9.74916C17.0316 9.74073 17.1504 9.662 17.2103 9.54261L18.7299 6.50343L21.1729 11.9999H15.0861C14.879 11.9999 14.7111 12.1676 14.7111 12.3749Z" fill="#D6C8EE"/>
<path d="M9.75 10.5C6.44165 10.5 3.75 13.1917 3.75 16.5C3.75 18.1556 4.42639 19.7194 5.61896 20.851L4.60986 21.8599C4.50256 21.9672 4.47052 22.1283 4.52856 22.2686C4.58661 22.4088 4.72339 22.5 4.875 22.5H9.75C13.0583 22.5 15.75 19.8083 15.75 16.5C15.75 13.1917 13.0583 10.5 9.75 10.5ZM9.75 21.75H5.78027L6.43066 21.0996C6.50537 21.0249 6.5451 20.9224 6.54016 20.8169C6.53522 20.7114 6.48596 20.6129 6.40466 20.5455C5.19415 19.5436 4.5 18.0692 4.5 16.5C4.5 13.6051 6.8551 11.25 9.75 11.25C12.6449 11.25 15 13.6051 15 16.5C15 19.3949 12.6449 21.75 9.75 21.75Z" fill="#D6C8EE"/>
<path d="M10.6432 13.9109C10.2783 13.9812 9.97082 14.1475 9.75018 14.3775C9.52953 14.1475 9.2221 13.9812 8.85717 13.9109C8.07165 13.7586 7.02868 14.0874 6.59765 15.1655C5.5501 17.7902 9.41784 19.7534 9.583 19.8358C9.63555 19.8618 9.69286 19.875 9.75018 19.875C9.80749 19.875 9.8648 19.8618 9.91735 19.8358C10.0825 19.7534 13.9502 17.7902 12.9027 15.1655C12.4715 14.0878 11.4307 13.7589 10.6432 13.9109ZM9.75018 19.0741C9.0725 18.6947 6.60497 17.1702 7.29418 15.4439C7.52654 14.8627 8.01873 14.6243 8.47338 14.6243C8.55596 14.6243 8.63708 14.6323 8.71545 14.6474C9.03442 14.7089 9.37518 14.9136 9.37518 15.3047C9.37518 15.512 9.54308 15.6797 9.75018 15.6797C9.95727 15.6797 10.1252 15.512 10.1252 15.3047C10.1252 14.9136 10.4659 14.7089 10.7849 14.6474C11.295 14.5496 11.9317 14.7572 12.2062 15.4439C12.8954 17.1702 10.4278 18.6947 9.75018 19.0741Z" fill="#D6C8EE"/>
</svg>
