<svg width="24" height="24" viewBox="0 0 24 24" fill="none" xmlns="http://www.w3.org/2000/svg">
<path d="M15.6028 15.3714C15.5211 15.3714 15.4391 15.3536 15.3633 15.3179C13.6212 14.4987 12.1692 13.5164 11.0482 12.3985C10.8285 12.1791 10.8277 11.823 11.0471 11.6031C11.2665 11.3832 11.6228 11.3824 11.8429 11.602C12.8206 12.5774 14.0848 13.4457 15.6028 14.1854C20.4258 11.8378 21.8126 8.58661 21.5244 6.4904C21.3387 5.1389 20.488 4.17631 19.3051 3.97857C17.2144 3.63196 16.144 5.5844 16.0997 5.66772C16.0012 5.85117 15.8071 5.97129 15.6013 5.96544C15.3929 5.96472 15.2017 5.85009 15.1051 5.66589C15.0611 5.5844 13.9951 3.62994 11.9 3.97876C11.5323 4.03899 11.1951 4.17522 10.8962 4.38376C10.6413 4.56177 10.2909 4.49915 10.1129 4.24445C9.93529 3.98975 9.99754 3.63908 10.2524 3.4613C10.6904 3.15567 11.1829 2.95629 11.7169 2.86876C13.5121 2.5694 14.8553 3.52557 15.6028 4.41507C16.3502 3.52557 17.696 2.57157 19.4897 2.86876C21.1516 3.14671 22.3876 4.50792 22.6392 6.33713C23.0006 8.966 21.4047 12.7059 15.8419 15.3181C15.7661 15.3536 15.6844 15.3714 15.6028 15.3714Z" fill="#D6C8EE"/>
<path d="M5.625 22.6875H3C2.06947 22.6875 1.3125 21.9305 1.3125 21V15C1.3125 14.0695 2.06947 13.3125 3 13.3125H5.625C6.55552 13.3125 7.3125 14.0695 7.3125 15V21C7.3125 21.9305 6.55552 22.6875 5.625 22.6875ZM3 14.4375C2.68983 14.4375 2.4375 14.6898 2.4375 15V21C2.4375 21.3102 2.68983 21.5625 3 21.5625H5.625C5.93516 21.5625 6.1875 21.3102 6.1875 21V15C6.1875 14.6898 5.93516 14.4375 5.625 14.4375H3Z" fill="#D6C8EE"/>
<path d="M12.2318 22.6877C11.5045 22.6877 10.7951 22.5458 10.1242 22.266L6.54742 20.7745C6.26066 20.6549 6.12517 20.3255 6.24454 20.0388C6.36431 19.7522 6.6939 19.6166 6.98029 19.7359L10.5571 21.2276C11.5733 21.6513 12.7284 21.672 13.7607 21.2854L20.9703 18.5819C21.3233 18.4493 21.5606 18.1069 21.5606 17.7295C21.5606 17.4389 21.427 17.1727 21.1937 16.9993C20.9601 16.8257 20.6671 16.7743 20.3887 16.8576L14.785 18.5388C14.4895 18.6282 14.1742 18.4596 14.0848 18.1619C13.9954 17.8643 14.1643 17.5506 14.462 17.4615L20.0658 15.7802C20.6865 15.5934 21.3435 15.7084 21.8653 16.0966C22.3868 16.4846 22.6856 17.0797 22.6856 17.7295C22.6856 18.5731 22.155 19.339 21.3651 19.6351L14.1555 22.3386C13.5381 22.5703 12.891 22.6877 12.2318 22.6877Z" fill="#D6C8EE"/>
<path d="M13.208 19.4204C13.0619 19.4204 12.9132 19.4046 12.7653 19.3716L10.7511 18.9241C10.4479 18.8568 10.2567 18.5563 10.3241 18.2531C10.3915 17.9498 10.6903 17.757 10.995 17.8258L13.0092 18.2734C13.4838 18.3789 13.9566 18.0956 14.0902 17.6298C14.2198 17.176 13.9869 16.7014 13.5486 16.526C11.9501 15.8868 10.2666 15.5625 8.54505 15.5625H6.79492C6.48435 15.5625 6.23242 15.3107 6.23242 15C6.23242 14.6893 6.48435 14.4375 6.79492 14.4375H8.54505C10.4102 14.4375 12.2343 14.7887 13.9664 15.4816C14.9424 15.8719 15.4606 16.9285 15.172 17.939C14.9171 18.8304 14.1008 19.4204 13.208 19.4204Z" fill="#D6C8EE"/>
<path d="M6.65441 1.3125C3.70897 1.3125 1.3125 3.70879 1.3125 6.65422C1.3125 9.59966 3.70897 11.996 6.65441 11.996C9.59985 11.996 11.996 9.59966 11.996 6.65422C11.996 3.70879 9.59985 1.3125 6.65441 1.3125ZM9.46676 7.26461C9.46676 7.47172 9.29887 7.63961 9.09176 7.63961H7.63961V9.09176C7.63961 9.29887 7.47172 9.46676 7.26461 9.46676H6.04387C5.83676 9.46676 5.66887 9.29887 5.66887 9.09176V7.63961H4.21676C4.00965 7.63961 3.84176 7.47172 3.84176 7.26461V6.04391C3.84176 5.8368 4.00965 5.66891 4.21676 5.66891H5.66887V4.21676C5.66887 4.00965 5.83676 3.84176 6.04387 3.84176H7.26461C7.47172 3.84176 7.63961 4.00965 7.63961 4.21676V5.66891H9.09176C9.29887 5.66891 9.46676 5.8368 9.46676 6.04391V7.26461Z" fill="#D6C8EE"/>
</svg>
