<svg width="24" height="24" viewBox="0 0 24 24" fill="none" xmlns="http://www.w3.org/2000/svg">
<path d="M14.3766 7.22853H9.62344C9.46828 7.22853 9.34219 7.35462 9.34219 7.50978V12.2624C9.34219 12.4176 9.46828 12.5437 9.62344 12.5437H14.3766C14.5317 12.5437 14.6578 12.4176 14.6578 12.2624V7.50978C14.6578 7.35462 14.5317 7.22853 14.3766 7.22853ZM14.0953 11.9812H9.90469V7.79103H14.0948V11.9812H14.0953ZM4.31391 5.95915V7.68696C4.31391 7.84212 4.44 7.96821 4.59516 7.96821H7.64859V9.60462H4.83563C4.71328 9.18415 4.32563 8.87618 3.86625 8.87618C3.30938 8.87618 2.85609 9.32946 2.85609 9.88587C2.85609 10.4423 3.30938 10.8956 3.86625 10.8956C4.32563 10.8956 4.71328 10.5871 4.83563 10.1671H7.64859V11.8035H4.59516C4.44 11.8035 4.31391 11.9296 4.31391 12.0848V13.8126C3.89344 13.9349 3.585 14.3226 3.585 14.782C3.585 15.3388 4.03828 15.7916 4.59516 15.7916C5.15203 15.7916 5.60484 15.3384 5.60484 14.782C5.60484 14.3226 5.29641 13.9349 4.87641 13.8126V12.366H7.64859V13.956C7.64859 14.1112 7.77469 14.2373 7.92984 14.2373H9.51984V17.0095H8.07328C7.95094 16.589 7.56328 16.281 7.10391 16.281C6.54703 16.281 6.09375 16.7343 6.09375 17.2907C6.09375 17.8471 6.54703 18.3004 7.10391 18.3004C7.56328 18.3004 7.95094 17.992 8.07328 17.572H9.80109C9.95625 17.572 10.0823 17.4459 10.0823 17.2907V14.2373H11.7188V17.0502C11.2983 17.1726 10.9903 17.5602 10.9903 18.0196C10.9903 18.5765 11.4436 19.0298 12 19.0298C12.5564 19.0298 13.0097 18.5765 13.0097 18.0196C13.0097 17.5602 12.7013 17.1726 12.2812 17.0502V14.2373H13.9177V17.2907C13.9177 17.4459 14.0437 17.572 14.1989 17.572H15.9267C16.0491 17.9924 16.4367 18.3004 16.8961 18.3004C17.453 18.3004 17.9058 17.8471 17.9058 17.2907C17.9058 16.7343 17.4525 16.281 16.8961 16.281C16.4367 16.281 16.0491 16.5895 15.9267 17.0095H14.4802V14.2373H16.0702C16.2253 14.2373 16.3514 14.1112 16.3514 13.956V12.366H19.1236V13.8126C18.7031 13.9349 18.3952 14.3226 18.3952 14.782C18.3952 15.3388 18.8484 15.7921 19.4048 15.7921C19.9613 15.7921 20.4145 15.3388 20.4145 14.782C20.4145 14.3226 20.1061 13.9349 19.6861 13.8126V12.0848C19.6861 11.9296 19.56 11.8035 19.4048 11.8035H16.3514V10.1671H19.1644C19.2867 10.5876 19.6744 10.8956 20.1337 10.8956C20.6906 10.8956 21.1439 10.4423 21.1439 9.88587C21.1439 9.32946 20.6906 8.87618 20.1337 8.87618C19.6744 8.87618 19.2867 9.18462 19.1644 9.60462H16.3514V7.96821H19.4048C19.56 7.96821 19.6861 7.84212 19.6861 7.68696V5.95915C20.1066 5.83681 20.4145 5.44915 20.4145 4.98978C20.4145 4.4329 19.9613 3.98009 19.4048 3.98009C18.8484 3.98009 18.3952 4.43337 18.3952 4.98978C18.3952 5.44915 18.7036 5.83681 19.1236 5.95915V7.40571H16.3514V5.81571C16.3514 5.66056 16.2253 5.53446 16.0702 5.53446H14.4802V2.76228H15.9267C16.0491 3.18274 16.4367 3.49071 16.8961 3.49071C17.453 3.49071 17.9062 3.03743 17.9062 2.48103C17.9062 1.92462 17.453 1.47134 16.8961 1.47134C16.4367 1.47134 16.0491 1.77978 15.9267 2.19978H14.1989C14.0437 2.19978 13.9177 2.32587 13.9177 2.48103V5.53446H12.2812V2.72196C12.7017 2.59962 13.0097 2.21196 13.0097 1.75259C13.0097 1.19571 12.5564 0.742432 12 0.742432C11.4436 0.742432 10.9903 1.19571 10.9903 1.75259C10.9903 2.21196 11.2987 2.59962 11.7188 2.72196V5.53493H10.0823V2.48103C10.0823 2.32587 9.95625 2.19978 9.80109 2.19978H8.07328C7.95094 1.77931 7.56328 1.47134 7.10391 1.47134C6.54703 1.47134 6.09422 1.92462 6.09422 2.48103C6.09422 3.03743 6.5475 3.49071 7.10391 3.49071C7.56328 3.49071 7.95094 3.18228 8.07328 2.76228H9.51984V5.53446H7.92984C7.77469 5.53446 7.64859 5.66056 7.64859 5.81571V7.40571H4.87641V5.95915C5.29688 5.83681 5.60484 5.44915 5.60484 4.98978C5.60484 4.4329 5.15156 3.97962 4.59516 3.97962C4.03828 3.97962 3.585 4.4329 3.585 4.98978C3.585 5.44915 3.89344 5.83681 4.31391 5.95915ZM3.86672 10.3335C3.62016 10.3335 3.41906 10.1329 3.41906 9.88634C3.41906 9.63978 3.61969 9.43915 3.86672 9.43915C4.11328 9.43915 4.31391 9.63978 4.31391 9.88634C4.31391 10.1329 4.11328 10.3335 3.86672 10.3335ZM5.04234 14.7824C5.04234 15.029 4.84172 15.2296 4.59516 15.2296C4.34859 15.2296 4.1475 15.029 4.1475 14.7824C4.1475 14.5359 4.34812 14.3352 4.59516 14.3352C4.84172 14.3352 5.04234 14.5359 5.04234 14.7824ZM7.10391 17.7384C6.85734 17.7384 6.65625 17.5377 6.65625 17.2912C6.65625 17.0446 6.85687 16.844 7.10391 16.844C7.35047 16.844 7.55109 17.0446 7.55109 17.2912C7.55109 17.5377 7.35047 17.7384 7.10391 17.7384ZM12.4472 18.0196C12.4472 18.2662 12.2466 18.4673 12 18.4673C11.7534 18.4673 11.5528 18.2666 11.5528 18.0196C11.5528 17.7731 11.7534 17.5724 12 17.5724C12.2466 17.5724 12.4472 17.7731 12.4472 18.0196ZM16.8966 16.8435C17.1431 16.8435 17.3438 17.0441 17.3438 17.2907C17.3438 17.5373 17.1431 17.7379 16.8966 17.7379C16.65 17.7379 16.4494 17.5373 16.4494 17.2907C16.4494 17.0441 16.6495 16.8435 16.8966 16.8435ZM19.8525 14.7824C19.8525 15.029 19.6519 15.2301 19.4053 15.2301C19.1588 15.2301 18.9581 15.0295 18.9581 14.7824C18.9581 14.5359 19.1588 14.3352 19.4053 14.3352C19.6519 14.3352 19.8525 14.5359 19.8525 14.7824ZM20.1333 9.43868C20.3798 9.43868 20.5809 9.63931 20.5809 9.88587C20.5809 10.1324 20.3803 10.3331 20.1333 10.3331C19.8867 10.3331 19.6861 10.1324 19.6861 9.88587C19.6861 9.63931 19.8867 9.43868 20.1333 9.43868ZM18.9577 4.98978C18.9577 4.74321 19.1583 4.54259 19.4048 4.54259C19.6514 4.54259 19.852 4.74321 19.852 4.98978C19.852 5.23634 19.6514 5.43696 19.4048 5.43696C19.1583 5.43696 18.9577 5.23634 18.9577 4.98978ZM16.8961 2.03384C17.1427 2.03384 17.3438 2.23446 17.3438 2.48103C17.3438 2.72759 17.1431 2.92821 16.8961 2.92821C16.6495 2.92821 16.4489 2.72759 16.4489 2.48103C16.4489 2.23446 16.6495 2.03384 16.8961 2.03384ZM11.5528 1.75259C11.5528 1.50603 11.7534 1.30493 12 1.30493C12.2466 1.30493 12.4472 1.50556 12.4472 1.75259C12.4472 1.99915 12.2466 2.19978 12 2.19978C11.7534 2.19978 11.5528 1.99915 11.5528 1.75259ZM7.10344 2.92868C6.85687 2.92868 6.65625 2.72806 6.65625 2.48149C6.65625 2.23493 6.85687 2.03431 7.10344 2.03431C7.35 2.03431 7.55062 2.23493 7.55062 2.48149C7.55062 2.72806 7.35047 2.92868 7.10344 2.92868ZM8.21109 6.09696H15.7889V13.6748H8.21109V6.09696ZM4.59516 4.54259C4.84172 4.54259 5.04234 4.74321 5.04234 4.99024C5.04234 5.23681 4.84172 5.43743 4.59516 5.43743C4.34859 5.43743 4.1475 5.23681 4.1475 4.99024C4.1475 4.74321 4.34859 4.54259 4.59516 4.54259ZM23.0156 19.769H22.7972V7.44649C22.7972 6.88634 22.3416 6.43071 21.7814 6.43071H20.8528C20.6977 6.43071 20.5716 6.55681 20.5716 6.71196C20.5716 6.86712 20.6977 6.99321 20.8528 6.99321H21.7814C22.0312 6.99321 22.2347 7.19665 22.2347 7.44649V19.769H14.7872C14.632 19.769 14.5059 19.8951 14.5059 20.0502V20.3263C14.5059 20.6554 14.2383 20.9231 13.9092 20.9231H10.0912C9.76219 20.9231 9.49453 20.6554 9.49453 20.3263V20.0502C9.49453 19.8951 9.36844 19.769 9.21328 19.769H1.76531V7.44649C1.76531 7.19665 1.96875 6.99321 2.21859 6.99321H3.14719C3.30234 6.99321 3.42844 6.86712 3.42844 6.71196C3.42844 6.55681 3.30234 6.43071 3.14719 6.43071H2.21859C1.65844 6.43071 1.20281 6.88634 1.20281 7.44649V19.769H0.984375C0.829219 19.769 0.703125 19.8951 0.703125 20.0502V21.5132C0.703125 22.4751 1.48547 23.2574 2.44734 23.2574H21.5527C22.5145 23.2574 23.2969 22.4751 23.2969 21.5132V20.0502C23.2969 19.8951 23.1708 19.769 23.0156 19.769ZM22.7344 21.5132C22.7344 22.1648 22.2042 22.6949 21.5527 22.6949H2.44734C1.79578 22.6949 1.26562 22.1648 1.26562 21.5132V20.3315H8.93156C8.93437 20.9681 9.45328 21.4856 10.0908 21.4856H13.9088C14.5463 21.4856 15.0652 20.9685 15.068 20.3315H22.7344V21.5132Z" fill="#D6C8EE"/>
</svg>
