<svg width="25" height="24" viewBox="0 0 25 24" fill="none" xmlns="http://www.w3.org/2000/svg">
<path d="M12.5 6.69159C9.57294 6.69159 7.19159 9.07298 7.19159 12C7.19159 14.9271 9.57294 17.3084 12.5 17.3084C15.4271 17.3084 17.8084 14.9271 17.8084 12C17.8084 9.07298 15.4271 6.69159 12.5 6.69159ZM8.84084 14.7153L10.7956 12.7605C10.9024 12.6538 10.9347 12.4934 10.8776 12.3536C10.5237 11.4867 10.7227 10.4988 11.3847 9.83686C11.8456 9.37598 12.462 9.13866 13.0919 9.15769L11.6834 10.5661C11.5887 10.6608 11.5517 10.7989 11.5864 10.9283L11.9499 12.2849C11.9846 12.4143 12.0857 12.5154 12.2151 12.5501L13.5717 12.9136C13.7011 12.9483 13.8392 12.9113 13.934 12.8166L15.3423 11.4082C15.3618 12.0373 15.124 12.6544 14.6631 13.1152C14.0011 13.7773 13.0132 13.9763 12.1464 13.6224C12.0065 13.5653 11.8462 13.5977 11.7395 13.7044L9.78467 15.6592C9.42594 15.3923 9.1077 15.0741 8.84084 14.7153ZM12.5 16.5584C11.7588 16.5584 11.0585 16.3805 10.4392 16.0653L12.1015 14.403C13.1878 14.7459 14.3776 14.4614 15.1934 13.6456C16.0155 12.8235 16.3015 11.6259 15.9398 10.5201C15.8993 10.3962 15.7974 10.3023 15.6706 10.272C15.5437 10.2417 15.4105 10.2793 15.3182 10.3715L13.5567 12.1331L12.6183 11.8816L12.3669 10.9433L14.1285 9.18173C14.2206 9.08953 14.2583 8.95617 14.228 8.82933C14.1977 8.70258 14.1038 8.60063 13.9799 8.56013C12.8741 8.19844 11.6765 8.48442 10.8544 9.30647C10.0385 10.1223 9.75397 11.3122 10.097 12.3984L8.43467 14.0607C8.11948 13.4415 7.94155 12.7411 7.94155 12C7.94155 9.48647 9.98642 7.44155 12.5 7.44155C15.0135 7.44155 17.0584 9.48647 17.0584 12C17.0584 14.5135 15.0135 16.5584 12.5 16.5584ZM22.8874 10.7624C22.3357 10.7624 21.8673 11.1254 21.7081 11.625H20.7371V10.936C20.7371 10.7808 20.6416 10.6418 20.4968 10.586L19.3755 10.1544C19.2151 9.55547 18.9772 8.98172 18.6664 8.44402L19.1545 7.34522C19.2174 7.20347 19.1866 7.03758 19.0769 6.92784L18.5897 6.44072L20 5.03048C20.04 4.99036 20.0705 4.94161 20.0891 4.88803L20.7951 2.84944C20.8056 2.84972 20.816 2.85023 20.8265 2.85023C21.509 2.85023 22.0641 2.29505 22.0641 1.61269C22.0641 0.930187 21.5089 0.375 20.8265 0.375C20.1441 0.375 19.589 0.930188 19.589 1.61259C19.589 2.01769 19.7846 2.37797 20.0864 2.60386L19.4086 4.56098L18.0593 5.91023L17.5721 5.42302C17.4625 5.31337 17.2966 5.28248 17.1548 5.34548L16.0556 5.83369C15.5179 5.523 14.9443 5.2852 14.3458 5.1248L13.9139 4.00308C13.8582 3.85833 13.7191 3.7628 13.564 3.7628H11.436C11.2809 3.7628 11.1418 3.85833 11.0861 4.00308L10.6542 5.1248C10.0557 5.28516 9.48209 5.52295 8.94444 5.83369L7.84517 5.34548C7.70338 5.28248 7.53744 5.31328 7.4278 5.42306L6.94062 5.91028L5.59137 4.56103L4.91361 2.60391C5.21539 2.37802 5.41105 2.01773 5.41105 1.61264C5.41109 0.930187 4.85591 0.375 4.17345 0.375C3.49109 0.375 2.93591 0.930188 2.93591 1.61259C2.93591 2.295 3.49109 2.85014 4.17345 2.85014C4.184 2.85014 4.19441 2.84962 4.20491 2.84934L4.91089 4.88794C4.92945 4.94156 4.95997 4.99027 5.00005 5.03039L6.41028 6.44062L5.92306 6.92784C5.81337 7.03753 5.78258 7.20342 5.84553 7.34517L6.33369 8.44425C6.02295 8.98191 5.78516 9.55556 5.62475 10.1542L4.50317 10.586C4.35842 10.6417 4.26289 10.7808 4.26289 10.9359V11.625H3.29197C3.13273 11.1254 2.66431 10.7624 2.11264 10.7624C1.43019 10.7624 0.875 11.3175 0.875 12C0.875 12.6824 1.43019 13.2375 2.11259 13.2375C2.66431 13.2375 3.13269 12.8746 3.29192 12.375H4.26289V13.064C4.26289 13.2192 4.35842 13.3583 4.50317 13.414L5.62452 13.8456C5.78497 14.4445 6.02281 15.0183 6.33355 15.556L5.84553 16.6548C5.78258 16.7965 5.81337 16.9624 5.92311 17.0722L6.41028 17.5593L5.00005 18.9695C4.95997 19.0096 4.92945 19.0584 4.91089 19.112L4.20491 21.1506C4.19441 21.1503 4.184 21.1498 4.17345 21.1498C3.49105 21.1498 2.93591 21.705 2.93591 22.3873C2.93591 23.0698 3.49109 23.625 4.17345 23.625C4.85591 23.625 5.41105 23.0698 5.41105 22.3874C5.41105 21.9823 5.21539 21.622 4.91361 21.3961L5.59137 19.439L6.94067 18.0898L7.42789 18.577C7.53758 18.6867 7.70337 18.7174 7.84522 18.6545L8.94448 18.1663C9.48219 18.477 10.0557 18.7148 10.6543 18.8752L11.0861 19.9969C11.1418 20.1416 11.2809 20.2372 11.436 20.2372H13.564C13.7192 20.2372 13.8583 20.1416 13.914 19.9969L14.3456 18.8755C14.9445 18.7151 15.5183 18.4773 16.056 18.1665L17.1548 18.6545C17.2966 18.7174 17.4624 18.6867 17.5722 18.5769L18.0593 18.0898L19.4086 19.439L20.0863 21.3961C19.7846 21.622 19.5889 21.9823 19.5889 22.3874C19.5889 23.0699 20.1441 23.625 20.8265 23.625C21.5089 23.625 22.064 23.0698 22.064 22.3874C22.064 21.705 21.5089 21.1499 20.8265 21.1499C20.816 21.1499 20.8055 21.1504 20.795 21.1507L20.0891 19.1121C20.0705 19.0584 20.04 19.0097 19.9999 18.9696L18.5897 17.5594L19.0769 17.0722C19.1866 16.9625 19.2174 16.7966 19.1544 16.6548L18.6662 15.5556C18.977 15.0179 19.2148 14.4443 19.3751 13.8458L20.4968 13.414C20.6415 13.3583 20.7371 13.2192 20.7371 13.064V12.375H21.708C21.8673 12.8746 22.3357 13.2375 22.8874 13.2375C23.5698 13.2375 24.125 12.6824 24.125 12C24.125 11.3175 23.5698 10.7624 22.8874 10.7624ZM20.8265 1.125C21.0954 1.125 21.3141 1.34372 21.3141 1.61259C21.3141 1.88142 21.0954 2.10014 20.8265 2.10014C20.5577 2.10014 20.339 1.88142 20.339 1.61259C20.3389 1.34372 20.5576 1.125 20.8265 1.125ZM3.68591 1.61259C3.68591 1.34372 3.90462 1.125 4.17345 1.125C4.44233 1.125 4.66105 1.34372 4.66105 1.61259C4.66105 1.88142 4.44233 2.10014 4.17345 2.10014C3.90462 2.10019 3.68591 1.88147 3.68591 1.61259ZM2.11259 12.4875C1.84372 12.4875 1.625 12.2688 1.625 12C1.625 11.7311 1.84372 11.5124 2.11259 11.5124C2.38142 11.5124 2.60014 11.7311 2.60014 12C2.60019 12.2688 2.38147 12.4875 2.11259 12.4875ZM4.17345 22.875C3.90462 22.875 3.68591 22.6563 3.68591 22.3874C3.68591 22.1186 3.90462 21.8999 4.17345 21.8999C4.44233 21.8999 4.66105 22.1186 4.66105 22.3874C4.66109 22.6563 4.44237 22.875 4.17345 22.875ZM21.3141 22.3874C21.3141 22.6563 21.0954 22.875 20.8265 22.875C20.5577 22.875 20.339 22.6563 20.339 22.3874C20.339 22.1186 20.5577 21.8999 20.8265 21.8999C21.0954 21.8998 21.3141 22.1185 21.3141 22.3874ZM19.9871 12.8065L18.9245 13.2156C18.8091 13.26 18.7231 13.3584 18.6945 13.4787C18.5385 14.1341 18.2797 14.7582 17.9254 15.3337C17.8606 15.4389 17.8519 15.5694 17.902 15.6825L18.3645 16.7239L17.7949 17.2935C17.7947 17.2937 17.7944 17.2939 17.7942 17.2942C17.794 17.2944 17.7938 17.2946 17.7935 17.2949L17.224 17.8645L16.1829 17.4021C16.07 17.3519 15.9395 17.3607 15.8341 17.4255C15.2588 17.7799 14.6345 18.0387 13.9787 18.1947C13.8584 18.2233 13.7599 18.3094 13.7155 18.4248L13.3066 19.4871H11.6936L11.2845 18.4245C11.2401 18.3091 11.1417 18.223 11.0214 18.1944C10.366 18.0384 9.74187 17.7797 9.16644 17.4254C9.06111 17.3605 8.93056 17.3518 8.81764 17.402L7.77617 17.8645L7.20655 17.2949C7.20631 17.2946 7.20613 17.2944 7.20589 17.2942C7.20566 17.2939 7.20542 17.2937 7.20519 17.2935L6.63556 16.7239L7.09789 15.6829C7.14805 15.5699 7.13933 15.4394 7.07445 15.334C6.72017 14.7588 6.46142 14.1345 6.30528 13.4785C6.27669 13.3583 6.19058 13.2598 6.07522 13.2154L5.01298 12.8065V11.1935L6.07545 10.7845C6.19086 10.7401 6.27692 10.6416 6.30552 10.5214C6.46156 9.86573 6.72036 9.24159 7.07459 8.6663C7.13947 8.56097 7.14819 8.43047 7.09803 8.31745L6.63556 7.27612L7.20519 6.7065C7.20542 6.70627 7.20566 6.70608 7.20589 6.70584C7.20613 6.70561 7.20631 6.70538 7.20655 6.70514L7.77612 6.13552L8.81759 6.59803C8.93052 6.64819 9.06111 6.63947 9.16639 6.57464C9.74178 6.22031 10.3659 5.96156 11.0214 5.80556C11.1416 5.77697 11.2401 5.69091 11.2845 5.5755L11.6936 4.51289H13.3065L13.7156 5.5755C13.76 5.69091 13.8585 5.77697 13.9787 5.80556C14.6342 5.96161 15.2584 6.22036 15.8337 6.57464C15.939 6.63947 16.0696 6.64819 16.1825 6.59803L17.2239 6.13552L17.7935 6.70514C17.7938 6.70538 17.794 6.70561 17.7942 6.70584C17.7944 6.70608 17.7947 6.70627 17.7949 6.7065L18.3645 7.27608L17.9022 8.31713C17.852 8.43014 17.8607 8.56069 17.9256 8.66597C18.28 9.24127 18.5388 9.86555 18.6947 10.5214C18.7233 10.6417 18.8094 10.7402 18.9248 10.7846L19.9871 11.1935V12.8065ZM22.8874 12.4875C22.6186 12.4875 22.3999 12.2688 22.3999 12C22.3999 11.7311 22.6186 11.5124 22.8874 11.5124C23.1563 11.5124 23.375 11.7311 23.375 12C23.375 12.2688 23.1563 12.4875 22.8874 12.4875Z" fill="#D6C8EE"/>
</svg>
