<svg width="41" height="40" viewBox="0 0 41 40" fill="none" xmlns="http://www.w3.org/2000/svg">
<g clip-path="url(#clip0_175_5631)">
<path d="M23.0625 14.9515C21.8592 14.3399 20.4772 14.1775 19.1649 14.4936C17.8526 14.8097 16.6961 15.5835 15.9032 16.6759C15.1103 17.7684 14.7331 19.1078 14.8394 20.4534C14.9456 21.799 15.5283 23.0626 16.4828 24.0171C17.4373 24.9716 18.7009 25.5543 20.0465 25.6605C21.3922 25.7668 22.7316 25.3896 23.824 24.5967C24.9164 23.8038 25.6902 22.6473 26.0063 21.335C26.3224 20.0228 26.16 18.6407 25.5484 17.4374L21.7429 21.2429C21.4133 21.5726 20.9662 21.7578 20.5 21.7578C20.0338 21.7578 19.5867 21.5726 19.257 21.2429C18.9274 20.9133 18.7422 20.4661 18.7422 19.9999C18.7422 19.5337 18.9274 19.0866 19.257 18.757L23.0625 14.9515Z" fill="#4E4269"/>
<path d="M36.9023 12.7113C36.7644 12.849 36.618 12.9779 36.464 13.0972C38.063 16.8042 38.3197 20.9526 37.19 24.8285C36.0603 28.7043 33.6148 32.0651 30.2744 34.3323C26.9341 36.5995 22.9078 37.6314 18.8887 37.2503C14.8696 36.8692 11.1091 35.099 8.25444 32.2443C5.39976 29.3896 3.62952 25.6291 3.24842 21.61C2.86731 17.5909 3.89919 13.5647 6.16643 10.2243C8.43368 6.88398 11.7945 4.43848 15.6703 3.30875C19.5461 2.17903 23.6945 2.43575 27.4015 4.03475C27.523 3.88113 27.6534 3.73478 27.7921 3.59647L29.3421 2.04725C25.0902 -0.0455227 20.2334 -0.560847 15.637 0.593085C11.0406 1.74702 7.00308 4.49526 4.24383 8.34819C1.48458 12.2011 0.182769 16.9085 0.570335 21.6317C0.9579 26.3548 3.00967 30.787 6.36009 34.1386C9.71273 37.4846 14.1437 39.5325 18.8646 39.9182C23.5854 40.3038 28.29 39.0021 32.1412 36.2447C35.9925 33.4872 38.7405 29.4529 39.8964 24.8595C41.0524 20.2661 40.5412 15.4116 38.4538 11.1597L36.9023 12.7113Z" fill="#4E4269"/>
<path d="M20.5 3.78907C11.5609 3.78907 4.28906 11.0609 4.28906 20C4.28906 28.9391 11.5609 36.2109 20.5 36.2109C29.4391 36.2109 36.7109 28.9391 36.7109 20C36.7132 17.8403 36.2815 15.7021 35.4414 13.7125C34.4259 14.1707 33.284 14.2666 32.2063 13.9844L29.6711 13.3164L29.2336 13.7539C30.5422 15.575 31.2449 17.7615 31.2422 20.0039C31.2422 25.9274 26.4234 30.7461 20.5 30.7461C14.5766 30.7461 9.75781 25.9234 9.75781 20C9.75781 14.0766 14.5766 9.25782 20.5 9.25782C22.7425 9.25513 24.929 9.95782 26.75 11.2664L27.1875 10.8289L26.5156 8.29376C26.234 7.21579 26.3285 6.07402 26.7836 5.05704C24.795 4.21812 22.6583 3.78695 20.5 3.78907Z" fill="#4E4269"/>
<path d="M27.6508 7.99536L28.4891 11.1821L20.086 19.586C20.0284 19.6396 19.9822 19.7043 19.9502 19.7762C19.9182 19.8481 19.901 19.9256 19.8996 20.0043C19.8982 20.083 19.9127 20.1611 19.9421 20.2341C19.9716 20.3071 20.0155 20.3733 20.0711 20.429C20.1267 20.4846 20.193 20.5285 20.266 20.558C20.3389 20.5874 20.4171 20.6019 20.4957 20.6005C20.5744 20.5991 20.652 20.5819 20.7239 20.5499C20.7958 20.5178 20.8604 20.4717 20.9141 20.4141L29.318 12.011L32.5047 12.8493C33.1321 13.0133 33.7914 13.0106 34.4174 12.8414C35.0434 12.6721 35.6143 12.3423 36.0735 11.8844L40.3282 7.62973C40.4011 7.55688 40.4536 7.46606 40.4802 7.36645C40.5068 7.26684 40.5067 7.16197 40.4798 7.06243C40.453 6.96288 40.4003 6.87219 40.3272 6.79951C40.254 6.72683 40.163 6.67473 40.0633 6.64848L35.1414 5.35473L33.8516 0.436761C33.8253 0.337052 33.7732 0.246035 33.7006 0.172902C33.6279 0.0997695 33.5372 0.0471103 33.4376 0.0202428C33.3381 -0.00662472 33.2332 -0.00674914 33.1336 0.0198821C33.034 0.0465133 32.9432 0.0989571 32.8703 0.171917L28.6157 4.42661C28.1581 4.886 27.8284 5.45689 27.6592 6.08281C27.4899 6.70873 27.4871 7.36798 27.6508 7.99536Z" fill="#4E4269"/>
</g>
<defs>
<clipPath id="clip0_175_5631">
<rect width="40" height="40" fill="white" transform="translate(0.5)"/>
</clipPath>
</defs>
</svg>
