<svg width="32" height="41" viewBox="0 0 32 41" fill="none" xmlns="http://www.w3.org/2000/svg">
<path d="M21.8077 5.23077V14.3846C21.8077 14.9369 21.36 15.3846 20.8077 15.3846H15.8846M21.8077 5.23077L17.5769 1M21.8077 5.23077H18.5769C18.0247 5.23077 17.5769 4.78305 17.5769 4.23077V1M17.5769 1H10.9616C10.4093 1 9.96156 1.44772 9.96156 2V14.3846C9.96156 14.9369 10.4093 15.3846 10.9616 15.3846H15.8846M12.5 6.07692H14.1923M12.5 8.61538H19.2693M12.5 11.1538H19.2693M15.8846 15.3846V24.6923M15.8846 30.1923L18.4231 28.0769M15.8846 30.1923L13.3462 28.0769M15.8846 30.1923V24.6923M0.65387 29.3462L15.8846 24.6923M0.65387 29.3462L15.8846 34M0.65387 29.3462V34.1061C0.65387 34.5458 0.941118 34.9339 1.36165 35.0624L15.8846 39.5M15.8846 24.6923L30.6923 29.3462M30.6923 29.3462L15.8846 34M30.6923 29.3462V34.1122C30.6923 34.549 30.4088 34.9352 29.9922 35.0662L15.8846 39.5M15.8846 34V39.5" stroke="#008D93" stroke-linecap="round"/>
</svg>
