<svg width="24" height="24" viewBox="0 0 24 24" fill="none" xmlns="http://www.w3.org/2000/svg">
<g clip-path="url(#clip0_1160_1682)">
<path d="M21.75 0.759521H9.75001C9.35231 0.759945 8.97103 0.918117 8.68981 1.19933C8.4086 1.48054 8.25043 1.86183 8.25001 2.25952V6.36383H3.37501C3.07674 6.36415 2.79078 6.48279 2.57987 6.69369C2.36896 6.9046 2.25033 7.19056 2.25001 7.48883V19.4905H1.12501C1.07264 19.4905 1.02085 19.5014 0.972975 19.5227C0.925101 19.5439 0.882205 19.5749 0.847049 19.6137C0.811893 19.6525 0.785257 19.6983 0.768858 19.748C0.752459 19.7977 0.74666 19.8504 0.751835 19.9025C0.822186 20.6291 1.09111 21.3224 1.52918 21.9064C1.96724 22.4904 2.55754 22.9426 3.23546 23.2136C3.37989 23.2952 20.4688 23.2113 20.6249 23.2406C21.909 22.9839 23.2398 21.1559 23.2477 19.9021C23.2525 19.8501 23.2464 19.7976 23.2298 19.7481C23.2133 19.6986 23.1866 19.653 23.1516 19.6143C23.1165 19.5757 23.0738 19.5447 23.0261 19.5234C22.9784 19.502 22.9268 19.4908 22.8746 19.4905H21.75V12.7595C22.1477 12.7591 22.529 12.6009 22.8102 12.3197C23.0914 12.0385 23.2496 11.6572 23.25 11.2595V2.25952C23.2496 1.86183 23.0914 1.48055 22.8102 1.19933C22.529 0.918122 22.1477 0.759949 21.75 0.759521ZM21.8295 21.5094C21.4926 21.9391 21.0526 22.2766 20.5503 22.4905H3.44935C2.7043 22.2668 1.66849 21.0925 1.56592 20.2405H9.43873C9.51658 20.4597 9.66033 20.6494 9.85027 20.7837C10.0402 20.918 10.267 20.9902 10.4996 20.9905H13.5C13.7326 20.9902 13.9594 20.918 14.1494 20.7837C14.3393 20.6494 14.4831 20.4597 14.5609 20.2405H22.4341C22.3288 20.7029 22.1223 21.1363 21.8295 21.5094ZM21 19.4905H14.25C14.2008 19.4905 14.152 19.5002 14.1065 19.519C14.061 19.5378 14.0196 19.5655 13.9848 19.6003C13.95 19.6351 13.9224 19.6765 13.9035 19.722C13.8847 19.7675 13.875 19.8162 13.875 19.8655C13.8749 19.9649 13.8354 20.0602 13.7651 20.1305C13.6948 20.2008 13.5994 20.2404 13.5 20.2405H10.4996C10.4002 20.2404 10.3049 20.2008 10.2346 20.1305C10.1643 20.0602 10.1247 19.9649 10.1246 19.8655C10.1246 19.8162 10.115 19.7675 10.0961 19.722C10.0773 19.6765 10.0497 19.6351 10.0148 19.6003C9.98 19.5655 9.93866 19.5378 9.89315 19.519C9.84765 19.5002 9.79888 19.4905 9.74963 19.4905H3.00001V7.48883C3.0001 7.3894 3.03965 7.29408 3.10995 7.22377C3.18025 7.15347 3.27558 7.11393 3.37501 7.11383H8.25001V11.2595C8.25043 11.6572 8.4086 12.0385 8.68981 12.3197C8.97103 12.6009 9.35231 12.7591 9.75001 12.7595H10.3198L11.707 14.4937C11.7422 14.5376 11.7868 14.5731 11.8375 14.5975C11.8882 14.6219 11.9437 14.6345 12 14.6345C12.0563 14.6345 12.1118 14.6219 12.1625 14.5975C12.2132 14.5731 12.2578 14.5376 12.293 14.4937L13.6802 12.7595H21V19.4905ZM22.5 11.2595C22.4998 11.4584 22.4207 11.649 22.2801 11.7896C22.1395 11.9302 21.9489 12.0093 21.75 12.0095H13.5C13.4437 12.0096 13.3882 12.0222 13.3375 12.0466C13.2868 12.071 13.2422 12.1064 13.207 12.1503L12 13.6593L10.793 12.1503C10.7578 12.1064 10.7132 12.071 10.6625 12.0466C10.6118 12.0222 10.5563 12.0096 10.5 12.0095H9.75001C9.55116 12.0093 9.36053 11.9302 9.21993 11.7896C9.07932 11.649 9.00023 11.4584 9.00001 11.2595V2.25952C9.00023 2.06068 9.07932 1.87005 9.21993 1.72944C9.36053 1.58884 9.55116 1.50975 9.75001 1.50952H21.75C21.9489 1.50975 22.1395 1.58884 22.2801 1.72944C22.4207 1.87005 22.4998 2.06068 22.5 2.25952V11.2595Z" fill="#D6C8EE"/>
<path d="M20.625 2.24707H16.5C16.2223 2.24793 15.9549 2.35226 15.75 2.53967C15.5451 2.35226 15.2777 2.24793 15 2.24707H10.875C10.5767 2.2474 10.2908 2.36603 10.0799 2.57693C9.86896 2.78784 9.75033 3.0738 9.75 3.37207V9.37207C9.75033 9.67034 9.86896 9.9563 10.0799 10.1672C10.2908 10.3781 10.5767 10.4967 10.875 10.4971H14.3068C14.544 10.4978 14.7754 10.5705 14.9704 10.7056C15.1654 10.8407 15.3148 11.0318 15.3988 11.2537C15.4257 11.3251 15.4737 11.3867 15.5364 11.4301C15.5992 11.4736 15.6737 11.4969 15.7501 11.4968C15.8264 11.4968 15.9009 11.4735 15.9636 11.43C16.0264 11.3865 16.0744 11.325 16.1012 11.2535C16.1851 11.0317 16.3345 10.8406 16.5294 10.7055C16.7243 10.5705 16.9557 10.4978 17.1929 10.4971H20.625C20.9233 10.4967 21.2092 10.3781 21.4201 10.1672C21.631 9.9563 21.7497 9.67034 21.75 9.37207V3.37207C21.7497 3.0738 21.631 2.78784 21.4201 2.57693C21.2092 2.36603 20.9233 2.2474 20.625 2.24707ZM14.3068 9.74707H10.875C10.7756 9.74697 10.6802 9.70743 10.6099 9.63713C10.5396 9.56682 10.5001 9.4715 10.5 9.37207V3.37207C10.5001 3.27264 10.5396 3.17732 10.6099 3.10701C10.6802 3.03671 10.7756 2.99717 10.875 2.99707H15C15.0994 2.99717 15.1948 3.03671 15.2651 3.10701C15.3354 3.17732 15.3749 3.27264 15.375 3.37207V10.0746C15.0594 9.86163 14.6875 9.74758 14.3068 9.74707ZM21 9.37207C20.9999 9.4715 20.9604 9.56682 20.8901 9.63713C20.8198 9.70743 20.7244 9.74697 20.625 9.74707H17.1929C16.8123 9.7476 16.4405 9.86158 16.125 10.0745V3.37207C16.1251 3.27264 16.1646 3.17732 16.2349 3.10701C16.3052 3.03671 16.4006 2.99717 16.5 2.99707H20.625C20.7244 2.99717 20.8198 3.03671 20.8901 3.10701C20.9604 3.17732 20.9999 3.27264 21 3.37207V9.37207Z" fill="#D6C8EE"/>
<path d="M19.5008 4.12207H17.6258C17.5275 4.12394 17.434 4.16427 17.3652 4.23439C17.2964 4.30452 17.2578 4.39884 17.2578 4.49708C17.2578 4.59532 17.2964 4.68964 17.3652 4.75976C17.434 4.82988 17.5276 4.87021 17.6258 4.87207H19.5008C19.5989 4.87016 19.6925 4.82981 19.7612 4.75969C19.83 4.68957 19.8685 4.59528 19.8685 4.49707C19.8685 4.39886 19.83 4.30457 19.7612 4.23445C19.6925 4.16433 19.5989 4.12398 19.5008 4.12207Z" fill="#D6C8EE"/>
<path d="M19.5008 5.99707H17.6258C17.5275 5.99894 17.434 6.03927 17.3652 6.10939C17.2964 6.17952 17.2578 6.27384 17.2578 6.37208C17.2578 6.47032 17.2964 6.56464 17.3652 6.63476C17.434 6.70488 17.5276 6.74521 17.6258 6.74707H19.5008C19.5989 6.74516 19.6925 6.70481 19.7612 6.63469C19.83 6.56457 19.8685 6.47028 19.8685 6.37207C19.8685 6.27386 19.83 6.17957 19.7612 6.10945C19.6925 6.03933 19.5989 5.99898 19.5008 5.99707Z" fill="#D6C8EE"/>
<path d="M19.5008 7.87207H17.6258C17.5275 7.87394 17.434 7.91427 17.3652 7.98439C17.2964 8.05452 17.2578 8.14884 17.2578 8.24708C17.2578 8.34532 17.2964 8.43964 17.3652 8.50976C17.434 8.57988 17.5276 8.62021 17.6258 8.62207H19.5008C19.5989 8.62016 19.6925 8.57981 19.7612 8.50969C19.83 8.43957 19.8685 8.34528 19.8685 8.24707C19.8685 8.14886 19.83 8.05457 19.7612 7.98445C19.6925 7.91433 19.5989 7.87398 19.5008 7.87207Z" fill="#D6C8EE"/>
<path d="M13.8758 4.12207H12.0008C11.9025 4.12394 11.809 4.16427 11.7402 4.23439C11.6714 4.30452 11.6328 4.39884 11.6328 4.49708C11.6328 4.59532 11.6714 4.68964 11.7402 4.75976C11.809 4.82988 11.9026 4.87021 12.0008 4.87207H13.8758C13.9739 4.87016 14.0675 4.82981 14.1362 4.75969C14.205 4.68957 14.2435 4.59528 14.2435 4.49707C14.2435 4.39886 14.205 4.30457 14.1362 4.23445C14.0675 4.16433 13.9739 4.12398 13.8758 4.12207Z" fill="#D6C8EE"/>
<path d="M13.8758 5.99707H12.0008C11.9025 5.99894 11.809 6.03927 11.7402 6.10939C11.6714 6.17952 11.6328 6.27384 11.6328 6.37208C11.6328 6.47032 11.6714 6.56464 11.7402 6.63476C11.809 6.70488 11.9026 6.74521 12.0008 6.74707H13.8758C13.9739 6.74516 14.0675 6.70481 14.1362 6.63469C14.205 6.56457 14.2435 6.47028 14.2435 6.37207C14.2435 6.27386 14.205 6.17957 14.1362 6.10945C14.0675 6.03933 13.9739 5.99898 13.8758 5.99707Z" fill="#D6C8EE"/>
<path d="M13.8758 7.87207H12.0008C11.9025 7.87394 11.809 7.91427 11.7402 7.98439C11.6714 8.05452 11.6328 8.14884 11.6328 8.24708C11.6328 8.34532 11.6714 8.43964 11.7402 8.50976C11.809 8.57988 11.9026 8.62021 12.0008 8.62207H13.8758C13.9739 8.62016 14.0675 8.57981 14.1362 8.50969C14.205 8.43957 14.2435 8.34528 14.2435 8.24707C14.2435 8.14886 14.205 8.05457 14.1362 7.98445C14.0675 7.91433 13.9739 7.87398 13.8758 7.87207Z" fill="#D6C8EE"/>
</g>
<defs>
<clipPath id="clip0_1160_1682">
<rect width="24" height="24" fill="white"/>
</clipPath>
</defs>
</svg>
