<svg width="25" height="24" viewBox="0 0 25 24" fill="none" xmlns="http://www.w3.org/2000/svg">
<path d="M22.5504 3.675C22.3629 3.45 22.0629 3.3375 21.8004 3.3375H6.42539L6.31289 2.175C6.27539 1.575 5.75039 1.125 5.15039 1.125H2.52539C2.30039 1.125 2.15039 1.275 2.15039 1.5C2.15039 1.725 2.30039 1.875 2.52539 1.875H5.15039C5.33789 1.875 5.52539 2.025 5.56289 2.25L6.50039 13.6125H5.82539C4.36289 13.6125 3.20039 14.775 3.20039 16.2375C3.20039 17.7 4.36289 18.8625 5.82539 18.8625H7.66289C7.25039 19.275 7.02539 19.875 7.02539 20.5125C7.02539 21.825 8.11289 22.9125 9.42539 22.9125C10.7379 22.9125 11.8254 21.825 11.8254 20.5125C11.8254 19.875 11.5629 19.3125 11.1879 18.8625H17.4504C17.0379 19.275 16.8129 19.875 16.8129 20.5125C16.8129 21.825 17.9004 22.9125 19.2129 22.9125C20.5254 22.9125 21.6129 21.825 21.6129 20.5125C21.6129 19.2 20.5254 18.1125 19.2129 18.1125H5.86289C4.81289 18.1125 3.98789 17.2875 3.98789 16.2375C3.98789 15.1875 4.81289 14.3625 5.86289 14.3625H20.9004C21.4254 14.3625 21.8754 13.95 21.9129 13.425L22.8129 4.4625C22.8504 4.1625 22.7379 3.8625 22.5504 3.675ZM11.0379 20.475C11.0379 21.375 10.2879 22.125 9.38789 22.125C8.48789 22.125 7.73789 21.375 7.73789 20.475C7.73789 19.575 8.48789 18.825 9.38789 18.825C10.2879 18.825 11.0379 19.575 11.0379 20.475ZM20.7879 20.475C20.7879 21.375 20.0379 22.125 19.1379 22.125C18.2379 22.125 17.4879 21.375 17.4879 20.475C17.4879 19.575 18.2379 18.825 19.1379 18.825C20.0379 18.825 20.7879 19.575 20.7879 20.475ZM21.1629 13.35C21.1629 13.5 21.0129 13.6125 20.8629 13.6125H7.25039L6.46289 4.0875H21.8004C21.8754 4.0875 21.9504 4.125 22.0254 4.1625C22.0629 4.2375 22.1004 4.3125 22.1004 4.3875L21.1629 13.35Z" fill="#D6C8EE"/>
<path d="M14.3012 5.7749C13.6637 5.7749 13.1387 6.2999 13.1387 6.9374V10.7999C13.1387 11.4374 13.6637 11.9624 14.3012 11.9624C14.9387 11.9624 15.4637 11.4374 15.4637 10.7999V6.8999C15.4262 6.2624 14.9387 5.7749 14.3012 5.7749ZM14.6762 10.7624C14.6762 10.9874 14.4887 11.1749 14.2637 11.1749C14.0387 11.1749 13.8512 10.9874 13.8512 10.7624V6.8999C13.8512 6.6749 14.0387 6.4874 14.2637 6.4874C14.4887 6.4874 14.6762 6.6749 14.6762 6.8999V10.7624Z" fill="#D6C8EE"/>
<path d="M18.3871 5.7749C17.7496 5.7749 17.2246 6.2999 17.2246 6.9374V10.7999C17.2246 11.4374 17.7496 11.9624 18.3871 11.9624C19.0246 11.9624 19.5496 11.4374 19.5496 10.7999V6.8999C19.5121 6.2624 19.0246 5.7749 18.3871 5.7749ZM18.7621 10.7624C18.7621 10.9874 18.5746 11.1749 18.3496 11.1749C18.1246 11.1749 17.9371 10.9874 17.9371 10.7624V6.8999C17.9371 6.6749 18.1246 6.4874 18.3496 6.4874C18.5746 6.4874 18.7621 6.6749 18.7621 6.8999V10.7624Z" fill="#D6C8EE"/>
<path d="M10.2133 5.7749C9.57578 5.7749 9.05078 6.2999 9.05078 6.9374V10.7999C9.05078 11.4374 9.57578 11.9624 10.2133 11.9624C10.8508 11.9624 11.3758 11.4374 11.3758 10.7999V6.8999C11.3383 6.2624 10.8508 5.7749 10.2133 5.7749ZM10.5883 10.7624C10.5883 10.9874 10.4008 11.1749 10.1758 11.1749C9.95078 11.1749 9.76328 10.9874 9.76328 10.7624V6.8999C9.76328 6.6749 9.95078 6.4874 10.1758 6.4874C10.4008 6.4874 10.5883 6.6749 10.5883 6.8999V10.7624Z" fill="#D6C8EE"/>
</svg>
