<svg width="37" height="36" viewBox="0 0 37 36" fill="none" xmlns="http://www.w3.org/2000/svg">
<g clip-path="url(#clip0_1655_5869)">
<path fill-rule="evenodd" clip-rule="evenodd" d="M10.6452 16.818C10.6452 17.262 10.6932 17.6205 10.7772 17.883C10.8732 18.147 10.9932 18.435 11.1612 18.747C11.2212 18.8415 11.2452 18.9375 11.2452 19.0215C11.2452 19.1415 11.1732 19.2615 11.0172 19.3815L10.2627 19.884C10.1715 19.9498 10.0631 19.9873 9.95073 19.992C9.83073 19.992 9.71073 19.932 9.59223 19.824C9.4311 19.6507 9.28694 19.4623 9.16173 19.2615C9.02765 19.0315 8.90353 18.7957 8.78973 18.555C7.85673 19.656 6.68223 20.2065 5.26923 20.2065C4.26423 20.2065 3.46173 19.92 2.87523 19.3455C2.29023 18.7695 1.99023 18.0045 1.99023 17.046C1.99023 16.029 2.35023 15.201 3.07923 14.58C3.80973 13.9575 4.77873 13.6455 6.01173 13.6455C6.41973 13.6455 6.83823 13.6815 7.28073 13.7415C7.72473 13.8015 8.18073 13.8975 8.65773 14.0055V13.131C8.65773 12.2205 8.46723 11.586 8.09523 11.2155C7.71273 10.8435 7.06623 10.665 6.14523 10.665C5.72523 10.665 5.29323 10.7115 4.85073 10.8195C4.40823 10.9275 3.97623 11.0595 3.55773 11.2275C3.42111 11.2882 3.28084 11.3403 3.13773 11.3835C3.07604 11.4034 3.01198 11.415 2.94723 11.418C2.77923 11.418 2.69523 11.298 2.69523 11.0475V10.461C2.69523 10.269 2.71923 10.125 2.77923 10.041C2.86984 9.9321 2.985 9.84625 3.11523 9.7905C3.59495 9.55231 4.10089 9.37108 4.62273 9.2505C5.23326 9.0942 5.86154 9.01806 6.49173 9.024C7.91673 9.024 8.95773 9.348 9.62823 9.9945C10.2882 10.6395 10.6212 11.622 10.6212 12.939V16.818H10.6452ZM5.78523 18.639C6.17973 18.639 6.58623 18.567 7.01823 18.423C7.45733 18.2713 7.84924 18.0076 8.15523 17.658C8.34863 17.4369 8.48827 17.174 8.56323 16.89C8.63373 16.6035 8.68323 16.2555 8.68323 15.849V15.3465C8.31984 15.2579 7.95176 15.1898 7.58073 15.1425C7.2076 15.0951 6.83187 15.071 6.45573 15.0705C5.65323 15.0705 5.06673 15.2265 4.67073 15.5505C4.27623 15.873 4.08573 16.3275 4.08573 16.926C4.08573 17.4885 4.22823 17.9085 4.52823 18.195C4.81473 18.495 5.23323 18.639 5.78523 18.639ZM15.4002 19.932C15.1842 19.932 15.0402 19.896 14.9442 19.812C14.8482 19.74 14.7642 19.572 14.6922 19.3455L11.8797 10.089C11.825 9.93379 11.7888 9.77268 11.7717 9.609C11.7717 9.417 11.8677 9.309 12.0582 9.309H13.2327C13.4592 9.309 13.6152 9.3465 13.6977 9.429C13.7952 9.501 13.8672 9.669 13.9377 9.897L15.9507 17.823L17.8182 9.897C17.8782 9.657 17.9502 9.501 18.0447 9.429C18.1887 9.34074 18.3562 9.29885 18.5247 9.309H19.4817C19.7097 9.309 19.8657 9.3465 19.9617 9.429C20.0562 9.501 20.1417 9.669 20.1882 9.897L22.0797 17.919L24.1512 9.897C24.2232 9.657 24.3072 9.501 24.3912 9.429C24.5302 9.34078 24.6935 9.29878 24.8577 9.309H25.9722C26.1627 9.309 26.2722 9.4065 26.2722 9.609C26.2722 9.669 26.2587 9.729 26.2467 9.801C26.2279 9.90335 26.1998 10.0038 26.1627 10.101L23.2782 19.356C23.2062 19.596 23.1222 19.7505 23.0262 19.8225C22.8911 19.9092 22.7321 19.9512 22.5717 19.9425H21.5412C21.3162 19.9425 21.1587 19.9065 21.0612 19.8225C20.9667 19.7385 20.8827 19.5825 20.8362 19.3425L18.9807 11.6205L17.1357 19.3305C17.0757 19.5705 17.0052 19.7265 16.9107 19.8105C16.8132 19.8945 16.6452 19.9305 16.4307 19.9305L15.4017 19.932H15.4002ZM30.7842 20.2545C30.1617 20.2545 29.5392 20.1825 28.9407 20.04C28.3422 19.896 27.8757 19.74 27.5637 19.56C27.3717 19.4535 27.2412 19.3335 27.1932 19.2255C27.1465 19.1196 27.122 19.0053 27.1212 18.8895V18.279C27.1212 18.0285 27.2172 17.9085 27.3957 17.9085C27.4677 17.9085 27.5397 17.9205 27.6117 17.9445C27.6837 17.9685 27.7917 18.0165 27.9117 18.0645C28.3182 18.2445 28.7607 18.387 29.2287 18.483C29.7087 18.579 30.1737 18.627 30.6537 18.627C31.4067 18.627 31.9947 18.495 32.4012 18.231C32.5961 18.1133 32.7563 17.9461 32.8657 17.7464C32.975 17.5467 33.0295 17.3216 33.0237 17.094C33.0281 16.9398 33.0019 16.7864 32.9465 16.6424C32.8912 16.4985 32.8078 16.367 32.7012 16.2555C32.4852 16.029 32.0772 15.825 31.4907 15.633L29.7552 15.093C28.8807 14.8185 28.2342 14.412 27.8397 13.8735C27.4536 13.3765 27.2427 12.7658 27.2397 12.1365C27.2397 11.634 27.3492 11.1915 27.5637 10.8075C27.7797 10.425 28.0662 10.089 28.4262 9.8265C28.7862 9.5505 29.1912 9.3465 29.6712 9.204C30.1512 9.06 30.6537 9 31.1802 9C31.4427 9 31.7202 9.012 31.9827 9.048C32.2572 9.084 32.5077 9.132 32.7597 9.18C32.9997 9.24 33.2277 9.3 33.4422 9.3705C33.6582 9.4425 33.8262 9.5145 33.9462 9.5865C34.0876 9.65766 34.2108 9.76029 34.3062 9.8865C34.3836 10.003 34.4209 10.1414 34.4127 10.281V10.8435C34.4127 11.0955 34.3167 11.2275 34.1367 11.2275C33.9774 11.2092 33.823 11.1603 33.6822 11.0835C32.9589 10.764 32.1749 10.6048 31.3842 10.617C30.7017 10.617 30.1617 10.7235 29.7912 10.9515C29.4192 11.1795 29.2287 11.526 29.2287 12.0165C29.2287 12.3525 29.3487 12.6405 29.5887 12.867C29.8287 13.095 30.2697 13.323 30.9042 13.527L32.6052 14.064C33.4662 14.34 34.0902 14.724 34.4607 15.2145C34.8312 15.705 35.0112 16.2675 35.0112 16.89C35.0112 17.4045 34.9032 17.8725 34.7007 18.279C34.4878 18.6889 34.1897 19.0484 33.8262 19.3335C33.4542 19.6335 33.0117 19.848 32.4972 20.004C31.9572 20.1705 31.3962 20.2545 30.7842 20.2545Z" fill="white"/>
<path fill-rule="evenodd" clip-rule="evenodd" d="M1.06718 23.2125C6.14318 26.157 12.4072 27.942 18.8827 27.942C23.2537 27.942 28.0537 27.0315 32.4727 25.164C33.1327 24.864 33.6937 25.5945 33.0472 26.0745C29.1082 28.9845 23.3842 30.528 18.4642 30.528C11.5672 30.528 5.35418 27.978 0.65918 23.739C0.28868 23.4045 0.62318 22.9485 1.06718 23.2125ZM36.3637 22.9125C36.7942 23.4525 36.2437 27.1515 34.1362 28.923C33.8137 29.199 33.5017 29.055 33.6457 28.6965L33.9082 28.038C34.4227 26.718 35.1112 24.741 34.6882 24.2055C34.1842 23.5605 31.3582 23.895 30.0772 24.051C29.6947 24.099 29.6347 23.763 29.9827 23.511C32.2327 21.9315 35.9332 22.386 36.3637 22.9125Z" fill="#FF9900"/>
</g>
<defs>
<clipPath id="clip0_1655_5869">
<rect width="36" height="36" fill="white" transform="translate(0.5)"/>
</clipPath>
</defs>
</svg>
